UbuntuMono-RegularItalic.ufo
<glyph name="exclam" format="2">
  <advance width="500"/>
  <unicode hex="0021"/>
  <outline>
    <contour>
      <point x="244" y="211" type="curve"/>
      <point x="301" y="211" type="line"/>
      <point x="329" y="291"/>
      <point x="350" y="352"/>
      <point x="374" y="451" type="curve" smooth="yes"/>
      <point x="414" y="619" type="line"/>
      <point x="325" y="619" type="line"/>
      <point x="285" y="451" type="line" smooth="yes"/>
      <point x="261" y="352"/>
      <point x="254" y="291"/>
    </contour>
    <contour>
      <point x="232" y="-12" type="curve" smooth="yes"/>
      <point x="268" y="-12"/>
      <point x="304" y="17"/>
      <point x="304" y="63" type="curve" smooth="yes"/>
      <point x="304" y="103"/>
      <point x="277" y="124"/>
      <point x="243" y="124" type="curve" smooth="yes"/>
      <point x="205" y="124"/>
      <point x="173" y="96"/>
      <point x="173" y="48" type="curve" smooth="yes"/>
      <point x="173" y="8"/>
      <point x="198" y="-12"/>
    </contour>
  </outline>
</glyph>
<glyph name="quotedbl" format="2">
  <advance width="500"/>
  <unicode hex="0022"/>
  <outline>
    <contour>
      <point x="221" y="430" type="curve"/>
      <point x="263" y="430" type="line"/>
      <point x="289" y="492"/>
      <point x="316" y="576"/>
      <point x="330" y="634" type="curve" smooth="yes"/>
      <point x="341" y="679" type="line"/>
      <point x="264" y="679" type="line"/>
      <point x="254" y="635" type="line" smooth="yes"/>
      <point x="239" y="576"/>
      <point x="227" y="492"/>
    </contour>
    <contour>
      <point x="387" y="430" type="curve"/>
      <point x="429" y="430" type="line"/>
      <point x="454" y="492"/>
      <point x="480" y="576"/>
      <point x="495" y="634" type="curve" smooth="yes"/>
      <point x="505" y="679" type="line"/>
      <point x="429" y="679" type="line"/>
      <point x="418" y="635" type="line" smooth="yes"/>
      <point x="404" y="576"/>
      <point x="392" y="492"/>
    </contour>
  </outline>
</glyph>
<glyph name="numbersign" format="2">
  <advance width="500"/>
  <unicode hex="0023"/>
  <outline>
    <contour>
      <point x="40" y="0" type="line"/>
      <point x="114" y="0" type="line"/>
      <point x="185" y="163" type="line"/>
      <point x="296" y="163" type="line"/>
      <point x="225" y="0" type="line"/>
      <point x="300" y="0" type="line"/>
      <point x="371" y="163" type="line"/>
      <point x="492" y="163" type="line"/>
      <point x="508" y="230" type="line"/>
      <point x="400" y="230" type="line"/>
      <point x="469" y="389" type="line"/>
      <point x="547" y="389" type="line"/>
      <point x="563" y="455" type="line"/>
      <point x="498" y="455" type="line"/>
      <point x="568" y="619" type="line"/>
      <point x="493" y="619" type="line"/>
      <point x="423" y="455" type="line"/>
      <point x="313" y="455" type="line"/>
      <point x="382" y="619" type="line"/>
      <point x="307" y="619" type="line"/>
      <point x="238" y="455" type="line"/>
      <point x="116" y="455" type="line"/>
      <point x="100" y="389" type="line"/>
      <point x="207" y="389" type="line"/>
      <point x="138" y="230" type="line"/>
      <point x="62" y="230" type="line"/>
      <point x="46" y="163" type="line"/>
      <point x="110" y="163" type="line"/>
    </contour>
    <contour>
      <point x="214" y="230" type="line"/>
      <point x="283" y="389" type="line"/>
      <point x="393" y="389" type="line"/>
      <point x="324" y="230" type="line"/>
    </contour>
  </outline>
</glyph>
<glyph name="dollar" format="2">
  <advance width="500"/>
  <unicode hex="0024"/>
  <outline>
    <contour>
      <point x="182" y="-97" type="line"/>
      <point x="255" y="-97" type="line"/>
      <point x="281" y="18" type="line"/>
      <point x="392" y="29"/>
      <point x="468" y="89"/>
      <point x="468" y="193" type="curve" smooth="yes"/>
      <point x="468" y="277"/>
      <point x="412" y="311"/>
      <point x="346" y="339" type="curve" smooth="yes"/>
      <point x="286" y="368"/>
      <point x="256" y="388"/>
      <point x="256" y="437" type="curve" smooth="yes"/>
      <point x="256" y="497"/>
      <point x="313" y="523"/>
      <point x="382" y="523" type="curve" smooth="yes"/>
      <point x="439" y="523"/>
      <point x="478" y="507"/>
      <point x="498" y="493" type="curve"/>
      <point x="536" y="555" type="line"/>
      <point x="514" y="569"/>
      <point x="471" y="588"/>
      <point x="420" y="593" type="curve"/>
      <point x="444" y="693" type="line"/>
      <point x="371" y="693" type="line"/>
      <point x="347" y="591" type="line"/>
      <point x="234" y="577"/>
      <point x="175" y="515"/>
      <point x="175" y="430" type="curve" smooth="yes"/>
      <point x="175" y="345"/>
      <point x="230" y="311"/>
      <point x="282" y="287" type="curve" smooth="yes"/>
      <point x="342" y="258"/>
      <point x="386" y="239"/>
      <point x="386" y="186" type="curve" smooth="yes"/>
      <point x="386" y="110"/>
      <point x="313" y="88"/>
      <point x="244" y="88" type="curve" smooth="yes"/>
      <point x="175" y="88"/>
      <point x="131" y="113"/>
      <point x="110" y="126" type="curve"/>
      <point x="70" y="60" type="line"/>
      <point x="91" y="46"/>
      <point x="149" y="21"/>
      <point x="210" y="19" type="curve"/>
    </contour>
  </outline>
</glyph>
<glyph name="percent" format="2">
  <advance width="500"/>
  <unicode hex="0025"/>
  <outline>
    <contour>
      <point x="5" y="0" type="line"/>
      <point x="77" y="0" type="line"/>
      <point x="604" y="619" type="line"/>
      <point x="532" y="619" type="line"/>
    </contour>
    <contour>
      <point x="370" y="-13" type="curve" smooth="yes"/>
      <point x="444" y="-13"/>
      <point x="510" y="61"/>
      <point x="510" y="194" type="curve" smooth="yes"/>
      <point x="510" y="262"/>
      <point x="480" y="297"/>
      <point x="424" y="297" type="curve" smooth="yes"/>
      <point x="321" y="297"/>
      <point x="283" y="172"/>
      <point x="283" y="92" type="curve" smooth="yes"/>
      <point x="283" y="23"/>
      <point x="314" y="-13"/>
    </contour>
    <contour>
      <point x="379" y="39" type="curve" smooth="yes"/>
      <point x="355" y="39"/>
      <point x="345" y="63"/>
      <point x="345" y="100" type="curve" smooth="yes"/>
      <point x="345" y="178"/>
      <point x="380" y="245"/>
      <point x="415" y="245" type="curve" smooth="yes"/>
      <point x="438" y="245"/>
      <point x="448" y="221"/>
      <point x="448" y="186" type="curve" smooth="yes"/>
      <point x="448" y="146"/>
      <point x="430" y="39"/>
    </contour>
    <contour>
      <point x="186" y="321" type="curve" smooth="yes"/>
      <point x="260" y="321"/>
      <point x="326" y="396"/>
      <point x="326" y="529" type="curve" smooth="yes"/>
      <point x="326" y="597"/>
      <point x="296" y="632"/>
      <point x="240" y="632" type="curve" smooth="yes"/>
      <point x="137" y="632"/>
      <point x="99" y="507"/>
      <point x="99" y="427" type="curve" smooth="yes"/>
      <point x="99" y="358"/>
      <point x="130" y="321"/>
    </contour>
    <contour>
      <point x="195" y="374" type="curve" smooth="yes"/>
      <point x="171" y="374"/>
      <point x="161" y="398"/>
      <point x="161" y="435" type="curve" smooth="yes"/>
      <point x="161" y="513"/>
      <point x="196" y="580"/>
      <point x="231" y="580" type="curve" smooth="yes"/>
      <point x="254" y="580"/>
      <point x="264" y="556"/>
      <point x="264" y="521" type="curve" smooth="yes"/>
      <point x="264" y="481"/>
      <point x="246" y="374"/>
    </contour>
  </outline>
</glyph>
<glyph name="ampersand" format="2">
  <advance width="500"/>
  <unicode hex="0026"/>
  <outline>
    <contour>
      <point x="186" y="-8" type="curve" smooth="yes"/>
      <point x="243" y="-8"/>
      <point x="301" y="14"/>
      <point x="354" y="66" type="curve"/>
      <point x="361" y="45"/>
      <point x="367" y="23"/>
      <point x="372" y="0" type="curve"/>
      <point x="458" y="0" type="line"/>
      <point x="443" y="54"/>
      <point x="427" y="96"/>
      <point x="409" y="134" type="curve"/>
      <point x="440" y="183"/>
      <point x="468" y="246"/>
      <point x="491" y="324" type="curve"/>
      <point x="421" y="333" type="line"/>
      <point x="407" y="281"/>
      <point x="391" y="238"/>
      <point x="372" y="201" type="curve"/>
      <point x="355" y="230"/>
      <point x="338" y="256"/>
      <point x="298" y="321" type="curve"/>
      <point x="309" y="326" type="line" smooth="yes"/>
      <point x="425" y="386"/>
      <point x="464" y="466"/>
      <point x="464" y="530" type="curve" smooth="yes"/>
      <point x="464" y="600"/>
      <point x="414" y="633"/>
      <point x="355" y="633" type="curve" smooth="yes"/>
      <point x="259" y="633"/>
      <point x="171" y="564"/>
      <point x="171" y="447" type="curve" smooth="yes"/>
      <point x="171" y="411"/>
      <point x="184" y="375"/>
      <point x="204" y="338" type="curve"/>
      <point x="184" y="325" type="line" smooth="yes"/>
      <point x="88" y="265"/>
      <point x="57" y="188"/>
      <point x="57" y="123" type="curve" smooth="yes"/>
      <point x="57" y="50"/>
      <point x="109" y="-8"/>
    </contour>
    <contour>
      <point x="212" y="61" type="curve" smooth="yes"/>
      <point x="164" y="61"/>
      <point x="142" y="93"/>
      <point x="142" y="135" type="curve" smooth="yes"/>
      <point x="142" y="190"/>
      <point x="156" y="239"/>
      <point x="225" y="281" type="curve" smooth="yes"/>
      <point x="234" y="287" type="line"/>
      <point x="263" y="239"/>
      <point x="298" y="188"/>
      <point x="327" y="129" type="curve"/>
      <point x="289" y="83"/>
      <point x="249" y="61"/>
    </contour>
    <contour>
      <point x="269" y="371" type="line"/>
      <point x="254" y="400"/>
      <point x="249" y="421"/>
      <point x="249" y="448" type="curve" smooth="yes"/>
      <point x="249" y="530"/>
      <point x="294" y="568"/>
      <point x="337" y="568" type="curve" smooth="yes"/>
      <point x="364" y="568"/>
      <point x="388" y="552"/>
      <point x="388" y="522" type="curve" smooth="yes"/>
      <point x="388" y="477"/>
      <point x="353" y="414"/>
      <point x="285" y="379" type="curve" smooth="yes"/>
    </contour>
  </outline>
</glyph>
<glyph name="quotesingle" format="2">
  <advance width="500"/>
  <unicode hex="0027"/>
  <outline>
    <contour>
      <point x="300" y="412" type="curve"/>
      <point x="351" y="412" type="line"/>
      <point x="375" y="474"/>
      <point x="408" y="576"/>
      <point x="421" y="634" type="curve" smooth="yes"/>
      <point x="432" y="679" type="line"/>
      <point x="346" y="679" type="line"/>
      <point x="336" y="635" type="line" smooth="yes"/>
      <point x="321" y="576"/>
      <point x="305" y="474"/>
    </contour>
  </outline>
</glyph>
<glyph name="parenleft" format="2">
  <advance width="500"/>
  <unicode hex="0028"/>
  <outline>
    <contour>
      <point x="283" y="-167" type="curve"/>
      <point x="337" y="-113" type="line"/>
      <point x="258" y="-29"/>
      <point x="225" y="67"/>
      <point x="225" y="162" type="curve" smooth="yes"/>
      <point x="225" y="345"/>
      <point x="350" y="527"/>
      <point x="523" y="637" type="curve"/>
      <point x="491" y="701" type="line"/>
      <point x="285" y="580"/>
      <point x="146" y="367"/>
      <point x="146" y="157" type="curve" smooth="yes"/>
      <point x="146" y="43"/>
      <point x="188" y="-71"/>
    </contour>
  </outline>
</glyph>
<glyph name="parenright" format="2">
  <advance width="500"/>
  <unicode hex="0029"/>
  <outline>
    <contour>
      <point x="88" y="-167" type="line"/>
      <point x="295" y="-46"/>
      <point x="434" y="167"/>
      <point x="434" y="377" type="curve" smooth="yes"/>
      <point x="434" y="491"/>
      <point x="392" y="605"/>
      <point x="296" y="701" type="curve"/>
      <point x="243" y="647" type="line"/>
      <point x="321" y="563"/>
      <point x="355" y="467"/>
      <point x="355" y="372" type="curve" smooth="yes"/>
      <point x="355" y="189"/>
      <point x="230" y="7"/>
      <point x="56" y="-103" type="curve"/>
    </contour>
  </outline>
</glyph>
<glyph name="asterisk" format="2">
  <advance width="500"/>
  <unicode hex="002A"/>
  <outline>
    <contour>
      <point x="406" y="250" type="line"/>
      <point x="476" y="301" type="line"/>
      <point x="472" y="306" type="line" smooth="yes"/>
      <point x="446" y="347"/>
      <point x="404" y="384"/>
      <point x="367" y="417" type="curve"/>
      <point x="416" y="422"/>
      <point x="470" y="430"/>
      <point x="517" y="444" type="curve" smooth="yes"/>
      <point x="523" y="446" type="line"/>
      <point x="497" y="528" type="line"/>
      <point x="490" y="525" type="line" smooth="yes"/>
      <point x="445" y="508"/>
      <point x="396" y="485"/>
      <point x="354" y="460" type="curve"/>
      <point x="363" y="508"/>
      <point x="374" y="562"/>
      <point x="374" y="612" type="curve" smooth="yes"/>
      <point x="374" y="619" type="line"/>
      <point x="288" y="619" type="line"/>
      <point x="288" y="612" type="line" smooth="yes"/>
      <point x="288" y="562"/>
      <point x="299" y="508"/>
      <point x="309" y="460" type="curve"/>
      <point x="266" y="484"/>
      <point x="218" y="508"/>
      <point x="171" y="526" type="curve" smooth="yes"/>
      <point x="164" y="529" type="line"/>
      <point x="138" y="447" type="line"/>
      <point x="145" y="445" type="line" smooth="yes"/>
      <point x="191" y="429"/>
      <point x="246" y="423"/>
      <point x="295" y="417" type="curve"/>
      <point x="258" y="384"/>
      <point x="219" y="348"/>
      <point x="189" y="307" type="curve" smooth="yes"/>
      <point x="185" y="301" type="line"/>
      <point x="254" y="251" type="line"/>
      <point x="258" y="256" type="line" smooth="yes"/>
      <point x="288" y="296"/>
      <point x="311" y="346"/>
      <point x="331" y="390" type="curve"/>
      <point x="351" y="346"/>
      <point x="373" y="296"/>
      <point x="402" y="256" type="curve" smooth="yes"/>
    </contour>
  </outline>
</glyph>
<glyph name="plus" format="2">
  <advance width="500"/>
  <unicode hex="002B"/>
  <outline>
    <contour>
      <point x="206" y="43" type="line"/>
      <point x="281" y="43" type="line"/>
      <point x="326" y="228" type="line"/>
      <point x="487" y="228" type="line"/>
      <point x="504" y="298" type="line"/>
      <point x="343" y="298" type="line"/>
      <point x="388" y="482" type="line"/>
      <point x="312" y="482" type="line"/>
      <point x="267" y="298" type="line"/>
      <point x="103" y="298" type="line"/>
      <point x="86" y="228" type="line"/>
      <point x="250" y="228" type="line"/>
    </contour>
  </outline>
</glyph>
<glyph name="comma" format="2">
  <advance width="500"/>
  <unicode hex="002C"/>
  <outline>
    <contour>
      <point x="113" y="-144" type="line"/>
      <point x="260" y="-126"/>
      <point x="323" y="-19"/>
      <point x="323" y="57" type="curve" smooth="yes"/>
      <point x="323" y="104"/>
      <point x="299" y="139"/>
      <point x="255" y="139" type="curve" smooth="yes"/>
      <point x="205" y="139"/>
      <point x="174" y="104"/>
      <point x="174" y="59" type="curve" smooth="yes"/>
      <point x="174" y="27"/>
      <point x="193" y="-3"/>
      <point x="230" y="-8" type="curve"/>
      <point x="213" y="-55"/>
      <point x="151" y="-75"/>
      <point x="105" y="-79" type="curve"/>
    </contour>
  </outline>
</glyph>
<glyph name="hyphen" format="2">
  <advance width="500"/>
  <unicode hex="002D"/>
  <outline>
    <contour>
      <point x="176" y="215" type="line"/>
      <point x="396" y="215" type="line"/>
      <point x="414" y="293" type="line"/>
      <point x="195" y="293" type="line"/>
    </contour>
  </outline>
</glyph>
<glyph name="period" format="2">
  <advance width="500"/>
  <unicode hex="002E"/>
  <outline>
    <contour>
      <point x="240" y="-12" type="curve" smooth="yes"/>
      <point x="280" y="-12"/>
      <point x="321" y="21"/>
      <point x="321" y="71" type="curve" smooth="yes"/>
      <point x="321" y="117"/>
      <point x="290" y="141"/>
      <point x="253" y="141" type="curve" smooth="yes"/>
      <point x="211" y="141"/>
      <point x="174" y="110"/>
      <point x="174" y="55" type="curve" smooth="yes"/>
      <point x="174" y="11"/>
      <point x="203" y="-12"/>
    </contour>
  </outline>
</glyph>
<glyph name="slash" format="2">
  <advance width="500"/>
  <unicode hex="002F"/>
  <outline>
    <contour>
      <point x="-17" y="-165" type="line"/>
      <point x="67" y="-165" type="line"/>
      <point x="553" y="699" type="line"/>
      <point x="470" y="699" type="line"/>
    </contour>
  </outline>
</glyph>
<glyph name="zero" format="2">
  <advance width="500"/>
  <unicode hex="0030"/>
  <outline>
    <contour>
      <point x="232" y="-13" type="curve" smooth="yes"/>
      <point x="430" y="-13"/>
      <point x="524" y="271"/>
      <point x="524" y="447" type="curve" smooth="yes"/>
      <point x="524" y="570"/>
      <point x="477" y="633"/>
      <point x="376" y="633" type="curve" smooth="yes"/>
      <point x="178" y="633"/>
      <point x="84" y="348"/>
      <point x="84" y="172" type="curve" smooth="yes"/>
      <point x="84" y="50"/>
      <point x="131" y="-13"/>
    </contour>
    <contour>
      <point x="242" y="60" type="curve" smooth="yes"/>
      <point x="188" y="60"/>
      <point x="168" y="94"/>
      <point x="168" y="183" type="curve" smooth="yes"/>
      <point x="168" y="342"/>
      <point x="254" y="560"/>
      <point x="366" y="560" type="curve" smooth="yes"/>
      <point x="421" y="560"/>
      <point x="440" y="526"/>
      <point x="440" y="437" type="curve" smooth="yes"/>
      <point x="440" y="277"/>
      <point x="355" y="60"/>
    </contour>
    <contour>
      <point x="300" y="256" type="curve" smooth="yes"/>
      <point x="334" y="256"/>
      <point x="367" y="284"/>
      <point x="367" y="327" type="curve" smooth="yes"/>
      <point x="367" y="366"/>
      <point x="342" y="387"/>
      <point x="311" y="387" type="curve" smooth="yes"/>
      <point x="276" y="387"/>
      <point x="246" y="360"/>
      <point x="246" y="313" type="curve" smooth="yes"/>
      <point x="246" y="275"/>
      <point x="269" y="256"/>
    </contour>
  </outline>
</glyph>
<glyph name="one" format="2">
  <advance width="500"/>
  <unicode hex="0031"/>
  <outline>
    <contour>
      <point x="92" y="0" type="line"/>
      <point x="424" y="0" type="line"/>
      <point x="441" y="70" type="line"/>
      <point x="325" y="70" type="line"/>
      <point x="457" y="619" type="line"/>
      <point x="398" y="619" type="line"/>
      <point x="330" y="557"/>
      <point x="255" y="517"/>
      <point x="181" y="491" type="curve"/>
      <point x="195" y="422" type="line"/>
      <point x="249" y="439"/>
      <point x="313" y="471"/>
      <point x="345" y="496" type="curve"/>
      <point x="243" y="70" type="line"/>
      <point x="109" y="70" type="line"/>
    </contour>
  </outline>
</glyph>
<glyph name="two" format="2">
  <advance width="500"/>
  <unicode hex="0032"/>
  <outline>
    <contour>
      <point x="69" y="0" type="curve"/>
      <point x="430" y="0" type="line"/>
      <point x="447" y="70" type="line"/>
      <point x="178" y="70" type="line"/>
      <point x="196" y="127"/>
      <point x="276" y="188"/>
      <point x="336" y="233" type="curve" smooth="yes"/>
      <point x="438" y="309"/>
      <point x="524" y="367"/>
      <point x="524" y="493" type="curve" smooth="yes"/>
      <point x="524" y="563"/>
      <point x="479" y="633"/>
      <point x="363" y="633" type="curve" smooth="yes"/>
      <point x="287" y="633"/>
      <point x="216" y="597"/>
      <point x="183" y="566" type="curve"/>
      <point x="212" y="502" type="line"/>
      <point x="233" y="523"/>
      <point x="286" y="561"/>
      <point x="353" y="561" type="curve" smooth="yes"/>
      <point x="413" y="561"/>
      <point x="438" y="530"/>
      <point x="438" y="481" type="curve" smooth="yes"/>
      <point x="438" y="394"/>
      <point x="351" y="336"/>
      <point x="258" y="267" type="curve" smooth="yes"/>
      <point x="171" y="201"/>
      <point x="88" y="127"/>
    </contour>
  </outline>
</glyph>
<glyph name="three" format="2">
  <advance width="500"/>
  <unicode hex="0033"/>
  <outline>
    <contour>
      <point x="218" y="-13" type="curve" smooth="yes"/>
      <point x="384" y="-13"/>
      <point x="472" y="71"/>
      <point x="472" y="197" type="curve" smooth="yes"/>
      <point x="472" y="270"/>
      <point x="428" y="313"/>
      <point x="387" y="330" type="curve"/>
      <point x="465" y="361"/>
      <point x="514" y="416"/>
      <point x="514" y="495" type="curve" smooth="yes"/>
      <point x="514" y="572"/>
      <point x="467" y="633"/>
      <point x="355" y="633" type="curve" smooth="yes"/>
      <point x="294" y="633"/>
      <point x="231" y="609"/>
      <point x="200" y="588" type="curve"/>
      <point x="220" y="523" type="line"/>
      <point x="249" y="542"/>
      <point x="291" y="562"/>
      <point x="342" y="562" type="curve" smooth="yes"/>
      <point x="398" y="562"/>
      <point x="430" y="536"/>
      <point x="430" y="486" type="curve" smooth="yes"/>
      <point x="430" y="405"/>
      <point x="349" y="363"/>
      <point x="271" y="363" type="curve" smooth="yes"/>
      <point x="244" y="363" type="line"/>
      <point x="228" y="296" type="line"/>
      <point x="246" y="296" type="line" smooth="yes"/>
      <point x="332" y="296"/>
      <point x="388" y="266"/>
      <point x="388" y="196" type="curve" smooth="yes"/>
      <point x="388" y="105"/>
      <point x="317" y="60"/>
      <point x="221" y="60" type="curve" smooth="yes"/>
      <point x="150" y="60"/>
      <point x="108" y="84"/>
      <point x="91" y="94" type="curve"/>
      <point x="60" y="23" type="line"/>
      <point x="74" y="13"/>
      <point x="135" y="-13"/>
    </contour>
  </outline>
</glyph>
<glyph name="four" format="2">
  <advance width="500"/>
  <unicode hex="0034"/>
  <outline>
    <contour>
      <point x="282" y="0" type="line"/>
      <point x="363" y="0" type="line"/>
      <point x="400" y="158" type="line"/>
      <point x="472" y="158" type="line"/>
      <point x="488" y="226" type="line"/>
      <point x="416" y="226" type="line"/>
      <point x="511" y="619" type="line"/>
      <point x="430" y="619" type="line"/>
      <point x="288" y="513"/>
      <point x="129" y="327"/>
      <point x="62" y="214" type="curve"/>
      <point x="48" y="158" type="line"/>
      <point x="320" y="158" type="line"/>
    </contour>
    <contour>
      <point x="149" y="226" type="line"/>
      <point x="216" y="333"/>
      <point x="321" y="444"/>
      <point x="406" y="515" type="curve"/>
      <point x="337" y="226" type="line"/>
    </contour>
  </outline>
</glyph>
<glyph name="five" format="2">
  <advance width="500"/>
  <unicode hex="0035"/>
  <outline>
    <contour>
      <point x="207" y="-13" type="curve" smooth="yes"/>
      <point x="389" y="-13"/>
      <point x="469" y="83"/>
      <point x="469" y="205" type="curve" smooth="yes"/>
      <point x="469" y="308"/>
      <point x="399" y="363"/>
      <point x="264" y="380" type="curve"/>
      <point x="276" y="419"/>
      <point x="305" y="501"/>
      <point x="320" y="549" type="curve"/>
      <point x="535" y="549" type="line"/>
      <point x="551" y="619" type="line"/>
      <point x="262" y="619" type="line"/>
      <point x="236" y="514"/>
      <point x="204" y="429"/>
      <point x="165" y="319" type="curve"/>
      <point x="251" y="314"/>
      <point x="385" y="308"/>
      <point x="385" y="197" type="curve" smooth="yes"/>
      <point x="385" y="111"/>
      <point x="309" y="60"/>
      <point x="212" y="60" type="curve" smooth="yes"/>
      <point x="146" y="60"/>
      <point x="105" y="81"/>
      <point x="88" y="91" type="curve"/>
      <point x="56" y="21" type="line"/>
      <point x="68" y="14"/>
      <point x="131" y="-13"/>
    </contour>
  </outline>
</glyph>
<glyph name="six" format="2">
  <advance width="500"/>
  <unicode hex="0036"/>
  <outline>
    <contour>
      <point x="257" y="-13" type="curve" smooth="yes"/>
      <point x="424" y="-13"/>
      <point x="495" y="113"/>
      <point x="495" y="232" type="curve" smooth="yes"/>
      <point x="495" y="311"/>
      <point x="450" y="380"/>
      <point x="342" y="380" type="curve" smooth="yes"/>
      <point x="302" y="380"/>
      <point x="255" y="369"/>
      <point x="217" y="350" type="curve"/>
      <point x="260" y="457"/>
      <point x="368" y="551"/>
      <point x="540" y="551" type="curve"/>
      <point x="550" y="622" type="line"/>
      <point x="546" y="622"/>
      <point x="542" y="622"/>
      <point x="538" y="622" type="curve" smooth="yes"/>
      <point x="271" y="622"/>
      <point x="96" y="415"/>
      <point x="96" y="165" type="curve" smooth="yes"/>
      <point x="96" y="55"/>
      <point x="153" y="-13"/>
    </contour>
    <contour>
      <point x="269" y="54" type="curve" smooth="yes"/>
      <point x="202" y="54"/>
      <point x="178" y="98"/>
      <point x="178" y="172" type="curve" smooth="yes"/>
      <point x="178" y="204"/>
      <point x="184" y="246"/>
      <point x="196" y="284" type="curve"/>
      <point x="238" y="305"/>
      <point x="280" y="311"/>
      <point x="322" y="311" type="curve" smooth="yes"/>
      <point x="387" y="311"/>
      <point x="413" y="280"/>
      <point x="413" y="223" type="curve" smooth="yes"/>
      <point x="413" y="141"/>
      <point x="362" y="54"/>
    </contour>
  </outline>
</glyph>
<glyph name="seven" format="2">
  <advance width="500"/>
  <unicode hex="0037"/>
  <outline>
    <contour>
      <point x="139" y="0" type="curve"/>
      <point x="227" y="0" type="line"/>
      <point x="291" y="221"/>
      <point x="471" y="459"/>
      <point x="573" y="547" type="curve"/>
      <point x="590" y="619" type="line"/>
      <point x="202" y="619" type="line"/>
      <point x="186" y="549" type="line"/>
      <point x="480" y="549" type="line"/>
      <point x="357" y="440"/>
      <point x="193" y="189"/>
    </contour>
  </outline>
</glyph>
<glyph name="eight" format="2">
  <advance width="500"/>
  <unicode hex="0038"/>
  <outline>
    <contour>
      <point x="243" y="-13" type="curve" smooth="yes"/>
      <point x="401" y="-13"/>
      <point x="480" y="79"/>
      <point x="480" y="184" type="curve" smooth="yes"/>
      <point x="480" y="247"/>
      <point x="447" y="284"/>
      <point x="407" y="312" type="curve"/>
      <point x="488" y="352"/>
      <point x="538" y="414"/>
      <point x="538" y="496" type="curve" smooth="yes"/>
      <point x="538" y="564"/>
      <point x="492" y="633"/>
      <point x="381" y="633" type="curve" smooth="yes"/>
      <point x="248" y="633"/>
      <point x="167" y="540"/>
      <point x="167" y="434" type="curve" smooth="yes"/>
      <point x="167" y="388"/>
      <point x="185" y="352"/>
      <point x="221" y="323" type="curve"/>
      <point x="132" y="280"/>
      <point x="79" y="212"/>
      <point x="79" y="126" type="curve" smooth="yes"/>
      <point x="79" y="59"/>
      <point x="124" y="-13"/>
    </contour>
    <contour>
      <point x="254" y="54" type="curve" smooth="yes"/>
      <point x="182" y="54"/>
      <point x="161" y="94"/>
      <point x="161" y="140" type="curve" smooth="yes"/>
      <point x="161" y="205"/>
      <point x="218" y="263"/>
      <point x="283" y="292" type="curve"/>
      <point x="355" y="267"/>
      <point x="397" y="234"/>
      <point x="397" y="176" type="curve" smooth="yes"/>
      <point x="397" y="104"/>
      <point x="333" y="54"/>
    </contour>
    <contour>
      <point x="342" y="340" type="curve"/>
      <point x="277" y="362"/>
      <point x="248" y="393"/>
      <point x="248" y="442" type="curve" smooth="yes"/>
      <point x="248" y="513"/>
      <point x="301" y="565"/>
      <point x="371" y="565" type="curve" smooth="yes"/>
      <point x="439" y="565"/>
      <point x="455" y="523"/>
      <point x="455" y="487" type="curve" smooth="yes"/>
      <point x="455" y="416"/>
      <point x="402" y="369"/>
    </contour>
  </outline>
</glyph>
<glyph name="nine" format="2">
  <advance width="500"/>
  <unicode hex="0039"/>
  <outline>
    <contour>
      <point x="97" y="-2" type="curve" smooth="yes"/>
      <point x="371" y="-2"/>
      <point x="535" y="199"/>
      <point x="535" y="454" type="curve" smooth="yes"/>
      <point x="535" y="563"/>
      <point x="478" y="632"/>
      <point x="368" y="632" type="curve" smooth="yes"/>
      <point x="210" y="632"/>
      <point x="136" y="509"/>
      <point x="136" y="389" type="curve" smooth="yes"/>
      <point x="136" y="310"/>
      <point x="182" y="243"/>
      <point x="289" y="243" type="curve" smooth="yes"/>
      <point x="330" y="243"/>
      <point x="376" y="253"/>
      <point x="414" y="271" type="curve"/>
      <point x="345" y="105"/>
      <point x="201" y="62"/>
      <point x="89" y="70" type="curve"/>
      <point x="74" y="-1" type="line"/>
      <point x="86" y="-2"/>
      <point x="91" y="-2"/>
    </contour>
    <contour>
      <point x="309" y="312" type="curve" smooth="yes"/>
      <point x="245" y="312"/>
      <point x="218" y="341"/>
      <point x="218" y="398" type="curve" smooth="yes"/>
      <point x="218" y="480"/>
      <point x="269" y="564"/>
      <point x="362" y="564" type="curve" smooth="yes"/>
      <point x="426" y="564"/>
      <point x="453" y="520"/>
      <point x="453" y="455" type="curve" smooth="yes"/>
      <point x="453" y="415"/>
      <point x="447" y="374"/>
      <point x="436" y="338" type="curve"/>
      <point x="393" y="318"/>
      <point x="351" y="312"/>
    </contour>
  </outline>
</glyph>
<glyph name="less" format="2">
  <advance width="500"/>
  <unicode hex="003C"/>
  <outline>
    <contour>
      <point x="417" y="55" type="line"/>
      <point x="455" y="121" type="line"/>
      <point x="177" y="250" type="line"/>
      <point x="518" y="380" type="line"/>
      <point x="513" y="454" type="line"/>
      <point x="95" y="290" type="line"/>
      <point x="78" y="219" type="line"/>
    </contour>
  </outline>
</glyph>
<glyph name="equal" format="2">
  <advance width="500"/>
  <unicode hex="003D"/>
  <outline>
    <contour>
      <point x="109" y="322" type="line"/>
      <point x="510" y="322" type="line"/>
      <point x="527" y="393" type="line"/>
      <point x="126" y="393" type="line"/>
    </contour>
    <contour>
      <point x="63" y="132" type="line"/>
      <point x="464" y="132" type="line"/>
      <point x="481" y="203" type="line"/>
      <point x="80" y="203" type="line"/>
    </contour>
  </outline>
</glyph>
<glyph name="greater" format="2">
  <advance width="500"/>
  <unicode hex="003E"/>
  <outline>
    <contour>
      <point x="65" y="55" type="line"/>
      <point x="483" y="219" type="line"/>
      <point x="500" y="290" type="line"/>
      <point x="161" y="454" type="line"/>
      <point x="123" y="388" type="line"/>
      <point x="401" y="259" type="line"/>
      <point x="60" y="129" type="line"/>
    </contour>
  </outline>
</glyph>
<glyph name="question" format="2">
  <advance width="500"/>
  <unicode hex="003F"/>
  <outline>
    <contour>
      <point x="226" y="211" type="curve"/>
      <point x="299" y="211" type="line"/>
      <point x="308" y="261"/>
      <point x="347" y="295"/>
      <point x="389" y="329" type="curve" smooth="yes"/>
      <point x="450" y="377"/>
      <point x="518" y="424"/>
      <point x="518" y="512" type="curve" smooth="yes"/>
      <point x="518" y="604"/>
      <point x="445" y="633"/>
      <point x="369" y="633" type="curve" smooth="yes"/>
      <point x="317" y="633"/>
      <point x="264" y="619"/>
      <point x="232" y="602" type="curve"/>
      <point x="241" y="538" type="line"/>
      <point x="284" y="558"/>
      <point x="318" y="565"/>
      <point x="357" y="565" type="curve" smooth="yes"/>
      <point x="413" y="565"/>
      <point x="436" y="538"/>
      <point x="436" y="501" type="curve" smooth="yes"/>
      <point x="436" y="449"/>
      <point x="391" y="410"/>
      <point x="342" y="371" type="curve" smooth="yes"/>
      <point x="289" y="326"/>
      <point x="231" y="280"/>
    </contour>
    <contour>
      <point x="222" y="-12" type="curve" smooth="yes"/>
      <point x="258" y="-12"/>
      <point x="294" y="17"/>
      <point x="294" y="63" type="curve" smooth="yes"/>
      <point x="294" y="103"/>
      <point x="267" y="124"/>
      <point x="233" y="124" type="curve" smooth="yes"/>
      <point x="196" y="124"/>
      <point x="163" y="96"/>
      <point x="163" y="48" type="curve" smooth="yes"/>
      <point x="163" y="8"/>
      <point x="188" y="-12"/>
    </contour>
  </outline>
</glyph>
<glyph name="at" format="2">
  <advance width="500"/>
  <unicode hex="0040"/>
  <outline>
    <contour>
      <point x="285" y="-133" type="curve" smooth="yes"/>
      <point x="311" y="-133"/>
      <point x="338" y="-129"/>
      <point x="368" y="-121" type="curve"/>
      <point x="375" y="-54" type="line"/>
      <point x="347" y="-62"/>
      <point x="322" y="-65"/>
      <point x="300" y="-65" type="curve" smooth="yes"/>
      <point x="192" y="-65"/>
      <point x="146" y="34"/>
      <point x="146" y="154" type="curve" smooth="yes"/>
      <point x="146" y="336"/>
      <point x="251" y="564"/>
      <point x="396" y="564" type="curve" smooth="yes"/>
      <point x="460" y="564"/>
      <point x="483" y="527"/>
      <point x="483" y="477" type="curve" smooth="yes"/>
      <point x="483" y="462"/>
      <point x="481" y="445"/>
      <point x="477" y="428" type="curve"/>
      <point x="466" y="429"/>
      <point x="456" y="430"/>
      <point x="447" y="430" type="curve" smooth="yes"/>
      <point x="288" y="430"/>
      <point x="219" y="316"/>
      <point x="219" y="194" type="curve" smooth="yes"/>
      <point x="219" y="85"/>
      <point x="288" y="43"/>
      <point x="367" y="43" type="curve" smooth="yes"/>
      <point x="399" y="43"/>
      <point x="435" y="50"/>
      <point x="467" y="63" type="curve"/>
      <point x="550" y="408" type="line" smooth="yes"/>
      <point x="556" y="433"/>
      <point x="559" y="457"/>
      <point x="559" y="480" type="curve" smooth="yes"/>
      <point x="559" y="571"/>
      <point x="509" y="634"/>
      <point x="402" y="634" type="curve" smooth="yes"/>
      <point x="198" y="634"/>
      <point x="69" y="371"/>
      <point x="69" y="154" type="curve" smooth="yes"/>
      <point x="69" y="-7"/>
      <point x="135" y="-133"/>
    </contour>
    <contour>
      <point x="368" y="108" type="curve" smooth="yes"/>
      <point x="322" y="108"/>
      <point x="296" y="139"/>
      <point x="296" y="195" type="curve" smooth="yes"/>
      <point x="296" y="285"/>
      <point x="340" y="364"/>
      <point x="426" y="364" type="curve" smooth="yes"/>
      <point x="437" y="364"/>
      <point x="448" y="362"/>
      <point x="460" y="358" type="curve"/>
      <point x="401" y="113" type="line"/>
      <point x="388" y="109"/>
      <point x="378" y="108"/>
    </contour>
  </outline>
</glyph>
<glyph name="A" format="2">
  <advance width="500"/>
  <unicode hex="0041"/>
  <outline>
    <contour>
      <point x="-13" y="0" type="curve"/>
      <point x="70" y="0" type="line"/>
      <point x="95" y="54"/>
      <point x="121" y="108"/>
      <point x="146" y="162" type="curve"/>
      <point x="384" y="162" type="line"/>
      <point x="384" y="108"/>
      <point x="383" y="54"/>
      <point x="383" y="0" type="curve"/>
      <point x="469" y="0" type="line"/>
      <point x="464" y="175"/>
      <point x="455" y="421"/>
      <point x="425" y="619" type="curve"/>
      <point x="327" y="619" type="line"/>
      <point x="201" y="421"/>
      <point x="76" y="176"/>
    </contour>
    <contour>
      <point x="181" y="230" type="line"/>
      <point x="242" y="347"/>
      <point x="307" y="464"/>
      <point x="357" y="547" type="curve"/>
      <point x="368" y="468"/>
      <point x="379" y="349"/>
      <point x="381" y="230" type="curve"/>
    </contour>
  </outline>
</glyph>
<glyph name="B" format="2">
  <advance width="500"/>
  <unicode hex="0042"/>
  <outline>
    <contour>
      <point x="191" y="-5" type="curve" smooth="yes"/>
      <point x="381" y="-5"/>
      <point x="487" y="74"/>
      <point x="487" y="212" type="curve" smooth="yes"/>
      <point x="487" y="267"/>
      <point x="446" y="313"/>
      <point x="400" y="326" type="curve"/>
      <point x="487" y="360"/>
      <point x="523" y="421"/>
      <point x="523" y="499" type="curve" smooth="yes"/>
      <point x="523" y="588"/>
      <point x="449" y="625"/>
      <point x="341" y="625" type="curve" smooth="yes"/>
      <point x="299" y="625"/>
      <point x="231" y="621"/>
      <point x="188" y="610" type="curve"/>
      <point x="45" y="10" type="line"/>
      <point x="82" y="-1"/>
      <point x="149" y="-5"/>
    </contour>
    <contour>
      <point x="213" y="64" type="curve" smooth="yes"/>
      <point x="171" y="64"/>
      <point x="141" y="67"/>
      <point x="139" y="68" type="curve"/>
      <point x="193" y="289" type="line"/>
      <point x="277" y="289" type="line" smooth="yes"/>
      <point x="350" y="289"/>
      <point x="404" y="270"/>
      <point x="404" y="208" type="curve" smooth="yes"/>
      <point x="404" y="92"/>
      <point x="302" y="64"/>
    </contour>
    <contour>
      <point x="209" y="357" type="line"/>
      <point x="256" y="552" type="line"/>
      <point x="268" y="554"/>
      <point x="296" y="555"/>
      <point x="330" y="555" type="curve" smooth="yes"/>
      <point x="390" y="555"/>
      <point x="441" y="535"/>
      <point x="441" y="481" type="curve" smooth="yes"/>
      <point x="441" y="384"/>
      <point x="355" y="357"/>
      <point x="274" y="357" type="curve" smooth="yes"/>
    </contour>
  </outline>
</glyph>
<glyph name="C" format="2">
  <advance width="500"/>
  <unicode hex="0043"/>
  <outline>
    <contour>
      <point x="279" y="-13" type="curve" smooth="yes"/>
      <point x="363" y="-13"/>
      <point x="429" y="13"/>
      <point x="446" y="26" type="curve"/>
      <point x="437" y="96" type="line"/>
      <point x="413" y="82"/>
      <point x="361" y="60"/>
      <point x="297" y="60" type="curve" smooth="yes"/>
      <point x="216" y="60"/>
      <point x="172" y="119"/>
      <point x="172" y="215" type="curve" smooth="yes"/>
      <point x="172" y="385"/>
      <point x="264" y="560"/>
      <point x="418" y="560" type="curve" smooth="yes"/>
      <point x="465" y="560"/>
      <point x="512" y="541"/>
      <point x="535" y="521" type="curve"/>
      <point x="574" y="587" type="line"/>
      <point x="552" y="605"/>
      <point x="504" y="633"/>
      <point x="424" y="633" type="curve" smooth="yes"/>
      <point x="216" y="633"/>
      <point x="89" y="413"/>
      <point x="89" y="202" type="curve" smooth="yes"/>
      <point x="89" y="71"/>
      <point x="163" y="-13"/>
    </contour>
  </outline>
</glyph>
<glyph name="D" format="2">
  <advance width="500"/>
  <unicode hex="0044"/>
  <outline>
    <contour>
      <point x="163" y="-5" type="curve" smooth="yes"/>
      <point x="413" y="-5"/>
      <point x="523" y="194"/>
      <point x="523" y="405" type="curve" smooth="yes"/>
      <point x="523" y="544"/>
      <point x="441" y="625"/>
      <point x="306" y="625" type="curve" smooth="yes"/>
      <point x="264" y="625"/>
      <point x="223" y="620"/>
      <point x="179" y="610" type="curve"/>
      <point x="36" y="9" type="line"/>
      <point x="74" y="-1"/>
      <point x="121" y="-5"/>
    </contour>
    <contour>
      <point x="180" y="66" type="curve" smooth="yes"/>
      <point x="164" y="66"/>
      <point x="142" y="68"/>
      <point x="132" y="71" type="curve"/>
      <point x="246" y="551" type="line"/>
      <point x="261" y="553"/>
      <point x="278" y="554"/>
      <point x="295" y="554" type="curve" smooth="yes"/>
      <point x="394" y="554"/>
      <point x="440" y="497"/>
      <point x="440" y="396" type="curve" smooth="yes"/>
      <point x="440" y="201"/>
      <point x="329" y="66"/>
    </contour>
  </outline>
</glyph>
<glyph name="E" format="2">
  <advance width="500"/>
  <unicode hex="0045"/>
  <outline>
    <contour>
      <point x="71" y="0" type="line"/>
      <point x="440" y="0" type="line"/>
      <point x="457" y="70" type="line"/>
      <point x="171" y="70" type="line"/>
      <point x="223" y="289" type="line"/>
      <point x="455" y="289" type="line"/>
      <point x="472" y="359" type="line"/>
      <point x="240" y="359" type="line"/>
      <point x="286" y="549" type="line"/>
      <point x="550" y="549" type="line"/>
      <point x="567" y="619" type="line"/>
      <point x="221" y="619" type="line"/>
    </contour>
  </outline>
</glyph>
<glyph name="F" format="2">
  <advance width="500"/>
  <unicode hex="0046"/>
  <outline>
    <contour>
      <point x="71" y="0" type="line"/>
      <point x="154" y="0" type="line"/>
      <point x="222" y="287" type="line"/>
      <point x="459" y="287" type="line"/>
      <point x="476" y="356" type="line"/>
      <point x="239" y="356" type="line"/>
      <point x="286" y="549" type="line"/>
      <point x="555" y="549" type="line"/>
      <point x="572" y="619" type="line"/>
      <point x="221" y="619" type="line"/>
    </contour>
  </outline>
</glyph>
<glyph name="G" format="2">
  <advance width="500"/>
  <unicode hex="0047"/>
  <outline>
    <contour>
      <point x="265" y="-13" type="curve" smooth="yes"/>
      <point x="338" y="-13"/>
      <point x="409" y="6"/>
      <point x="430" y="14" type="curve"/>
      <point x="499" y="304" type="line"/>
      <point x="417" y="304" type="line"/>
      <point x="361" y="70" type="line"/>
      <point x="346" y="65"/>
      <point x="321" y="59"/>
      <point x="288" y="59" type="curve" smooth="yes"/>
      <point x="207" y="59"/>
      <point x="163" y="119"/>
      <point x="163" y="215" type="curve" smooth="yes"/>
      <point x="163" y="385"/>
      <point x="255" y="561"/>
      <point x="409" y="561" type="curve" smooth="yes"/>
      <point x="458" y="561"/>
      <point x="496" y="541"/>
      <point x="519" y="521" type="curve"/>
      <point x="558" y="587" type="line"/>
      <point x="536" y="605"/>
      <point x="497" y="633"/>
      <point x="415" y="633" type="curve" smooth="yes"/>
      <point x="207" y="633"/>
      <point x="80" y="413"/>
      <point x="80" y="202" type="curve" smooth="yes"/>
      <point x="80" y="71"/>
      <point x="152" y="-13"/>
    </contour>
  </outline>
</glyph>
<glyph name="H" format="2">
  <advance width="500"/>
  <unicode hex="0048"/>
  <outline>
    <contour>
      <point x="36" y="0" type="line"/>
      <point x="117" y="0" type="line"/>
      <point x="187" y="288" type="line"/>
      <point x="415" y="288" type="line"/>
      <point x="346" y="0" type="line"/>
      <point x="428" y="0" type="line"/>
      <point x="577" y="619" type="line"/>
      <point x="495" y="619" type="line"/>
      <point x="432" y="358" type="line"/>
      <point x="204" y="358" type="line"/>
      <point x="266" y="619" type="line"/>
      <point x="184" y="619" type="line"/>
    </contour>
  </outline>
</glyph>
<glyph name="I" format="2">
  <advance width="500"/>
  <unicode hex="0049"/>
  <outline>
    <contour>
      <point x="71" y="0" type="line"/>
      <point x="392" y="0" type="line"/>
      <point x="409" y="70" type="line"/>
      <point x="289" y="70" type="line"/>
      <point x="405" y="549" type="line"/>
      <point x="524" y="549" type="line"/>
      <point x="541" y="619" type="line"/>
      <point x="220" y="619" type="line"/>
      <point x="203" y="549" type="line"/>
      <point x="322" y="549" type="line"/>
      <point x="207" y="70" type="line"/>
      <point x="88" y="70" type="line"/>
    </contour>
  </outline>
</glyph>
<glyph name="J" format="2">
  <advance width="500"/>
  <unicode hex="004A"/>
  <outline>
    <contour>
      <point x="225" y="-13" type="curve" smooth="yes"/>
      <point x="386" y="-13"/>
      <point x="426" y="84"/>
      <point x="454" y="199" type="curve" smooth="yes"/>
      <point x="554" y="619" type="line"/>
      <point x="261" y="619" type="line"/>
      <point x="245" y="549" type="line"/>
      <point x="455" y="549" type="line"/>
      <point x="373" y="207" type="line" smooth="yes"/>
      <point x="348" y="103"/>
      <point x="306" y="58"/>
      <point x="227" y="58" type="curve" smooth="yes"/>
      <point x="169" y="58"/>
      <point x="129" y="90"/>
      <point x="110" y="109" type="curve"/>
      <point x="67" y="44" type="line"/>
      <point x="86" y="23"/>
      <point x="143" y="-13"/>
    </contour>
  </outline>
</glyph>
<glyph name="K" format="2">
  <advance width="500"/>
  <unicode hex="004B"/>
  <outline>
    <contour>
      <point x="45" y="0" type="line"/>
      <point x="127" y="0" type="line"/>
      <point x="198" y="298" type="line"/>
      <point x="267" y="236"/>
      <point x="328" y="141"/>
      <point x="378" y="0" type="curve"/>
      <point x="467" y="0" type="line"/>
      <point x="417" y="140"/>
      <point x="341" y="258"/>
      <point x="284" y="322" type="curve"/>
      <point x="403" y="430"/>
      <point x="491" y="517"/>
      <point x="588" y="619" type="curve"/>
      <point x="486" y="619" type="line"/>
      <point x="411" y="535"/>
      <point x="321" y="447"/>
      <point x="210" y="348" type="curve"/>
      <point x="275" y="619" type="line"/>
      <point x="193" y="619" type="line"/>
    </contour>
  </outline>
</glyph>
<glyph name="L" format="2">
  <advance width="500"/>
  <unicode hex="004C"/>
  <outline>
    <contour>
      <point x="54" y="0" type="line"/>
      <point x="405" y="0" type="line"/>
      <point x="421" y="70" type="line"/>
      <point x="153" y="70" type="line"/>
      <point x="285" y="619" type="line"/>
      <point x="203" y="619" type="line"/>
    </contour>
  </outline>
</glyph>
<glyph name="M" format="2">
  <advance width="500"/>
  <unicode hex="004D"/>
  <outline>
    <contour>
      <point x="18" y="0" type="curve"/>
      <point x="96" y="0" type="line"/>
      <point x="133" y="141"/>
      <point x="187" y="335"/>
      <point x="232" y="517" type="curve"/>
      <point x="239" y="445"/>
      <point x="252" y="333"/>
      <point x="256" y="235" type="curve"/>
      <point x="328" y="235" type="line"/>
      <point x="486" y="517" type="line"/>
      <point x="453" y="348"/>
      <point x="404" y="144"/>
      <point x="373" y="0" type="curve"/>
      <point x="453" y="0" type="line"/>
      <point x="499" y="224"/>
      <point x="541" y="451"/>
      <point x="558" y="619" type="curve"/>
      <point x="481" y="619" type="line"/>
      <point x="311" y="311" type="line"/>
      <point x="303" y="416"/>
      <point x="297" y="512"/>
      <point x="288" y="619" type="curve"/>
      <point x="212" y="619" type="line"/>
      <point x="136" y="411"/>
      <point x="76" y="213"/>
    </contour>
  </outline>
</glyph>
<glyph name="N" format="2">
  <advance width="500"/>
  <unicode hex="004E"/>
  <outline>
    <contour>
      <point x="40" y="0" type="line"/>
      <point x="115" y="0" type="line"/>
      <point x="234" y="503" type="line"/>
      <point x="278" y="355"/>
      <point x="313" y="221"/>
      <point x="349" y="0" type="curve"/>
      <point x="430" y="0" type="line"/>
      <point x="579" y="619" type="line"/>
      <point x="504" y="619" type="line"/>
      <point x="389" y="134" type="line"/>
      <point x="355" y="334"/>
      <point x="331" y="420"/>
      <point x="270" y="619" type="curve"/>
      <point x="189" y="619" type="line"/>
    </contour>
  </outline>
</glyph>
<glyph name="O" format="2">
  <advance width="500"/>
  <unicode hex="004F"/>
  <outline>
    <contour>
      <point x="244" y="-13" type="curve" smooth="yes"/>
      <point x="461" y="-13"/>
      <point x="541" y="288"/>
      <point x="541" y="436" type="curve" smooth="yes"/>
      <point x="541" y="572"/>
      <point x="475" y="633"/>
      <point x="379" y="633" type="curve" smooth="yes"/>
      <point x="162" y="633"/>
      <point x="80" y="332"/>
      <point x="80" y="184" type="curve" smooth="yes"/>
      <point x="80" y="48"/>
      <point x="147" y="-13"/>
    </contour>
    <contour>
      <point x="254" y="58" type="curve" smooth="yes"/>
      <point x="197" y="58"/>
      <point x="163" y="96"/>
      <point x="163" y="190" type="curve" smooth="yes"/>
      <point x="163" y="343"/>
      <point x="238" y="562"/>
      <point x="369" y="562" type="curve" smooth="yes"/>
      <point x="425" y="562"/>
      <point x="458" y="523"/>
      <point x="458" y="430" type="curve" smooth="yes"/>
      <point x="458" y="277"/>
      <point x="385" y="58"/>
    </contour>
  </outline>
</glyph>
<glyph name="P" format="2">
  <advance width="500"/>
  <unicode hex="0050"/>
  <outline>
    <contour>
      <point x="54" y="0" type="line"/>
      <point x="135" y="0" type="line"/>
      <point x="191" y="231" type="line"/>
      <point x="263" y="231" type="line" smooth="yes"/>
      <point x="428" y="231"/>
      <point x="541" y="328"/>
      <point x="541" y="472" type="curve" smooth="yes"/>
      <point x="541" y="573"/>
      <point x="466" y="625"/>
      <point x="357" y="625" type="curve" smooth="yes"/>
      <point x="310" y="625"/>
      <point x="235" y="618"/>
      <point x="199" y="610" type="curve"/>
    </contour>
    <contour>
      <point x="207" y="301" type="line"/>
      <point x="268" y="551" type="line"/>
      <point x="283" y="554"/>
      <point x="314" y="555"/>
      <point x="344" y="555" type="curve" smooth="yes"/>
      <point x="400" y="555"/>
      <point x="459" y="532"/>
      <point x="459" y="464" type="curve" smooth="yes"/>
      <point x="459" y="362"/>
      <point x="392" y="301"/>
      <point x="274" y="301" type="curve" smooth="yes"/>
    </contour>
  </outline>
</glyph>
<glyph name="Q" format="2">
  <advance width="500"/>
  <unicode hex="0051"/>
  <outline>
    <contour>
      <point x="377" y="-165" type="curve"/>
      <point x="413" y="-99" type="line"/>
      <point x="331" y="-89"/>
      <point x="275" y="-61"/>
      <point x="275" y="-18" type="curve" smooth="yes"/>
      <point x="275" y="-11" type="line"/>
      <point x="469" y="16"/>
      <point x="541" y="295"/>
      <point x="541" y="436" type="curve" smooth="yes"/>
      <point x="541" y="572"/>
      <point x="475" y="633"/>
      <point x="379" y="633" type="curve" smooth="yes"/>
      <point x="162" y="633"/>
      <point x="80" y="332"/>
      <point x="80" y="184" type="curve" smooth="yes"/>
      <point x="80" y="75"/>
      <point x="123" y="14"/>
      <point x="189" y="-5" type="curve"/>
      <point x="189" y="-7"/>
      <point x="189" y="-8"/>
      <point x="189" y="-10" type="curve" smooth="yes"/>
      <point x="188" y="-121"/>
      <point x="280" y="-146"/>
    </contour>
    <contour>
      <point x="254" y="58" type="curve" smooth="yes"/>
      <point x="197" y="58"/>
      <point x="163" y="96"/>
      <point x="163" y="190" type="curve" smooth="yes"/>
      <point x="163" y="343"/>
      <point x="238" y="562"/>
      <point x="369" y="562" type="curve" smooth="yes"/>
      <point x="425" y="562"/>
      <point x="458" y="523"/>
      <point x="458" y="430" type="curve" smooth="yes"/>
      <point x="458" y="277"/>
      <point x="385" y="58"/>
    </contour>
  </outline>
</glyph>
<glyph name="R" format="2">
  <advance width="500"/>
  <unicode hex="0052"/>
  <outline>
    <contour>
      <point x="45" y="0" type="line"/>
      <point x="126" y="0" type="line"/>
      <point x="185" y="244" type="line"/>
      <point x="285" y="244" type="line"/>
      <point x="312" y="192"/>
      <point x="337" y="141"/>
      <point x="367" y="0" type="curve"/>
      <point x="451" y="0" type="line"/>
      <point x="421" y="132"/>
      <point x="400" y="188"/>
      <point x="364" y="259" type="curve"/>
      <point x="462" y="289"/>
      <point x="528" y="364"/>
      <point x="528" y="477" type="curve" smooth="yes"/>
      <point x="528" y="566"/>
      <point x="470" y="625"/>
      <point x="340" y="625" type="curve" smooth="yes"/>
      <point x="297" y="625"/>
      <point x="234" y="621"/>
      <point x="190" y="610" type="curve"/>
    </contour>
    <contour>
      <point x="201" y="312" type="line"/>
      <point x="258" y="551" type="line"/>
      <point x="271" y="553"/>
      <point x="304" y="555"/>
      <point x="334" y="555" type="curve" smooth="yes"/>
      <point x="400" y="555"/>
      <point x="446" y="528"/>
      <point x="446" y="464" type="curve" smooth="yes"/>
      <point x="446" y="343"/>
      <point x="358" y="312"/>
      <point x="251" y="312" type="curve" smooth="yes"/>
    </contour>
  </outline>
</glyph>
<glyph name="S" format="2">
  <advance width="500"/>
  <unicode hex="0053"/>
  <outline>
    <contour>
      <point x="228" y="-13" type="curve" smooth="yes"/>
      <point x="371" y="-13"/>
      <point x="468" y="53"/>
      <point x="468" y="184" type="curve" smooth="yes"/>
      <point x="468" y="278"/>
      <point x="414" y="311"/>
      <point x="344" y="347" type="curve" smooth="yes"/>
      <point x="288" y="377"/>
      <point x="250" y="396"/>
      <point x="250" y="457" type="curve" smooth="yes"/>
      <point x="250" y="530"/>
      <point x="306" y="561"/>
      <point x="380" y="561" type="curve" smooth="yes"/>
      <point x="440" y="561"/>
      <point x="486" y="546"/>
      <point x="506" y="529" type="curve"/>
      <point x="545" y="595" type="line"/>
      <point x="524" y="609"/>
      <point x="463" y="633"/>
      <point x="395" y="633" type="curve" smooth="yes"/>
      <point x="242" y="633"/>
      <point x="167" y="557"/>
      <point x="167" y="449" type="curve" smooth="yes"/>
      <point x="167" y="356"/>
      <point x="221" y="323"/>
      <point x="277" y="293" type="curve" smooth="yes"/>
      <point x="338" y="260"/>
      <point x="385" y="235"/>
      <point x="385" y="176" type="curve" smooth="yes"/>
      <point x="385" y="88"/>
      <point x="311" y="59"/>
      <point x="238" y="59" type="curve" smooth="yes"/>
      <point x="163" y="59"/>
      <point x="114" y="84"/>
      <point x="92" y="99" type="curve"/>
      <point x="54" y="31" type="line"/>
      <point x="76" y="15"/>
      <point x="137" y="-13"/>
    </contour>
  </outline>
</glyph>
<glyph name="T" format="2">
  <advance width="500"/>
  <unicode hex="0054"/>
  <outline>
    <contour>
      <point x="188" y="0" type="line"/>
      <point x="271" y="0" type="line"/>
      <point x="403" y="549" type="line"/>
      <point x="572" y="549" type="line"/>
      <point x="589" y="619" type="line"/>
      <point x="169" y="619" type="line"/>
      <point x="152" y="549" type="line"/>
      <point x="321" y="549" type="line"/>
    </contour>
  </outline>
</glyph>
<glyph name="U" format="2">
  <advance width="500"/>
  <unicode hex="0055"/>
  <outline>
    <contour>
      <point x="237" y="-13" type="curve" smooth="yes"/>
      <point x="390" y="-13"/>
      <point x="443" y="65"/>
      <point x="476" y="202" type="curve" smooth="yes"/>
      <point x="576" y="619" type="line"/>
      <point x="494" y="619" type="line"/>
      <point x="396" y="212" type="line" smooth="yes"/>
      <point x="365" y="86"/>
      <point x="322" y="58"/>
      <point x="249" y="58" type="curve" smooth="yes"/>
      <point x="184" y="58"/>
      <point x="163" y="105"/>
      <point x="163" y="160" type="curve" smooth="yes"/>
      <point x="163" y="181"/>
      <point x="166" y="202"/>
      <point x="171" y="223" type="curve" smooth="yes"/>
      <point x="266" y="619" type="line"/>
      <point x="184" y="619" type="line"/>
      <point x="89" y="222" type="line" smooth="yes"/>
      <point x="84" y="201"/>
      <point x="81" y="179"/>
      <point x="81" y="158" type="curve" smooth="yes"/>
      <point x="81" y="67"/>
      <point x="129" y="-13"/>
    </contour>
  </outline>
</glyph>
<glyph name="V" format="2">
  <advance width="500"/>
  <unicode hex="0056"/>
  <outline>
    <contour>
      <point x="176" y="0" type="curve"/>
      <point x="278" y="0" type="line"/>
      <point x="423" y="240"/>
      <point x="572" y="533"/>
      <point x="612" y="619" type="curve"/>
      <point x="524" y="619" type="line"/>
      <point x="432" y="418"/>
      <point x="338" y="244"/>
      <point x="244" y="72" type="curve"/>
      <point x="235" y="201"/>
      <point x="223" y="383"/>
      <point x="222" y="619" type="curve"/>
      <point x="136" y="619" type="line"/>
      <point x="136" y="533"/>
      <point x="150" y="240"/>
    </contour>
  </outline>
</glyph>
<glyph name="W" format="2">
  <advance width="500"/>
  <unicode hex="0057"/>
  <outline>
    <contour>
      <point x="59" y="0" type="curve"/>
      <point x="136" y="0" type="line"/>
      <point x="306" y="309" type="line"/>
      <point x="314" y="206"/>
      <point x="321" y="103"/>
      <point x="329" y="0" type="curve"/>
      <point x="405" y="0" type="line"/>
      <point x="484" y="216"/>
      <point x="541" y="411"/>
      <point x="600" y="619" type="curve"/>
      <point x="521" y="619" type="line"/>
      <point x="484" y="475"/>
      <point x="430" y="270"/>
      <point x="381" y="100" type="curve"/>
      <point x="374" y="172"/>
      <point x="363" y="294"/>
      <point x="357" y="384" type="curve"/>
      <point x="286" y="384" type="line"/>
      <point x="234" y="288"/>
      <point x="169" y="176"/>
      <point x="128" y="100" type="curve"/>
      <point x="163" y="266"/>
      <point x="212" y="481"/>
      <point x="244" y="619" type="curve"/>
      <point x="163" y="619" type="line"/>
      <point x="120" y="398"/>
      <point x="76" y="171"/>
    </contour>
  </outline>
</glyph>
<glyph name="X" format="2">
  <advance width="500"/>
  <unicode hex="0058"/>
  <outline>
    <contour>
      <point x="9" y="0" type="line"/>
      <point x="107" y="0" type="line"/>
      <point x="315" y="257" type="line"/>
      <point x="346" y="172"/>
      <point x="371" y="85"/>
      <point x="388" y="0" type="curve"/>
      <point x="474" y="0" type="line"/>
      <point x="454" y="99"/>
      <point x="412" y="229"/>
      <point x="375" y="325" type="curve"/>
      <point x="453" y="416"/>
      <point x="540" y="521"/>
      <point x="608" y="619" type="curve"/>
      <point x="514" y="619" type="line"/>
      <point x="464" y="545"/>
      <point x="405" y="468"/>
      <point x="344" y="394" type="curve"/>
      <point x="266" y="619" type="line"/>
      <point x="176" y="619" type="line"/>
      <point x="281" y="330" type="line"/>
    </contour>
  </outline>
</glyph>
<glyph name="Y" format="2">
  <advance width="500"/>
  <unicode hex="0059"/>
  <outline>
    <contour>
      <point x="196" y="0" type="line"/>
      <point x="278" y="0" type="line"/>
      <point x="334" y="232" type="line"/>
      <point x="442" y="359"/>
      <point x="542" y="489"/>
      <point x="622" y="619" type="curve"/>
      <point x="533" y="619" type="line"/>
      <point x="473" y="522"/>
      <point x="386" y="397"/>
      <point x="305" y="293" type="curve"/>
      <point x="274" y="388"/>
      <point x="241" y="512"/>
      <point x="229" y="619" type="curve"/>
      <point x="147" y="619" type="line"/>
      <point x="165" y="489"/>
      <point x="202" y="363"/>
      <point x="251" y="230" type="curve"/>
    </contour>
  </outline>
</glyph>
<glyph name="Z" format="2">
  <advance width="500"/>
  <unicode hex="005A"/>
  <outline>
    <contour>
      <point x="36" y="0" type="line"/>
      <point x="434" y="0" type="line"/>
      <point x="450" y="70" type="line"/>
      <point x="146" y="70" type="line"/>
      <point x="249" y="213"/>
      <point x="445" y="432"/>
      <point x="556" y="550" type="curve"/>
      <point x="572" y="619" type="line"/>
      <point x="196" y="619" type="line"/>
      <point x="179" y="549" type="line"/>
      <point x="460" y="549" type="line"/>
      <point x="331" y="413"/>
      <point x="177" y="230"/>
      <point x="52" y="68" type="curve"/>
    </contour>
  </outline>
</glyph>
<glyph name="bracketleft" format="2">
  <advance width="500"/>
  <unicode hex="005B"/>
  <outline>
    <contour>
      <point x="98" y="-165" type="line"/>
      <point x="338" y="-165" type="line"/>
      <point x="355" y="-100" type="line"/>
      <point x="192" y="-100" type="line"/>
      <point x="369" y="634" type="line"/>
      <point x="531" y="634" type="line"/>
      <point x="547" y="699" type="line"/>
      <point x="306" y="699" type="line"/>
    </contour>
  </outline>
</glyph>
<glyph name="backslash" format="2">
  <advance width="500"/>
  <unicode hex="005C"/>
  <outline>
    <contour>
      <point x="287" y="-165" type="line"/>
      <point x="371" y="-165" type="line"/>
      <point x="302" y="699" type="line"/>
      <point x="219" y="699" type="line"/>
    </contour>
  </outline>
</glyph>
<glyph name="bracketright" format="2">
  <advance width="500"/>
  <unicode hex="005D"/>
  <outline>
    <contour>
      <point x="25" y="-165" type="line"/>
      <point x="265" y="-165" type="line"/>
      <point x="473" y="699" type="line"/>
      <point x="233" y="699" type="line"/>
      <point x="217" y="634" type="line"/>
      <point x="380" y="634" type="line"/>
      <point x="203" y="-100" type="line"/>
      <point x="40" y="-100" type="line"/>
    </contour>
  </outline>
</glyph>
<glyph name="asciicircum" format="2">
  <advance width="500"/>
  <unicode hex="005E"/>
  <outline>
    <contour>
      <point x="448" y="283" type="line"/>
      <point x="516" y="313" type="line"/>
      <point x="419" y="619" type="line"/>
      <point x="348" y="619" type="line"/>
      <point x="109" y="321" type="line"/>
      <point x="170" y="284" type="line"/>
      <point x="369" y="533" type="line"/>
    </contour>
  </outline>
</glyph>
<glyph name="underscore" format="2">
  <advance width="500"/>
  <unicode hex="005F"/>
  <outline>
    <contour>
      <point x="-27" y="-165" type="line"/>
      <point x="420" y="-165" type="line"/>
      <point x="437" y="-95" type="line"/>
      <point x="-10" y="-95" type="line"/>
    </contour>
  </outline>
</glyph>
<glyph name="grave" format="2">
  <advance width="500"/>
  <unicode hex="0060"/>
  <outline>
    <contour>
      <point x="391" y="509" type="line"/>
      <point x="435" y="548" type="line"/>
      <point x="321" y="691" type="line"/>
      <point x="261" y="640" type="line"/>
    </contour>
  </outline>
</glyph>
<glyph name="a" format="2">
  <advance width="500"/>
  <unicode hex="0061"/>
  <outline>
    <contour>
      <point x="222" y="-11" type="curve" smooth="yes"/>
      <point x="286" y="-11"/>
      <point x="335" y="18"/>
      <point x="361" y="42" type="curve"/>
      <point x="364" y="24"/>
      <point x="370" y="8"/>
      <point x="376" y="-5" type="curve"/>
      <point x="449" y="5" type="line"/>
      <point x="438" y="38"/>
      <point x="433" y="64"/>
      <point x="433" y="92" type="curve" smooth="yes"/>
      <point x="433" y="120"/>
      <point x="438" y="143"/>
      <point x="445" y="171" type="curve" smooth="yes"/>
      <point x="513" y="451" type="line"/>
      <point x="481" y="468"/>
      <point x="427" y="474"/>
      <point x="395" y="474" type="curve" smooth="yes"/>
      <point x="178" y="474"/>
      <point x="71" y="314"/>
      <point x="71" y="155" type="curve" smooth="yes"/>
      <point x="71" y="59"/>
      <point x="118" y="-11"/>
    </contour>
    <contour>
      <point x="239" y="57" type="curve" smooth="yes"/>
      <point x="173" y="57"/>
      <point x="154" y="104"/>
      <point x="154" y="164" type="curve" smooth="yes"/>
      <point x="154" y="290"/>
      <point x="244" y="405"/>
      <point x="380" y="405" type="curve" smooth="yes"/>
      <point x="390" y="405"/>
      <point x="414" y="402"/>
      <point x="421" y="400" type="curve"/>
      <point x="366" y="181" type="line" smooth="yes"/>
      <point x="361" y="159"/>
      <point x="357" y="131"/>
      <point x="356" y="111" type="curve"/>
      <point x="330" y="82"/>
      <point x="289" y="57"/>
    </contour>
  </outline>
</glyph>
<glyph name="b" format="2">
  <advance width="500"/>
  <unicode hex="0062"/>
  <outline>
    <contour>
      <point x="184" y="-10" type="curve" smooth="yes"/>
      <point x="401" y="-10"/>
      <point x="505" y="148"/>
      <point x="505" y="312" type="curve" smooth="yes"/>
      <point x="505" y="405"/>
      <point x="456" y="475"/>
      <point x="353" y="475" type="curve" smooth="yes"/>
      <point x="313" y="475"/>
      <point x="276" y="463"/>
      <point x="248" y="446" type="curve"/>
      <point x="307" y="693" type="line"/>
      <point x="221" y="679" type="line"/>
      <point x="63" y="18" type="line"/>
      <point x="95" y="-2"/>
      <point x="148" y="-10"/>
    </contour>
    <contour>
      <point x="199" y="62" type="curve" smooth="yes"/>
      <point x="184" y="62"/>
      <point x="167" y="64"/>
      <point x="155" y="67" type="curve"/>
      <point x="228" y="370" type="line"/>
      <point x="259" y="392"/>
      <point x="296" y="405"/>
      <point x="332" y="405" type="curve" smooth="yes"/>
      <point x="404" y="405"/>
      <point x="423" y="356"/>
      <point x="423" y="303" type="curve" smooth="yes"/>
      <point x="423" y="178"/>
      <point x="335" y="62"/>
    </contour>
  </outline>
</glyph>
<glyph name="c" format="2">
  <advance width="500"/>
  <unicode hex="0063"/>
  <outline>
    <contour>
      <point x="280" y="-12" type="curve" smooth="yes"/>
      <point x="355" y="-12"/>
      <point x="412" y="7"/>
      <point x="436" y="21" type="curve"/>
      <point x="429" y="91" type="line"/>
      <point x="410" y="79"/>
      <point x="354" y="60"/>
      <point x="295" y="60" type="curve" smooth="yes"/>
      <point x="182" y="60"/>
      <point x="154" y="113"/>
      <point x="154" y="174" type="curve" smooth="yes"/>
      <point x="154" y="293"/>
      <point x="237" y="406"/>
      <point x="374" y="406" type="curve" smooth="yes"/>
      <point x="430" y="406"/>
      <point x="458" y="395"/>
      <point x="480" y="384" type="curve"/>
      <point x="511" y="454" type="line"/>
      <point x="475" y="469"/>
      <point x="435" y="476"/>
      <point x="381" y="476" type="curve" smooth="yes"/>
      <point x="182" y="476"/>
      <point x="71" y="329"/>
      <point x="71" y="166" type="curve" smooth="yes"/>
      <point x="71" y="62"/>
      <point x="141" y="-12"/>
    </contour>
  </outline>
</glyph>
<glyph name="d" format="2">
  <advance width="500"/>
  <unicode hex="0064"/>
  <outline>
    <contour>
      <point x="232" y="-11" type="curve" smooth="yes"/>
      <point x="300" y="-11"/>
      <point x="344" y="18"/>
      <point x="370" y="42" type="curve"/>
      <point x="373" y="23"/>
      <point x="379" y="7"/>
      <point x="385" y="-5" type="curve"/>
      <point x="458" y="5" type="line"/>
      <point x="447" y="38"/>
      <point x="442" y="64"/>
      <point x="442" y="92" type="curve" smooth="yes"/>
      <point x="442" y="120"/>
      <point x="447" y="143"/>
      <point x="454" y="171" type="curve" smooth="yes"/>
      <point x="580" y="693" type="line"/>
      <point x="495" y="679" type="line"/>
      <point x="445" y="471" type="line"/>
      <point x="430" y="473"/>
      <point x="413" y="474"/>
      <point x="399" y="474" type="curve" smooth="yes"/>
      <point x="188" y="474"/>
      <point x="80" y="315"/>
      <point x="80" y="155" type="curve" smooth="yes"/>
      <point x="80" y="57"/>
      <point x="128" y="-11"/>
    </contour>
    <contour>
      <point x="248" y="57" type="curve" smooth="yes"/>
      <point x="182" y="57"/>
      <point x="163" y="104"/>
      <point x="163" y="164" type="curve" smooth="yes"/>
      <point x="163" y="290"/>
      <point x="253" y="405"/>
      <point x="388" y="405" type="curve" smooth="yes"/>
      <point x="399" y="405"/>
      <point x="423" y="402"/>
      <point x="430" y="400" type="curve"/>
      <point x="375" y="181" type="line" smooth="yes"/>
      <point x="370" y="159"/>
      <point x="366" y="131"/>
      <point x="365" y="111" type="curve"/>
      <point x="339" y="82"/>
      <point x="298" y="57"/>
    </contour>
  </outline>
</glyph>
<glyph name="e" format="2">
  <advance width="500"/>
  <unicode hex="0065"/>
  <outline>
    <contour>
      <point x="263" y="-12" type="curve" smooth="yes"/>
      <point x="353" y="-12"/>
      <point x="411" y="8"/>
      <point x="436" y="21" type="curve"/>
      <point x="429" y="91" type="line"/>
      <point x="413" y="80"/>
      <point x="345" y="60"/>
      <point x="288" y="60" type="curve" smooth="yes"/>
      <point x="203" y="60"/>
      <point x="144" y="96"/>
      <point x="152" y="180" type="curve"/>
      <point x="313" y="186"/>
      <point x="503" y="192"/>
      <point x="503" y="360" type="curve" smooth="yes"/>
      <point x="503" y="421"/>
      <point x="459" y="475"/>
      <point x="355" y="475" type="curve" smooth="yes"/>
      <point x="179" y="475"/>
      <point x="71" y="330"/>
      <point x="71" y="162" type="curve" smooth="yes"/>
      <point x="71" y="71"/>
      <point x="133" y="-12"/>
    </contour>
    <contour>
      <point x="162" y="244" type="curve"/>
      <point x="185" y="329"/>
      <point x="254" y="406"/>
      <point x="345" y="406" type="curve" smooth="yes"/>
      <point x="405" y="406"/>
      <point x="421" y="375"/>
      <point x="421" y="354" type="curve" smooth="yes"/>
      <point x="421" y="265"/>
      <point x="322" y="246"/>
    </contour>
  </outline>
</glyph>
<glyph name="g" format="2">
  <advance width="500"/>
  <unicode hex="0067"/>
  <outline>
    <contour>
      <point x="161" y="-168" type="curve" smooth="yes"/>
      <point x="347" y="-168"/>
      <point x="396" y="-88"/>
      <point x="428" y="40" type="curve" smooth="yes"/>
      <point x="531" y="451" type="line"/>
      <point x="500" y="469"/>
      <point x="438" y="474"/>
      <point x="405" y="474" type="curve" smooth="yes"/>
      <point x="191" y="474"/>
      <point x="86" y="316"/>
      <point x="86" y="156" type="curve" smooth="yes"/>
      <point x="86" y="70"/>
      <point x="139" y="19"/>
      <point x="236" y="19" type="curve" smooth="yes"/>
      <point x="279" y="19"/>
      <point x="327" y="35"/>
      <point x="351" y="48" type="curve"/>
      <point x="347" y="31" type="line" smooth="yes"/>
      <point x="330" y="-54"/>
      <point x="277" y="-98"/>
      <point x="179" y="-98" type="curve" smooth="yes"/>
      <point x="129" y="-98"/>
      <point x="80" y="-83"/>
      <point x="53" y="-63" type="curve"/>
      <point x="21" y="-132" type="line"/>
      <point x="56" y="-153"/>
      <point x="110" y="-168"/>
    </contour>
    <contour>
      <point x="254" y="87" type="curve" smooth="yes"/>
      <point x="196" y="87"/>
      <point x="168" y="109"/>
      <point x="168" y="172" type="curve" smooth="yes"/>
      <point x="168" y="288"/>
      <point x="259" y="405"/>
      <point x="388" y="405" type="curve" smooth="yes"/>
      <point x="402" y="405"/>
      <point x="423" y="403"/>
      <point x="435" y="400" type="curve"/>
      <point x="370" y="126" type="line"/>
      <point x="348" y="111"/>
      <point x="301" y="87"/>
    </contour>
  </outline>
</glyph>
<glyph name="h" format="2">
  <advance width="500"/>
  <unicode hex="0068"/>
  <outline>
    <contour>
      <point x="45" y="0" type="line"/>
      <point x="126" y="0" type="line"/>
      <point x="221" y="388" type="line"/>
      <point x="246" y="398"/>
      <point x="272" y="402"/>
      <point x="301" y="402" type="curve" smooth="yes"/>
      <point x="372" y="402"/>
      <point x="394" y="367"/>
      <point x="394" y="320" type="curve" smooth="yes"/>
      <point x="394" y="288"/>
      <point x="383" y="251"/>
      <point x="375" y="218" type="curve" smooth="yes"/>
      <point x="323" y="0" type="line"/>
      <point x="405" y="0" type="line"/>
      <point x="462" y="236" type="line" smooth="yes"/>
      <point x="470" y="268"/>
      <point x="476" y="299"/>
      <point x="476" y="327" type="curve" smooth="yes"/>
      <point x="476" y="413"/>
      <point x="433" y="474"/>
      <point x="325" y="474" type="curve" smooth="yes"/>
      <point x="294" y="474"/>
      <point x="263" y="467"/>
      <point x="236" y="457" type="curve"/>
      <point x="293" y="693" type="line"/>
      <point x="207" y="679" type="line"/>
    </contour>
  </outline>
</glyph>
<glyph name="i" format="2">
  <advance width="500"/>
  <unicode hex="0069"/>
  <outline>
    <contour>
      <point x="343" y="-3" type="curve" smooth="yes"/>
      <point x="388" y="-3"/>
      <point x="412" y="4"/>
      <point x="421" y="6" type="curve"/>
      <point x="426" y="76" type="line"/>
      <point x="408" y="71"/>
      <point x="386" y="67"/>
      <point x="363" y="67" type="curve" smooth="yes"/>
      <point x="309" y="67"/>
      <point x="293" y="95"/>
      <point x="293" y="132" type="curve" smooth="yes"/>
      <point x="293" y="154"/>
      <point x="298" y="179"/>
      <point x="305" y="205" type="curve" smooth="yes"/>
      <point x="366" y="464" type="line"/>
      <point x="150" y="464" type="line"/>
      <point x="134" y="395" type="line"/>
      <point x="268" y="395" type="line"/>
      <point x="223" y="212" type="line" smooth="yes"/>
      <point x="216" y="181"/>
      <point x="211" y="152"/>
      <point x="211" y="124" type="curve" smooth="yes"/>
      <point x="211" y="53"/>
      <point x="244" y="-3"/>
    </contour>
    <contour>
      <point x="330" y="536" type="curve" smooth="yes"/>
      <point x="364" y="536"/>
      <point x="402" y="565"/>
      <point x="402" y="609" type="curve" smooth="yes"/>
      <point x="402" y="648"/>
      <point x="375" y="670"/>
      <point x="341" y="670" type="curve" smooth="yes"/>
      <point x="305" y="670"/>
      <point x="270" y="641"/>
      <point x="270" y="595" type="curve" smooth="yes"/>
      <point x="270" y="557"/>
      <point x="295" y="536"/>
    </contour>
  </outline>
</glyph>
<glyph name="k" format="2">
  <advance width="500"/>
  <unicode hex="006B"/>
  <outline>
    <contour>
      <point x="63" y="0" type="line"/>
      <point x="145" y="0" type="line"/>
      <point x="201" y="232" type="line"/>
      <point x="265" y="181"/>
      <point x="325" y="96"/>
      <point x="367" y="0" type="curve"/>
      <point x="456" y="0" type="line"/>
      <point x="423" y="91"/>
      <point x="349" y="198"/>
      <point x="288" y="252" type="curve"/>
      <point x="357" y="302"/>
      <point x="479" y="396"/>
      <point x="545" y="464" type="curve"/>
      <point x="447" y="464" type="line"/>
      <point x="380" y="403"/>
      <point x="291" y="335"/>
      <point x="211" y="277" type="curve"/>
      <point x="312" y="693" type="line"/>
      <point x="226" y="679" type="line"/>
    </contour>
  </outline>
</glyph>
<glyph name="m" format="2">
  <advance width="500"/>
  <unicode hex="006D"/>
  <outline>
    <contour>
      <point x="31" y="0" type="line"/>
      <point x="105" y="0" type="line"/>
      <point x="201" y="397" type="line"/>
      <point x="217" y="403"/>
      <point x="231" y="406"/>
      <point x="243" y="406" type="curve" smooth="yes"/>
      <point x="270" y="406"/>
      <point x="281" y="392"/>
      <point x="281" y="368" type="curve" smooth="yes"/>
      <point x="281" y="357"/>
      <point x="279" y="345"/>
      <point x="275" y="331" type="curve" smooth="yes"/>
      <point x="238" y="179" type="line"/>
      <point x="313" y="179" type="line"/>
      <point x="349" y="330" type="line" smooth="yes"/>
      <point x="354" y="349"/>
      <point x="355" y="366"/>
      <point x="355" y="381" type="curve"/>
      <point x="373" y="398"/>
      <point x="391" y="406"/>
      <point x="406" y="406" type="curve" smooth="yes"/>
      <point x="429" y="406"/>
      <point x="444" y="390"/>
      <point x="444" y="361" type="curve" smooth="yes"/>
      <point x="444" y="353"/>
      <point x="443" y="343"/>
      <point x="440" y="332" type="curve" smooth="yes"/>
      <point x="361" y="0" type="line"/>
      <point x="436" y="0" type="line"/>
      <point x="514" y="330" type="line" smooth="yes"/>
      <point x="519" y="349"/>
      <point x="521" y="366"/>
      <point x="521" y="381" type="curve" smooth="yes"/>
      <point x="521" y="443"/>
      <point x="483" y="474"/>
      <point x="434" y="474" type="curve" smooth="yes"/>
      <point x="404" y="474"/>
      <point x="371" y="463"/>
      <point x="338" y="440" type="curve"/>
      <point x="321" y="463"/>
      <point x="291" y="474"/>
      <point x="254" y="474" type="curve" smooth="yes"/>
      <point x="220" y="474"/>
      <point x="180" y="466"/>
      <point x="139" y="451" type="curve"/>
    </contour>
  </outline>
</glyph>
<glyph name="n" format="2">
  <advance width="500"/>
  <unicode hex="006E"/>
  <outline>
    <contour>
      <point x="63" y="0" type="line"/>
      <point x="145" y="0" type="line"/>
      <point x="239" y="392" type="line"/>
      <point x="258" y="398"/>
      <point x="289" y="402"/>
      <point x="319" y="402" type="curve" smooth="yes"/>
      <point x="390" y="402"/>
      <point x="412" y="367"/>
      <point x="412" y="320" type="curve" smooth="yes"/>
      <point x="412" y="288"/>
      <point x="402" y="253"/>
      <point x="394" y="220" type="curve" smooth="yes"/>
      <point x="341" y="0" type="line"/>
      <point x="423" y="0" type="line"/>
      <point x="480" y="238" type="line" smooth="yes"/>
      <point x="488" y="269"/>
      <point x="494" y="299"/>
      <point x="494" y="327" type="curve" smooth="yes"/>
      <point x="494" y="413"/>
      <point x="451" y="474"/>
      <point x="343" y="474" type="curve" smooth="yes"/>
      <point x="293" y="474"/>
      <point x="224" y="463"/>
      <point x="170" y="447" type="curve"/>
    </contour>
  </outline>
</glyph>
<glyph name="o" format="2">
  <advance width="500"/>
  <unicode hex="006F"/>
  <outline>
    <contour>
      <point x="237" y="-11" type="curve" smooth="yes"/>
      <point x="430" y="-11"/>
      <point x="505" y="175"/>
      <point x="505" y="313" type="curve" smooth="yes"/>
      <point x="505" y="414"/>
      <point x="446" y="475"/>
      <point x="348" y="475" type="curve" smooth="yes"/>
      <point x="155" y="475"/>
      <point x="80" y="289"/>
      <point x="80" y="151" type="curve" smooth="yes"/>
      <point x="80" y="50"/>
      <point x="139" y="-11"/>
    </contour>
    <contour>
      <point x="251" y="63" type="curve" smooth="yes"/>
      <point x="188" y="63"/>
      <point x="163" y="98"/>
      <point x="163" y="158" type="curve" smooth="yes"/>
      <point x="163" y="268"/>
      <point x="227" y="402"/>
      <point x="334" y="402" type="curve" smooth="yes"/>
      <point x="397" y="402"/>
      <point x="422" y="366"/>
      <point x="422" y="306" type="curve" smooth="yes"/>
      <point x="422" y="196"/>
      <point x="358" y="63"/>
    </contour>
  </outline>
</glyph>
<glyph name="p" format="2">
  <advance width="500"/>
  <unicode hex="0070"/>
  <outline>
    <contour>
      <point x="18" y="-165" type="line"/>
      <point x="100" y="-165" type="line"/>
      <point x="138" y="-4" type="line"/>
      <point x="150" y="-7"/>
      <point x="177" y="-11"/>
      <point x="190" y="-11" type="curve" smooth="yes"/>
      <point x="407" y="-11"/>
      <point x="505" y="147"/>
      <point x="505" y="312" type="curve" smooth="yes"/>
      <point x="505" y="406"/>
      <point x="453" y="475"/>
      <point x="337" y="475" type="curve" smooth="yes"/>
      <point x="287" y="475"/>
      <point x="213" y="465"/>
      <point x="164" y="445" type="curve"/>
    </contour>
    <contour>
      <point x="204" y="63" type="curve" smooth="yes"/>
      <point x="191" y="63"/>
      <point x="168" y="65"/>
      <point x="156" y="68" type="curve"/>
      <point x="235" y="394" type="line"/>
      <point x="252" y="398"/>
      <point x="287" y="405"/>
      <point x="316" y="405" type="curve" smooth="yes"/>
      <point x="402" y="405"/>
      <point x="423" y="355"/>
      <point x="423" y="302" type="curve" smooth="yes"/>
      <point x="423" y="176"/>
      <point x="339" y="63"/>
    </contour>
  </outline>
</glyph>
<glyph name="q" format="2">
  <advance width="500"/>
  <unicode hex="0071"/>
  <outline>
    <contour>
      <point x="291" y="-165" type="line"/>
      <point x="373" y="-165" type="line"/>
      <point x="526" y="451" type="line"/>
      <point x="497" y="466"/>
      <point x="437" y="474"/>
      <point x="404" y="474" type="curve" smooth="yes"/>
      <point x="187" y="474"/>
      <point x="80" y="314"/>
      <point x="80" y="155" type="curve" smooth="yes"/>
      <point x="80" y="57"/>
      <point x="128" y="-11"/>
      <point x="232" y="-11" type="curve" smooth="yes"/>
      <point x="271" y="-11"/>
      <point x="306" y="1"/>
      <point x="334" y="15" type="curve"/>
    </contour>
    <contour>
      <point x="254" y="57" type="curve" smooth="yes"/>
      <point x="177" y="57"/>
      <point x="163" y="111"/>
      <point x="163" y="164" type="curve" smooth="yes"/>
      <point x="163" y="290"/>
      <point x="251" y="405"/>
      <point x="387" y="405" type="curve" smooth="yes"/>
      <point x="398" y="405"/>
      <point x="413" y="403"/>
      <point x="429" y="400" type="curve"/>
      <point x="355" y="96" type="line"/>
      <point x="326" y="74"/>
      <point x="288" y="57"/>
    </contour>
  </outline>
</glyph>
<glyph name="r" format="2">
  <advance width="500"/>
  <unicode hex="0072"/>
  <outline>
    <contour>
      <point x="89" y="0" type="line"/>
      <point x="171" y="0" type="line"/>
      <point x="263" y="386" type="line"/>
      <point x="306" y="397"/>
      <point x="350" y="402"/>
      <point x="391" y="402" type="curve" smooth="yes"/>
      <point x="430" y="402"/>
      <point x="450" y="400"/>
      <point x="491" y="389" type="curve"/>
      <point x="522" y="462" type="line"/>
      <point x="475" y="472"/>
      <point x="450" y="474"/>
      <point x="408" y="474" type="curve" smooth="yes"/>
      <point x="338" y="474"/>
      <point x="267" y="463"/>
      <point x="195" y="440" type="curve"/>
    </contour>
  </outline>
</glyph>
<glyph name="s" format="2">
  <advance width="500"/>
  <unicode hex="0073"/>
  <outline>
    <contour>
      <point x="238" y="-12" type="curve" smooth="yes"/>
      <point x="359" y="-12"/>
      <point x="442" y="38"/>
      <point x="442" y="139" type="curve" smooth="yes"/>
      <point x="442" y="208"/>
      <point x="396" y="238"/>
      <point x="334" y="263" type="curve" smooth="yes"/>
      <point x="285" y="284"/>
      <point x="248" y="304"/>
      <point x="248" y="336" type="curve" smooth="yes"/>
      <point x="248" y="389"/>
      <point x="301" y="405"/>
      <point x="355" y="405" type="curve" smooth="yes"/>
      <point x="405" y="405"/>
      <point x="449" y="392"/>
      <point x="469" y="380" type="curve"/>
      <point x="500" y="450" type="line"/>
      <point x="477" y="462"/>
      <point x="429" y="475"/>
      <point x="367" y="475" type="curve" smooth="yes"/>
      <point x="241" y="475"/>
      <point x="168" y="417"/>
      <point x="168" y="328" type="curve" smooth="yes"/>
      <point x="168" y="258"/>
      <point x="220" y="235"/>
      <point x="273" y="209" type="curve" smooth="yes"/>
      <point x="328" y="183"/>
      <point x="362" y="166"/>
      <point x="362" y="129" type="curve" smooth="yes"/>
      <point x="362" y="75"/>
      <point x="301" y="58"/>
      <point x="242" y="58" type="curve" smooth="yes"/>
      <point x="181" y="58"/>
      <point x="133" y="81"/>
      <point x="112" y="95" type="curve"/>
      <point x="79" y="25" type="line"/>
      <point x="104" y="11"/>
      <point x="162" y="-12"/>
    </contour>
  </outline>
</glyph>
<glyph name="t" format="2">
  <advance width="500"/>
  <unicode hex="0074"/>
  <outline>
    <contour>
      <point x="312" y="-11" type="curve" smooth="yes"/>
      <point x="359" y="-11"/>
      <point x="401" y="0"/>
      <point x="439" y="13" type="curve"/>
      <point x="441" y="84" type="line"/>
      <point x="406" y="71"/>
      <point x="366" y="61"/>
      <point x="325" y="61" type="curve" smooth="yes"/>
      <point x="282" y="61"/>
      <point x="258" y="74"/>
      <point x="258" y="124" type="curve" smooth="yes"/>
      <point x="258" y="146"/>
      <point x="264" y="171"/>
      <point x="271" y="196" type="curve" smooth="yes"/>
      <point x="318" y="395" type="line"/>
      <point x="497" y="395" type="line"/>
      <point x="513" y="464" type="line"/>
      <point x="335" y="464" type="line"/>
      <point x="370" y="608" type="line"/>
      <point x="284" y="594" type="line"/>
      <point x="253" y="464" type="line"/>
      <point x="154" y="464" type="line"/>
      <point x="138" y="395" type="line"/>
      <point x="236" y="395" type="line"/>
      <point x="189" y="204" type="line" smooth="yes"/>
      <point x="181" y="171"/>
      <point x="176" y="138"/>
      <point x="176" y="109" type="curve" smooth="yes"/>
      <point x="176" y="17"/>
      <point x="236" y="-11"/>
    </contour>
  </outline>
</glyph>
<glyph name="v" format="2">
  <advance width="500"/>
  <unicode hex="0076"/>
  <outline>
    <contour>
      <point x="193" y="0" type="curve"/>
      <point x="269" y="0" type="line"/>
      <point x="367" y="118"/>
      <point x="481" y="307"/>
      <point x="534" y="464" type="curve"/>
      <point x="450" y="464" type="line"/>
      <point x="414" y="349"/>
      <point x="325" y="183"/>
      <point x="254" y="93" type="curve"/>
      <point x="235" y="192"/>
      <point x="221" y="347"/>
      <point x="218" y="464" type="curve"/>
      <point x="134" y="464" type="line"/>
      <point x="138" y="293"/>
      <point x="164" y="122"/>
    </contour>
  </outline>
</glyph>
<glyph name="w" format="2">
  <advance width="500"/>
  <unicode hex="0077"/>
  <outline>
    <contour>
      <point x="80" y="0" type="curve"/>
      <point x="148" y="0" type="line"/>
      <point x="204" y="83"/>
      <point x="235" y="134"/>
      <point x="298" y="242" type="curve"/>
      <point x="306" y="142"/>
      <point x="314" y="81"/>
      <point x="326" y="0" type="curve"/>
      <point x="394" y="0" type="line"/>
      <point x="466" y="153"/>
      <point x="534" y="330"/>
      <point x="578" y="464" type="curve"/>
      <point x="501" y="464" type="line"/>
      <point x="468" y="356"/>
      <point x="427" y="235"/>
      <point x="372" y="107" type="curve"/>
      <point x="363" y="218"/>
      <point x="355" y="255"/>
      <point x="352" y="351" type="curve"/>
      <point x="294" y="351" type="line"/>
      <point x="244" y="259"/>
      <point x="218" y="213"/>
      <point x="151" y="101" type="curve"/>
      <point x="165" y="270"/>
      <point x="176" y="359"/>
      <point x="194" y="464" type="curve"/>
      <point x="116" y="464" type="line"/>
      <point x="97" y="332"/>
      <point x="82" y="163"/>
    </contour>
  </outline>
</glyph>
<glyph name="x" format="2">
  <advance width="500"/>
  <unicode hex="0078"/>
  <outline>
    <contour>
      <point x="18" y="0" type="line"/>
      <point x="114" y="0" type="line"/>
      <point x="288" y="176" type="line"/>
      <point x="317" y="117"/>
      <point x="339" y="65"/>
      <point x="363" y="0" type="curve"/>
      <point x="450" y="0" type="line"/>
      <point x="419" y="87"/>
      <point x="382" y="162"/>
      <point x="344" y="237" type="curve"/>
      <point x="381" y="277"/>
      <point x="518" y="430"/>
      <point x="542" y="464" type="curve"/>
      <point x="453" y="464" type="line"/>
      <point x="429" y="430"/>
      <point x="363" y="360"/>
      <point x="308" y="298" type="curve"/>
      <point x="228" y="464" type="line"/>
      <point x="136" y="464" type="line"/>
      <point x="251" y="239" type="line"/>
    </contour>
  </outline>
</glyph>
<glyph name="y" format="2">
  <advance width="500"/>
  <unicode hex="0079"/>
  <outline>
    <contour>
      <point x="60" y="-168" type="curve" smooth="yes"/>
      <point x="192" y="-168"/>
      <point x="263" y="-79"/>
      <point x="338" y="34" type="curve" smooth="yes"/>
      <point x="438" y="182"/>
      <point x="510" y="374"/>
      <point x="536" y="464" type="curve"/>
      <point x="449" y="464" type="line"/>
      <point x="432" y="393"/>
      <point x="373" y="218"/>
      <point x="283" y="75" type="curve"/>
      <point x="250" y="201"/>
      <point x="224" y="358"/>
      <point x="221" y="464" type="curve"/>
      <point x="137" y="464" type="line"/>
      <point x="143" y="301"/>
      <point x="181" y="138"/>
      <point x="225" y="-6" type="curve"/>
      <point x="180" y="-71"/>
      <point x="138" y="-97"/>
      <point x="69" y="-97" type="curve" smooth="yes"/>
      <point x="44" y="-97"/>
      <point x="22" y="-90"/>
      <point x="11" y="-80" type="curve"/>
      <point x="-18" y="-148" type="line"/>
      <point x="-4" y="-158"/>
      <point x="27" y="-168"/>
    </contour>
  </outline>
</glyph>
<glyph name="z" format="2">
  <advance width="500"/>
  <unicode hex="007A"/>
  <outline>
    <contour>
      <point x="58" y="0" type="line"/>
      <point x="405" y="0" type="line"/>
      <point x="421" y="70" type="line"/>
      <point x="171" y="70" type="line"/>
      <point x="240" y="160"/>
      <point x="425" y="343"/>
      <point x="494" y="405" type="curve"/>
      <point x="509" y="464" type="line"/>
      <point x="183" y="464" type="line"/>
      <point x="165" y="395" type="line"/>
      <point x="386" y="395" type="line"/>
      <point x="301" y="321"/>
      <point x="143" y="158"/>
      <point x="71" y="54" type="curve"/>
    </contour>
  </outline>
</glyph>
<glyph name="braceleft" format="2">
  <advance width="500"/>
  <unicode hex="007B"/>
  <outline>
    <contour>
      <point x="278" y="-165" type="curve" smooth="yes"/>
      <point x="365" y="-165" type="line"/>
      <point x="382" y="-100" type="line"/>
      <point x="298" y="-100" type="line" smooth="yes"/>
      <point x="245" y="-100"/>
      <point x="221" y="-90"/>
      <point x="221" y="-52" type="curve" smooth="yes"/>
      <point x="221" y="-41"/>
      <point x="223" y="-29"/>
      <point x="227" y="-12" type="curve" smooth="yes"/>
      <point x="260" y="126" type="line" smooth="yes"/>
      <point x="264" y="146"/>
      <point x="269" y="166"/>
      <point x="269" y="187" type="curve" smooth="yes"/>
      <point x="269" y="218"/>
      <point x="258" y="246"/>
      <point x="233" y="267" type="curve"/>
      <point x="282" y="288"/>
      <point x="308" y="330"/>
      <point x="327" y="408" type="curve" smooth="yes"/>
      <point x="360" y="546" type="line" smooth="yes"/>
      <point x="377" y="621"/>
      <point x="410" y="634"/>
      <point x="475" y="634" type="curve" smooth="yes"/>
      <point x="555" y="634" type="line"/>
      <point x="572" y="699" type="line"/>
      <point x="488" y="699" type="line" smooth="yes"/>
      <point x="358" y="699"/>
      <point x="310" y="656"/>
      <point x="284" y="547" type="curve" smooth="yes"/>
      <point x="246" y="386" type="line" smooth="yes"/>
      <point x="236" y="343"/>
      <point x="199" y="299"/>
      <point x="146" y="299" type="curve" smooth="yes"/>
      <point x="105" y="299" type="line"/>
      <point x="89" y="235" type="line"/>
      <point x="129" y="235" type="line" smooth="yes"/>
      <point x="175" y="235"/>
      <point x="193" y="207"/>
      <point x="193" y="174" type="curve" smooth="yes"/>
      <point x="193" y="166"/>
      <point x="192" y="158"/>
      <point x="189" y="148" type="curve" smooth="yes"/>
      <point x="151" y="-13" type="line" smooth="yes"/>
      <point x="146" y="-33"/>
      <point x="144" y="-51"/>
      <point x="144" y="-66" type="curve" smooth="yes"/>
      <point x="144" y="-138"/>
      <point x="192" y="-165"/>
    </contour>
  </outline>
</glyph>
<glyph name="bar" format="2">
  <advance width="500"/>
  <unicode hex="007C"/>
  <outline>
    <contour>
      <point x="153" y="-165" type="line"/>
      <point x="231" y="-165" type="line"/>
      <point x="439" y="699" type="line"/>
      <point x="361" y="699" type="line"/>
    </contour>
  </outline>
</glyph>
<glyph name="braceright" format="2">
  <advance width="500"/>
  <unicode hex="007D"/>
  <outline>
    <contour>
      <point x="0" y="-165" type="line"/>
      <point x="84" y="-165" type="line" smooth="yes"/>
      <point x="213" y="-165"/>
      <point x="262" y="-122"/>
      <point x="288" y="-13" type="curve" smooth="yes"/>
      <point x="326" y="148" type="line" smooth="yes"/>
      <point x="336" y="191"/>
      <point x="372" y="235"/>
      <point x="426" y="235" type="curve" smooth="yes"/>
      <point x="466" y="235" type="line"/>
      <point x="482" y="299" type="line"/>
      <point x="442" y="299" type="line" smooth="yes"/>
      <point x="396" y="299"/>
      <point x="379" y="327"/>
      <point x="379" y="360" type="curve" smooth="yes"/>
      <point x="379" y="368"/>
      <point x="380" y="376"/>
      <point x="382" y="386" type="curve" smooth="yes"/>
      <point x="421" y="547" type="line" smooth="yes"/>
      <point x="425" y="567"/>
      <point x="428" y="585"/>
      <point x="428" y="600" type="curve" smooth="yes"/>
      <point x="428" y="672"/>
      <point x="380" y="699"/>
      <point x="294" y="699" type="curve" smooth="yes"/>
      <point x="206" y="699" type="line"/>
      <point x="189" y="634" type="line"/>
      <point x="273" y="634" type="line" smooth="yes"/>
      <point x="327" y="634"/>
      <point x="351" y="624"/>
      <point x="351" y="586" type="curve" smooth="yes"/>
      <point x="351" y="575"/>
      <point x="348" y="563"/>
      <point x="345" y="546" type="curve" smooth="yes"/>
      <point x="312" y="408" type="line" smooth="yes"/>
      <point x="307" y="388"/>
      <point x="303" y="368"/>
      <point x="303" y="347" type="curve" smooth="yes"/>
      <point x="303" y="316"/>
      <point x="313" y="288"/>
      <point x="338" y="267" type="curve"/>
      <point x="289" y="246"/>
      <point x="263" y="204"/>
      <point x="245" y="126" type="curve" smooth="yes"/>
      <point x="212" y="-12" type="line" smooth="yes"/>
      <point x="195" y="-87"/>
      <point x="162" y="-100"/>
      <point x="96" y="-100" type="curve" smooth="yes"/>
      <point x="16" y="-100" type="line"/>
    </contour>
  </outline>
</glyph>
<glyph name="asciitilde" format="2">
  <advance width="500"/>
  <unicode hex="007E"/>
  <outline>
    <contour>
      <point x="373" y="189" type="curve" smooth="yes"/>
      <point x="455" y="189"/>
      <point x="499" y="262"/>
      <point x="518" y="314" type="curve"/>
      <point x="461" y="332" type="line"/>
      <point x="447" y="304"/>
      <point x="424" y="262"/>
      <point x="385" y="262" type="curve" smooth="yes"/>
      <point x="353" y="262"/>
      <point x="336" y="281"/>
      <point x="308" y="300" type="curve" smooth="yes"/>
      <point x="286" y="317"/>
      <point x="262" y="337"/>
      <point x="220" y="337" type="curve" smooth="yes"/>
      <point x="138" y="337"/>
      <point x="94" y="264"/>
      <point x="75" y="212" type="curve"/>
      <point x="132" y="194" type="line"/>
      <point x="146" y="222"/>
      <point x="168" y="264"/>
      <point x="208" y="264" type="curve" smooth="yes"/>
      <point x="240" y="264"/>
      <point x="258" y="246"/>
      <point x="285" y="226" type="curve" smooth="yes"/>
      <point x="308" y="210"/>
      <point x="331" y="189"/>
    </contour>
  </outline>
</glyph>
<glyph name="exclamdown" format="2">
  <advance width="500"/>
  <unicode hex="00A1"/>
  <outline>
    <contour>
      <point x="145" y="-165" type="line"/>
      <point x="234" y="-165" type="line"/>
      <point x="274" y="3" type="line" smooth="yes"/>
      <point x="298" y="102"/>
      <point x="305" y="163"/>
      <point x="315" y="243" type="curve"/>
      <point x="258" y="243" type="line"/>
      <point x="230" y="163"/>
      <point x="209" y="102"/>
      <point x="185" y="3" type="curve" smooth="yes"/>
    </contour>
    <contour>
      <point x="316" y="330" type="curve" smooth="yes"/>
      <point x="354" y="330"/>
      <point x="386" y="357"/>
      <point x="386" y="405" type="curve" smooth="yes"/>
      <point x="386" y="446"/>
      <point x="361" y="465"/>
      <point x="327" y="465" type="curve" smooth="yes"/>
      <point x="291" y="465"/>
      <point x="255" y="437"/>
      <point x="255" y="391" type="curve" smooth="yes"/>
      <point x="255" y="351"/>
      <point x="282" y="330"/>
    </contour>
  </outline>
</glyph>
<glyph name="cent" format="2">
  <advance width="500"/>
  <unicode hex="00A2"/>
  <outline>
    <contour>
      <point x="196" y="-97" type="line"/>
      <point x="268" y="-97" type="line"/>
      <point x="297" y="28" type="line"/>
      <point x="359" y="30"/>
      <point x="412" y="45"/>
      <point x="433" y="58" type="curve"/>
      <point x="427" y="127" type="line"/>
      <point x="413" y="115"/>
      <point x="356" y="98"/>
      <point x="310" y="98" type="curve" smooth="yes"/>
      <point x="205" y="98"/>
      <point x="176" y="146"/>
      <point x="176" y="204" type="curve" smooth="yes"/>
      <point x="176" y="313"/>
      <point x="262" y="424"/>
      <point x="390" y="424" type="curve" smooth="yes"/>
      <point x="433" y="424"/>
      <point x="459" y="418"/>
      <point x="480" y="407" type="curve"/>
      <point x="510" y="473" type="line"/>
      <point x="480" y="487"/>
      <point x="446" y="492"/>
      <point x="411" y="495" type="curve"/>
      <point x="440" y="619" type="line"/>
      <point x="368" y="619" type="line"/>
      <point x="338" y="490" type="line"/>
      <point x="179" y="464"/>
      <point x="95" y="329"/>
      <point x="95" y="201" type="curve" smooth="yes"/>
      <point x="95" y="105"/>
      <point x="138" y="53"/>
      <point x="226" y="32" type="curve"/>
    </contour>
  </outline>
</glyph>
<glyph name="sterling" format="2">
  <advance width="500"/>
  <unicode hex="00A3"/>
  <outline>
    <contour>
      <point x="88" y="0" type="curve"/>
      <point x="440" y="0" type="line"/>
      <point x="457" y="71" type="line"/>
      <point x="198" y="71" type="line"/>
      <point x="222" y="131"/>
      <point x="244" y="199"/>
      <point x="260" y="266" type="curve"/>
      <point x="429" y="266" type="line"/>
      <point x="445" y="333" type="line"/>
      <point x="276" y="333" type="line"/>
      <point x="294" y="409" type="line" smooth="yes"/>
      <point x="321" y="523"/>
      <point x="367" y="558"/>
      <point x="436" y="558" type="curve" smooth="yes"/>
      <point x="472" y="558"/>
      <point x="500" y="549"/>
      <point x="528" y="535" type="curve"/>
      <point x="565" y="602" type="line"/>
      <point x="538" y="617"/>
      <point x="508" y="630"/>
      <point x="447" y="630" type="curve" smooth="yes"/>
      <point x="324" y="630"/>
      <point x="254" y="586"/>
      <point x="211" y="407" type="curve" smooth="yes"/>
      <point x="193" y="333" type="line"/>
      <point x="110" y="333" type="line"/>
      <point x="94" y="266" type="line"/>
      <point x="177" y="266" type="line"/>
      <point x="153" y="168"/>
      <point x="121" y="85"/>
    </contour>
  </outline>
</glyph>
<glyph name="currency" format="2">
  <advance width="500"/>
  <unicode hex="00A4"/>
  <outline>
    <contour>
      <point x="143" y="97" type="line"/>
      <point x="209" y="163" type="line"/>
      <point x="237" y="146"/>
      <point x="269" y="138"/>
      <point x="304" y="138" type="curve" smooth="yes"/>
      <point x="338" y="138"/>
      <point x="369" y="146"/>
      <point x="397" y="163" type="curve"/>
      <point x="464" y="97" type="line"/>
      <point x="516" y="149" type="line"/>
      <point x="450" y="215" type="line"/>
      <point x="467" y="241"/>
      <point x="476" y="271"/>
      <point x="476" y="310" type="curve" smooth="yes"/>
      <point x="476" y="346"/>
      <point x="467" y="379"/>
      <point x="450" y="405" type="curve"/>
      <point x="516" y="471" type="line"/>
      <point x="464" y="522" type="line"/>
      <point x="397" y="455" type="line"/>
      <point x="370" y="472"/>
      <point x="338" y="481"/>
      <point x="304" y="481" type="curve" smooth="yes"/>
      <point x="269" y="481"/>
      <point x="237" y="472"/>
      <point x="209" y="455" type="curve"/>
      <point x="143" y="522" type="line"/>
      <point x="91" y="471" type="line"/>
      <point x="156" y="405" type="line"/>
      <point x="139" y="378"/>
      <point x="131" y="346"/>
      <point x="131" y="310" type="curve" smooth="yes"/>
      <point x="131" y="273"/>
      <point x="139" y="241"/>
      <point x="156" y="214" type="curve"/>
      <point x="91" y="149" type="line"/>
    </contour>
    <contour>
      <point x="304" y="199" type="curve" smooth="yes"/>
      <point x="246" y="199"/>
      <point x="198" y="242"/>
      <point x="198" y="310" type="curve" smooth="yes"/>
      <point x="198" y="378"/>
      <point x="246" y="421"/>
      <point x="304" y="421" type="curve" smooth="yes"/>
      <point x="361" y="421"/>
      <point x="409" y="378"/>
      <point x="409" y="310" type="curve" smooth="yes"/>
      <point x="409" y="242"/>
      <point x="361" y="199"/>
    </contour>
  </outline>
</glyph>
<glyph name="yen" format="2">
  <advance width="500"/>
  <unicode hex="00A5"/>
  <outline>
    <contour>
      <point x="196" y="0" type="line"/>
      <point x="278" y="0" type="line"/>
      <point x="301" y="95" type="line"/>
      <point x="445" y="95" type="line"/>
      <point x="460" y="158" type="line"/>
      <point x="316" y="158" type="line"/>
      <point x="338" y="249" type="line"/>
      <point x="481" y="249" type="line"/>
      <point x="497" y="313" type="line"/>
      <point x="374" y="313" type="line"/>
      <point x="463" y="416"/>
      <point x="540" y="513"/>
      <point x="616" y="619" type="curve"/>
      <point x="522" y="619" type="line"/>
      <point x="462" y="528"/>
      <point x="385" y="426"/>
      <point x="316" y="344" type="curve"/>
      <point x="286" y="424"/>
      <point x="253" y="522"/>
      <point x="234" y="619" type="curve"/>
      <point x="147" y="619" type="line"/>
      <point x="176" y="511"/>
      <point x="205" y="420"/>
      <point x="247" y="313" type="curve"/>
      <point x="126" y="313" type="line"/>
      <point x="111" y="249" type="line"/>
      <point x="255" y="249" type="line"/>
      <point x="234" y="158" type="line"/>
      <point x="89" y="158" type="line"/>
      <point x="74" y="95" type="line"/>
      <point x="219" y="95" type="line"/>
    </contour>
  </outline>
</glyph>
<glyph name="section" format="2">
  <advance width="500"/>
  <unicode hex="00A7"/>
  <outline>
    <contour>
      <point x="195" y="-97" type="curve" smooth="yes"/>
      <point x="328" y="-97"/>
      <point x="401" y="-34"/>
      <point x="401" y="53" type="curve" smooth="yes"/>
      <point x="401" y="98"/>
      <point x="383" y="121"/>
      <point x="366" y="137" type="curve"/>
      <point x="428" y="171"/>
      <point x="475" y="222"/>
      <point x="475" y="289" type="curve" smooth="yes"/>
      <point x="475" y="378"/>
      <point x="422" y="397"/>
      <point x="355" y="423" type="curve" smooth="yes"/>
      <point x="303" y="442"/>
      <point x="281" y="457"/>
      <point x="281" y="492" type="curve" smooth="yes"/>
      <point x="281" y="545"/>
      <point x="326" y="566"/>
      <point x="389" y="566" type="curve" smooth="yes"/>
      <point x="443" y="566"/>
      <point x="475" y="550"/>
      <point x="496" y="540" type="curve"/>
      <point x="527" y="605" type="line"/>
      <point x="499" y="618"/>
      <point x="456" y="633"/>
      <point x="396" y="633" type="curve" smooth="yes"/>
      <point x="280" y="633"/>
      <point x="200" y="577"/>
      <point x="200" y="480" type="curve" smooth="yes"/>
      <point x="200" y="448"/>
      <point x="209" y="424"/>
      <point x="226" y="407" type="curve"/>
      <point x="165" y="374"/>
      <point x="117" y="318"/>
      <point x="117" y="255" type="curve" smooth="yes"/>
      <point x="117" y="168"/>
      <point x="172" y="144"/>
      <point x="238" y="121" type="curve" smooth="yes"/>
      <point x="288" y="102"/>
      <point x="320" y="90"/>
      <point x="320" y="45" type="curve" smooth="yes"/>
      <point x="320" y="-1"/>
      <point x="279" y="-30"/>
      <point x="201" y="-30" type="curve" smooth="yes"/>
      <point x="144" y="-30"/>
      <point x="99" y="-14"/>
      <point x="77" y="-1" type="curve"/>
      <point x="45" y="-66" type="line"/>
      <point x="79" y="-85"/>
      <point x="130" y="-97"/>
    </contour>
    <contour>
      <point x="315" y="171" type="curve"/>
      <point x="311" y="173"/>
      <point x="305" y="175"/>
      <point x="298" y="178" type="curve" smooth="yes"/>
      <point x="242" y="199"/>
      <point x="195" y="218"/>
      <point x="195" y="264" type="curve" smooth="yes"/>
      <point x="195" y="313"/>
      <point x="238" y="355"/>
      <point x="279" y="373" type="curve"/>
      <point x="282" y="371"/>
      <point x="287" y="369"/>
      <point x="294" y="366" type="curve" smooth="yes"/>
      <point x="352" y="345"/>
      <point x="397" y="326"/>
      <point x="397" y="280" type="curve" smooth="yes"/>
      <point x="397" y="230"/>
      <point x="355" y="189"/>
    </contour>
  </outline>
</glyph>
<glyph name="dieresis" format="2">
  <advance width="500"/>
  <unicode hex="00A8"/>
  <outline>
    <contour>
      <point x="287" y="550" type="curve" smooth="yes"/>
      <point x="314" y="550"/>
      <point x="344" y="573"/>
      <point x="344" y="608" type="curve" smooth="yes"/>
      <point x="344" y="637"/>
      <point x="322" y="655"/>
      <point x="296" y="655" type="curve" smooth="yes"/>
      <point x="269" y="655"/>
      <point x="240" y="631"/>
      <point x="240" y="596" type="curve" smooth="yes"/>
      <point x="240" y="568"/>
      <point x="261" y="550"/>
    </contour>
    <contour>
      <point x="456" y="550" type="curve" smooth="yes"/>
      <point x="484" y="550"/>
      <point x="513" y="573"/>
      <point x="513" y="608" type="curve" smooth="yes"/>
      <point x="513" y="637"/>
      <point x="492" y="655"/>
      <point x="466" y="655" type="curve" smooth="yes"/>
      <point x="438" y="655"/>
      <point x="410" y="631"/>
      <point x="410" y="596" type="curve" smooth="yes"/>
      <point x="410" y="568"/>
      <point x="430" y="550"/>
    </contour>
  </outline>
</glyph>
<glyph name="copyright" format="2">
  <advance width="500"/>
  <unicode hex="00A9"/>
  <outline>
    <contour>
      <point x="287" y="-11" type="curve" smooth="yes"/>
      <point x="394" y="-11"/>
      <point x="504" y="71"/>
      <point x="504" y="233" type="curve" smooth="yes"/>
      <point x="504" y="394"/>
      <point x="396" y="475"/>
      <point x="288" y="475" type="curve" smooth="yes"/>
      <point x="181" y="475"/>
      <point x="71" y="394"/>
      <point x="71" y="231" type="curve" smooth="yes"/>
      <point x="71" y="71"/>
      <point x="179" y="-11"/>
    </contour>
    <contour>
      <point x="294" y="104" type="curve" smooth="yes"/>
      <point x="315" y="104"/>
      <point x="342" y="109"/>
      <point x="364" y="120" type="curve"/>
      <point x="347" y="173" type="line"/>
      <point x="334" y="167"/>
      <point x="316" y="164"/>
      <point x="305" y="164" type="curve" smooth="yes"/>
      <point x="264" y="164"/>
      <point x="242" y="191"/>
      <point x="242" y="233" type="curve" smooth="yes"/>
      <point x="242" y="266"/>
      <point x="259" y="298"/>
      <point x="300" y="298" type="curve" smooth="yes"/>
      <point x="313" y="298"/>
      <point x="328" y="296"/>
      <point x="342" y="290" type="curve"/>
      <point x="363" y="344" type="line"/>
      <point x="339" y="354"/>
      <point x="315" y="357"/>
      <point x="295" y="357" type="curve" smooth="yes"/>
      <point x="215" y="357"/>
      <point x="179" y="293"/>
      <point x="179" y="229" type="curve" smooth="yes"/>
      <point x="179" y="166"/>
      <point x="217" y="104"/>
    </contour>
    <contour>
      <point x="288" y="43" type="curve" smooth="yes"/>
      <point x="209" y="43"/>
      <point x="129" y="106"/>
      <point x="129" y="233" type="curve" smooth="yes"/>
      <point x="129" y="357"/>
      <point x="208" y="421"/>
      <point x="288" y="421" type="curve" smooth="yes"/>
      <point x="366" y="421"/>
      <point x="446" y="358"/>
      <point x="446" y="231" type="curve" smooth="yes"/>
      <point x="446" y="107"/>
      <point x="367" y="43"/>
    </contour>
  </outline>
</glyph>
<glyph name="ordfeminine" format="2">
  <advance width="500"/>
  <unicode hex="00AA"/>
  <outline>
    <contour>
      <point x="288" y="295" type="curve" smooth="yes"/>
      <point x="329" y="295"/>
      <point x="358" y="311"/>
      <point x="375" y="328" type="curve"/>
      <point x="378" y="316"/>
      <point x="384" y="303"/>
      <point x="388" y="296" type="curve"/>
      <point x="450" y="307" type="line"/>
      <point x="431" y="354"/>
      <point x="430" y="388"/>
      <point x="442" y="435" type="curve" smooth="yes"/>
      <point x="491" y="616" type="line"/>
      <point x="465" y="627"/>
      <point x="430" y="632"/>
      <point x="408" y="632" type="curve" smooth="yes"/>
      <point x="255" y="632"/>
      <point x="179" y="522"/>
      <point x="179" y="413" type="curve" smooth="yes"/>
      <point x="179" y="342"/>
      <point x="211" y="295"/>
    </contour>
    <contour>
      <point x="303" y="349" type="curve" smooth="yes"/>
      <point x="255" y="349"/>
      <point x="244" y="383"/>
      <point x="244" y="419" type="curve" smooth="yes"/>
      <point x="244" y="502"/>
      <point x="305" y="578"/>
      <point x="396" y="578" type="curve" smooth="yes"/>
      <point x="405" y="578"/>
      <point x="412" y="576"/>
      <point x="414" y="575" type="curve"/>
      <point x="379" y="439" type="line" smooth="yes"/>
      <point x="375" y="424"/>
      <point x="370" y="401"/>
      <point x="370" y="383" type="curve"/>
      <point x="352" y="364"/>
      <point x="329" y="349"/>
    </contour>
  </outline>
</glyph>
<glyph name="guillemotleft" format="2">
  <advance width="500"/>
  <unicode hex="00AB"/>
  <outline>
    <contour>
      <point x="368" y="81" type="line"/>
      <point x="421" y="110" type="line"/>
      <point x="371" y="249" type="line"/>
      <point x="494" y="403" type="line"/>
      <point x="447" y="438" type="line"/>
      <point x="287" y="254" type="line"/>
    </contour>
    <contour>
      <point x="188" y="81" type="line"/>
      <point x="241" y="110" type="line"/>
      <point x="191" y="249" type="line"/>
      <point x="314" y="403" type="line"/>
      <point x="268" y="438" type="line"/>
      <point x="107" y="254" type="line"/>
    </contour>
  </outline>
</glyph>
<glyph name="logicalnot" format="2">
  <advance width="500"/>
  <unicode hex="00AC"/>
  <outline>
    <contour>
      <point x="374" y="43" type="line"/>
      <point x="446" y="43" type="line"/>
      <point x="518" y="347" type="line"/>
      <point x="109" y="347" type="line"/>
      <point x="92" y="277" type="line"/>
      <point x="430" y="277" type="line"/>
    </contour>
  </outline>
</glyph>
<glyph name="registered" format="2">
  <advance width="500"/>
  <unicode hex="00AE"/>
  <outline>
    <contour>
      <point x="287" y="-11" type="curve" smooth="yes"/>
      <point x="394" y="-11"/>
      <point x="504" y="71"/>
      <point x="504" y="233" type="curve" smooth="yes"/>
      <point x="504" y="394"/>
      <point x="396" y="475"/>
      <point x="288" y="475" type="curve" smooth="yes"/>
      <point x="181" y="475"/>
      <point x="71" y="394"/>
      <point x="71" y="231" type="curve" smooth="yes"/>
      <point x="71" y="71"/>
      <point x="179" y="-11"/>
    </contour>
    <contour>
      <point x="288" y="43" type="curve" smooth="yes"/>
      <point x="209" y="43"/>
      <point x="129" y="106"/>
      <point x="129" y="233" type="curve" smooth="yes"/>
      <point x="129" y="357"/>
      <point x="208" y="421"/>
      <point x="288" y="421" type="curve" smooth="yes"/>
      <point x="366" y="421"/>
      <point x="446" y="358"/>
      <point x="446" y="231" type="curve" smooth="yes"/>
      <point x="446" y="107"/>
      <point x="367" y="43"/>
    </contour>
    <contour>
      <point x="204" y="110" type="line"/>
      <point x="257" y="110" type="line"/>
      <point x="257" y="187" type="line"/>
      <point x="294" y="187" type="line"/>
      <point x="306" y="166"/>
      <point x="320" y="142"/>
      <point x="337" y="110" type="curve"/>
      <point x="394" y="110" type="line"/>
      <point x="377" y="144"/>
      <point x="358" y="178"/>
      <point x="343" y="200" type="curve"/>
      <point x="369" y="215"/>
      <point x="382" y="238"/>
      <point x="382" y="271" type="curve" smooth="yes"/>
      <point x="382" y="326"/>
      <point x="346" y="357"/>
      <point x="271" y="357" type="curve" smooth="yes"/>
      <point x="246" y="357"/>
      <point x="221" y="353"/>
      <point x="204" y="348" type="curve"/>
    </contour>
    <contour>
      <point x="257" y="237" type="line"/>
      <point x="257" y="305" type="line"/>
      <point x="263" y="306"/>
      <point x="271" y="307"/>
      <point x="280" y="307" type="curve" smooth="yes"/>
      <point x="303" y="307"/>
      <point x="329" y="301"/>
      <point x="329" y="274" type="curve" smooth="yes"/>
      <point x="329" y="244"/>
      <point x="312" y="237"/>
      <point x="276" y="237" type="curve" smooth="yes"/>
    </contour>
  </outline>
</glyph>
<glyph name="macron" format="2">
  <advance width="500"/>
  <unicode hex="00AF"/>
  <outline>
    <contour>
      <point x="235" y="571" type="line"/>
      <point x="485" y="571" type="line"/>
      <point x="500" y="635" type="line"/>
      <point x="250" y="635" type="line"/>
    </contour>
  </outline>
</glyph>
<glyph name="degree" format="2">
  <advance width="500"/>
  <unicode hex="00B0"/>
  <outline>
    <contour>
      <point x="348" y="445" type="curve" smooth="yes"/>
      <point x="415" y="445"/>
      <point x="473" y="492"/>
      <point x="473" y="569" type="curve" smooth="yes"/>
      <point x="473" y="646"/>
      <point x="415" y="693"/>
      <point x="348" y="693" type="curve" smooth="yes"/>
      <point x="281" y="693"/>
      <point x="223" y="646"/>
      <point x="223" y="569" type="curve" smooth="yes"/>
      <point x="223" y="492"/>
      <point x="281" y="445"/>
    </contour>
    <contour>
      <point x="348" y="501" type="curve" smooth="yes"/>
      <point x="313" y="501"/>
      <point x="283" y="527"/>
      <point x="283" y="569" type="curve" smooth="yes"/>
      <point x="283" y="611"/>
      <point x="313" y="637"/>
      <point x="348" y="637" type="curve" smooth="yes"/>
      <point x="384" y="637"/>
      <point x="413" y="611"/>
      <point x="413" y="569" type="curve" smooth="yes"/>
      <point x="413" y="527"/>
      <point x="384" y="501"/>
    </contour>
  </outline>
</glyph>
<glyph name="plusminus" format="2">
  <advance width="500"/>
  <unicode hex="00B1"/>
  <outline>
    <contour>
      <point x="227" y="124" type="line"/>
      <point x="302" y="124" type="line"/>
      <point x="346" y="304" type="line"/>
      <point x="508" y="304" type="line"/>
      <point x="525" y="374" type="line"/>
      <point x="363" y="374" type="line"/>
      <point x="405" y="554" type="line"/>
      <point x="330" y="554" type="line"/>
      <point x="287" y="374" type="line"/>
      <point x="124" y="374" type="line"/>
      <point x="107" y="304" type="line"/>
      <point x="270" y="304" type="line"/>
    </contour>
    <contour>
      <point x="33" y="0" type="line"/>
      <point x="434" y="0" type="line"/>
      <point x="451" y="71" type="line"/>
      <point x="50" y="71" type="line"/>
    </contour>
  </outline>
</glyph>
<glyph name="twosuperior" format="2">
  <advance width="500"/>
  <unicode hex="00B2"/>
  <outline>
    <contour>
      <point x="184" y="281" type="curve"/>
      <point x="419" y="281" type="line"/>
      <point x="432" y="338" type="line"/>
      <point x="263" y="338" type="line"/>
      <point x="274" y="365"/>
      <point x="310" y="382"/>
      <point x="335" y="399" type="curve" smooth="yes"/>
      <point x="389" y="432"/>
      <point x="462" y="477"/>
      <point x="462" y="546" type="curve" smooth="yes"/>
      <point x="462" y="599"/>
      <point x="430" y="633"/>
      <point x="362" y="633" type="curve" smooth="yes"/>
      <point x="307" y="633"/>
      <point x="264" y="608"/>
      <point x="240" y="586" type="curve"/>
      <point x="262" y="542" type="line"/>
      <point x="277" y="555"/>
      <point x="305" y="578"/>
      <point x="355" y="578" type="curve" smooth="yes"/>
      <point x="379" y="578"/>
      <point x="398" y="566"/>
      <point x="398" y="541" type="curve" smooth="yes"/>
      <point x="398" y="500"/>
      <point x="367" y="481"/>
      <point x="305" y="443" type="curve" smooth="yes"/>
      <point x="244" y="405"/>
      <point x="194" y="366"/>
    </contour>
  </outline>
</glyph>
<glyph name="threesuperior" format="2">
  <advance width="500"/>
  <unicode hex="00B3"/>
  <outline>
    <contour>
      <point x="288" y="274" type="curve" smooth="yes"/>
      <point x="384" y="274"/>
      <point x="449" y="316"/>
      <point x="449" y="395" type="curve" smooth="yes"/>
      <point x="449" y="433"/>
      <point x="429" y="455"/>
      <point x="400" y="466" type="curve"/>
      <point x="443" y="487"/>
      <point x="469" y="513"/>
      <point x="469" y="560" type="curve" smooth="yes"/>
      <point x="469" y="600"/>
      <point x="443" y="633"/>
      <point x="372" y="633" type="curve" smooth="yes"/>
      <point x="335" y="633"/>
      <point x="281" y="617"/>
      <point x="261" y="604" type="curve"/>
      <point x="273" y="557" type="line"/>
      <point x="292" y="567"/>
      <point x="325" y="579"/>
      <point x="357" y="579" type="curve" smooth="yes"/>
      <point x="392" y="579"/>
      <point x="407" y="570"/>
      <point x="407" y="542" type="curve" smooth="yes"/>
      <point x="407" y="503"/>
      <point x="351" y="489"/>
      <point x="318" y="489" type="curve" smooth="yes"/>
      <point x="296" y="489" type="line"/>
      <point x="283" y="439" type="line"/>
      <point x="302" y="439" type="line" smooth="yes"/>
      <point x="353" y="439"/>
      <point x="387" y="426"/>
      <point x="387" y="393" type="curve" smooth="yes"/>
      <point x="387" y="342"/>
      <point x="338" y="329"/>
      <point x="289" y="329" type="curve" smooth="yes"/>
      <point x="258" y="329"/>
      <point x="228" y="338"/>
      <point x="207" y="348" type="curve"/>
      <point x="183" y="298" type="line"/>
      <point x="207" y="285"/>
      <point x="240" y="274"/>
    </contour>
  </outline>
</glyph>
<glyph name="acute" format="2">
  <advance width="500"/>
  <unicode hex="00B4"/>
  <outline>
    <contour>
      <point x="340" y="512" type="line"/>
      <point x="491" y="626" type="line"/>
      <point x="446" y="691" type="line"/>
      <point x="305" y="556" type="line"/>
    </contour>
  </outline>
</glyph>
<glyph name="mu" format="2">
  <advance width="500"/>
  <unicode hex="00B5"/>
  <outline>
    <contour>
      <point x="4" y="-165" type="line"/>
      <point x="86" y="-165" type="line"/>
      <point x="108" y="-73" type="line" smooth="yes"/>
      <point x="117" y="-37"/>
      <point x="124" y="3"/>
      <point x="129" y="34" type="curve"/>
      <point x="146" y="6"/>
      <point x="181" y="-11"/>
      <point x="218" y="-11" type="curve" smooth="yes"/>
      <point x="276" y="-11"/>
      <point x="328" y="6"/>
      <point x="371" y="39" type="curve"/>
      <point x="388" y="10"/>
      <point x="417" y="-7"/>
      <point x="466" y="-8" type="curve"/>
      <point x="485" y="59" type="line"/>
      <point x="447" y="65"/>
      <point x="434" y="86"/>
      <point x="434" y="117" type="curve" smooth="yes"/>
      <point x="434" y="138"/>
      <point x="439" y="161"/>
      <point x="446" y="188" type="curve" smooth="yes"/>
      <point x="512" y="464" type="line"/>
      <point x="430" y="464" type="line"/>
      <point x="364" y="196" type="line" smooth="yes"/>
      <point x="356" y="163"/>
      <point x="354" y="134"/>
      <point x="354" y="103" type="curve"/>
      <point x="321" y="75"/>
      <point x="287" y="63"/>
      <point x="241" y="63" type="curve" smooth="yes"/>
      <point x="180" y="63"/>
      <point x="166" y="98"/>
      <point x="166" y="141" type="curve" smooth="yes"/>
      <point x="166" y="178"/>
      <point x="178" y="217"/>
      <point x="184" y="245" type="curve" smooth="yes"/>
      <point x="237" y="464" type="line"/>
      <point x="154" y="464" type="line"/>
    </contour>
  </outline>
</glyph>
<glyph name="paragraph" format="2">
  <advance width="500"/>
  <unicode hex="00B6"/>
  <outline>
    <contour>
      <point x="156" y="-165" type="line"/>
      <point x="226" y="-165" type="line"/>
      <point x="399" y="555" type="line"/>
      <point x="405" y="556"/>
      <point x="413" y="556"/>
      <point x="420" y="556" type="curve" smooth="yes"/>
      <point x="446" y="556"/>
      <point x="468" y="555"/>
      <point x="480" y="552" type="curve"/>
      <point x="307" y="-165" type="line"/>
      <point x="377" y="-165" type="line"/>
      <point x="563" y="610" type="line"/>
      <point x="520" y="622"/>
      <point x="463" y="625"/>
      <point x="416" y="625" type="curve" smooth="yes"/>
      <point x="259" y="625"/>
      <point x="94" y="553"/>
      <point x="94" y="379" type="curve" smooth="yes"/>
      <point x="94" y="302"/>
      <point x="131" y="242"/>
      <point x="252" y="234" type="curve"/>
    </contour>
  </outline>
</glyph>
<glyph name="cedilla" format="2">
  <advance width="500"/>
  <unicode hex="00B8"/>
  <outline>
    <contour>
      <point x="192" y="-169" type="curve" smooth="yes"/>
      <point x="255" y="-169"/>
      <point x="296" y="-140"/>
      <point x="296" y="-88" type="curve" smooth="yes"/>
      <point x="296" y="-60"/>
      <point x="284" y="-47"/>
      <point x="260" y="-34" type="curve"/>
      <point x="273" y="-17"/>
      <point x="285" y="1"/>
      <point x="298" y="18" type="curve"/>
      <point x="241" y="18" type="line"/>
      <point x="231" y="6"/>
      <point x="200" y="-38"/>
      <point x="186" y="-62" type="curve"/>
      <point x="203" y="-66"/>
      <point x="222" y="-74"/>
      <point x="222" y="-94" type="curve" smooth="yes"/>
      <point x="222" y="-111"/>
      <point x="208" y="-116"/>
      <point x="188" y="-116" type="curve" smooth="yes"/>
      <point x="165" y="-116"/>
      <point x="150" y="-111"/>
      <point x="140" y="-106" type="curve"/>
      <point x="120" y="-155" type="line"/>
      <point x="135" y="-163"/>
      <point x="157" y="-169"/>
    </contour>
  </outline>
</glyph>
<glyph name="onesuperior" format="2">
  <advance width="500"/>
  <unicode hex="00B9"/>
  <outline>
    <contour>
      <point x="183" y="281" type="line"/>
      <point x="416" y="281" type="line"/>
      <point x="430" y="338" type="line"/>
      <point x="349" y="338" type="line"/>
      <point x="419" y="626" type="line"/>
      <point x="375" y="626" type="line"/>
      <point x="338" y="597"/>
      <point x="296" y="575"/>
      <point x="242" y="556" type="curve"/>
      <point x="250" y="505" type="line"/>
      <point x="274" y="513"/>
      <point x="305" y="522"/>
      <point x="336" y="539" type="curve"/>
      <point x="286" y="338" type="line"/>
      <point x="196" y="338" type="line"/>
    </contour>
  </outline>
</glyph>
<glyph name="ordmasculine" format="2">
  <advance width="500"/>
  <unicode hex="00BA"/>
  <outline>
    <contour>
      <point x="301" y="293" type="curve" smooth="yes"/>
      <point x="447" y="293"/>
      <point x="500" y="423"/>
      <point x="500" y="519" type="curve" smooth="yes"/>
      <point x="500" y="591"/>
      <point x="456" y="633"/>
      <point x="385" y="633" type="curve" smooth="yes"/>
      <point x="239" y="633"/>
      <point x="186" y="503"/>
      <point x="186" y="407" type="curve" smooth="yes"/>
      <point x="186" y="335"/>
      <point x="230" y="293"/>
    </contour>
    <contour>
      <point x="313" y="348" type="curve" smooth="yes"/>
      <point x="271" y="348"/>
      <point x="253" y="374"/>
      <point x="253" y="413" type="curve" smooth="yes"/>
      <point x="253" y="485"/>
      <point x="297" y="578"/>
      <point x="373" y="578" type="curve" smooth="yes"/>
      <point x="415" y="578"/>
      <point x="433" y="552"/>
      <point x="433" y="513" type="curve" smooth="yes"/>
      <point x="433" y="441"/>
      <point x="388" y="348"/>
    </contour>
  </outline>
</glyph>
<glyph name="guillemotright" format="2">
  <advance width="500"/>
  <unicode hex="00BB"/>
  <outline>
    <contour>
      <point x="321" y="71" type="line"/>
      <point x="481" y="255" type="line"/>
      <point x="400" y="428" type="line"/>
      <point x="347" y="399" type="line"/>
      <point x="397" y="260" type="line"/>
      <point x="274" y="106" type="line"/>
    </contour>
    <contour>
      <point x="141" y="71" type="line"/>
      <point x="302" y="255" type="line"/>
      <point x="221" y="428" type="line"/>
      <point x="168" y="399" type="line"/>
      <point x="218" y="260" type="line"/>
      <point x="95" y="106" type="line"/>
    </contour>
  </outline>
</glyph>
<glyph name="onequarter" format="2">
  <advance width="500"/>
  <unicode hex="00BC"/>
  <outline>
    <contour>
      <point x="28" y="0" type="line"/>
      <point x="104" y="0" type="line"/>
      <point x="588" y="619" type="line"/>
      <point x="510" y="619" type="line"/>
    </contour>
    <contour>
      <point x="377" y="0" type="line"/>
      <point x="436" y="0" type="line"/>
      <point x="447" y="48" type="line"/>
      <point x="483" y="48" type="line"/>
      <point x="495" y="98" type="line"/>
      <point x="459" y="98" type="line"/>
      <point x="496" y="250" type="line"/>
      <point x="438" y="250" type="line"/>
      <point x="372" y="202"/>
      <point x="320" y="150"/>
      <point x="269" y="89" type="curve"/>
      <point x="259" y="48" type="line"/>
      <point x="388" y="48" type="line"/>
    </contour>
    <contour>
      <point x="335" y="98" type="line"/>
      <point x="363" y="133"/>
      <point x="381" y="152"/>
      <point x="421" y="185" type="curve"/>
      <point x="400" y="98" type="line"/>
    </contour>
    <contour>
      <point x="181" y="376" type="line"/>
      <point x="240" y="376" type="line"/>
      <point x="301" y="626" type="line"/>
      <point x="261" y="626" type="line"/>
      <point x="221" y="596"/>
      <point x="188" y="580"/>
      <point x="138" y="561" type="curve"/>
      <point x="145" y="516" type="line"/>
      <point x="171" y="524"/>
      <point x="193" y="532"/>
      <point x="223" y="547" type="curve"/>
    </contour>
  </outline>
</glyph>
<glyph name="onehalf" format="2">
  <advance width="500"/>
  <unicode hex="00BD"/>
  <outline>
    <contour>
      <point x="19" y="0" type="line"/>
      <point x="95" y="0" type="line"/>
      <point x="579" y="619" type="line"/>
      <point x="501" y="619" type="line"/>
    </contour>
    <contour>
      <point x="274" y="0" type="curve"/>
      <point x="463" y="0" type="line"/>
      <point x="474" y="50" type="line"/>
      <point x="347" y="50" type="line"/>
      <point x="350" y="56"/>
      <point x="369" y="65"/>
      <point x="392" y="78" type="curve" smooth="yes"/>
      <point x="435" y="100"/>
      <point x="492" y="134"/>
      <point x="492" y="188" type="curve" smooth="yes"/>
      <point x="492" y="238"/>
      <point x="458" y="256"/>
      <point x="418" y="256" type="curve" smooth="yes"/>
      <point x="381" y="256"/>
      <point x="340" y="240"/>
      <point x="316" y="218" type="curve"/>
      <point x="339" y="179" type="line"/>
      <point x="356" y="194"/>
      <point x="383" y="204"/>
      <point x="405" y="204" type="curve" smooth="yes"/>
      <point x="423" y="204"/>
      <point x="437" y="197"/>
      <point x="437" y="179" type="curve" smooth="yes"/>
      <point x="437" y="157"/>
      <point x="420" y="144"/>
      <point x="355" y="108" type="curve" smooth="yes"/>
      <point x="298" y="77"/>
      <point x="285" y="58"/>
    </contour>
    <contour>
      <point x="181" y="376" type="line"/>
      <point x="240" y="376" type="line"/>
      <point x="301" y="626" type="line"/>
      <point x="261" y="626" type="line"/>
      <point x="221" y="596"/>
      <point x="188" y="580"/>
      <point x="138" y="561" type="curve"/>
      <point x="145" y="516" type="line"/>
      <point x="171" y="524"/>
      <point x="193" y="532"/>
      <point x="223" y="547" type="curve"/>
    </contour>
  </outline>
</glyph>
<glyph name="threequarters" format="2">
  <advance width="500"/>
  <unicode hex="00BE"/>
  <outline>
    <contour>
      <point x="28" y="0" type="line"/>
      <point x="104" y="0" type="line"/>
      <point x="588" y="619" type="line"/>
      <point x="510" y="619" type="line"/>
    </contour>
    <contour>
      <point x="377" y="0" type="line"/>
      <point x="436" y="0" type="line"/>
      <point x="447" y="48" type="line"/>
      <point x="483" y="48" type="line"/>
      <point x="495" y="98" type="line"/>
      <point x="459" y="98" type="line"/>
      <point x="496" y="250" type="line"/>
      <point x="438" y="250" type="line"/>
      <point x="372" y="202"/>
      <point x="320" y="150"/>
      <point x="269" y="89" type="curve"/>
      <point x="259" y="48" type="line"/>
      <point x="388" y="48" type="line"/>
    </contour>
    <contour>
      <point x="335" y="98" type="line"/>
      <point x="363" y="133"/>
      <point x="381" y="152"/>
      <point x="421" y="185" type="curve"/>
      <point x="400" y="98" type="line"/>
    </contour>
    <contour>
      <point x="159" y="367" type="curve" smooth="yes"/>
      <point x="245" y="367"/>
      <point x="287" y="415"/>
      <point x="287" y="458" type="curve" smooth="yes"/>
      <point x="287" y="479"/>
      <point x="276" y="498"/>
      <point x="257" y="510" type="curve"/>
      <point x="288" y="526"/>
      <point x="303" y="552"/>
      <point x="303" y="575" type="curve" smooth="yes"/>
      <point x="303" y="619"/>
      <point x="268" y="633"/>
      <point x="229" y="633" type="curve" smooth="yes"/>
      <point x="195" y="633"/>
      <point x="157" y="622"/>
      <point x="137" y="611" type="curve"/>
      <point x="145" y="568" type="line"/>
      <point x="163" y="575"/>
      <point x="191" y="583"/>
      <point x="210" y="583" type="curve" smooth="yes"/>
      <point x="234" y="583"/>
      <point x="245" y="576"/>
      <point x="245" y="562" type="curve" smooth="yes"/>
      <point x="245" y="543"/>
      <point x="226" y="530"/>
      <point x="196" y="530" type="curve" smooth="yes"/>
      <point x="161" y="530" type="line"/>
      <point x="149" y="480" type="line"/>
      <point x="161" y="480" type="line" smooth="yes"/>
      <point x="205" y="480"/>
      <point x="230" y="476"/>
      <point x="230" y="455" type="curve" smooth="yes"/>
      <point x="230" y="427"/>
      <point x="201" y="417"/>
      <point x="167" y="417" type="curve" smooth="yes"/>
      <point x="140" y="417"/>
      <point x="118" y="424"/>
      <point x="105" y="430" type="curve"/>
      <point x="80" y="384" type="line"/>
      <point x="102" y="373"/>
      <point x="130" y="367"/>
    </contour>
  </outline>
</glyph>
<glyph name="questiondown" format="2">
  <advance width="500"/>
  <unicode hex="00BF"/>
  <outline>
    <contour>
      <point x="226" y="-170" type="curve" smooth="yes"/>
      <point x="278" y="-170"/>
      <point x="330" y="-155"/>
      <point x="363" y="-138" type="curve"/>
      <point x="354" y="-74" type="line"/>
      <point x="311" y="-95"/>
      <point x="277" y="-102"/>
      <point x="238" y="-102" type="curve" smooth="yes"/>
      <point x="182" y="-102"/>
      <point x="159" y="-76"/>
      <point x="159" y="-38" type="curve" smooth="yes"/>
      <point x="159" y="8"/>
      <point x="195" y="42"/>
      <point x="238" y="74" type="curve" smooth="yes"/>
      <point x="292" y="116"/>
      <point x="365" y="160"/>
      <point x="369" y="243" type="curve"/>
      <point x="296" y="243" type="line"/>
      <point x="286" y="192"/>
      <point x="247" y="159"/>
      <point x="204" y="126" type="curve" smooth="yes"/>
      <point x="144" y="81"/>
      <point x="77" y="37"/>
      <point x="77" y="-49" type="curve" smooth="yes"/>
      <point x="77" y="-141"/>
      <point x="150" y="-170"/>
    </contour>
    <contour>
      <point x="362" y="330" type="curve" smooth="yes"/>
      <point x="399" y="330"/>
      <point x="431" y="357"/>
      <point x="431" y="405" type="curve" smooth="yes"/>
      <point x="431" y="446"/>
      <point x="406" y="465"/>
      <point x="372" y="465" type="curve" smooth="yes"/>
      <point x="337" y="465"/>
      <point x="301" y="437"/>
      <point x="301" y="391" type="curve" smooth="yes"/>
      <point x="301" y="351"/>
      <point x="328" y="330"/>
    </contour>
  </outline>
</glyph>
<glyph name="Aring" format="2">
  <advance width="500"/>
  <unicode hex="00C5"/>
  <outline>
    <contour>
      <point x="-13" y="0" type="curve"/>
      <point x="70" y="0" type="line"/>
      <point x="95" y="54"/>
      <point x="121" y="108"/>
      <point x="146" y="162" type="curve"/>
      <point x="384" y="162" type="line"/>
      <point x="383" y="0" type="line"/>
      <point x="469" y="0" type="line"/>
      <point x="464" y="156"/>
      <point x="452" y="395"/>
      <point x="430" y="580" type="curve"/>
      <point x="455" y="596"/>
      <point x="470" y="627"/>
      <point x="470" y="658" type="curve" smooth="yes"/>
      <point x="470" y="714"/>
      <point x="427" y="749"/>
      <point x="378" y="749" type="curve" smooth="yes"/>
      <point x="329" y="749"/>
      <point x="286" y="714"/>
      <point x="286" y="658" type="curve" smooth="yes"/>
      <point x="286" y="631"/>
      <point x="296" y="609"/>
      <point x="311" y="593" type="curve"/>
      <point x="194" y="405"/>
      <point x="68" y="162"/>
    </contour>
    <contour>
      <point x="181" y="230" type="line"/>
      <point x="242" y="347"/>
      <point x="307" y="464"/>
      <point x="357" y="547" type="curve"/>
      <point x="368" y="468"/>
      <point x="379" y="349"/>
      <point x="381" y="230" type="curve"/>
    </contour>
    <contour>
      <point x="378" y="609" type="curve" smooth="yes"/>
      <point x="352" y="609"/>
      <point x="331" y="627"/>
      <point x="331" y="658" type="curve" smooth="yes"/>
      <point x="331" y="689"/>
      <point x="352" y="707"/>
      <point x="378" y="707" type="curve" smooth="yes"/>
      <point x="404" y="707"/>
      <point x="425" y="689"/>
      <point x="425" y="658" type="curve" smooth="yes"/>
      <point x="425" y="627"/>
      <point x="404" y="609"/>
    </contour>
  </outline>
</glyph>
<glyph name="AE" format="2">
  <advance width="500"/>
  <unicode hex="00C6"/>
  <outline>
    <contour>
      <point x="8" y="0" type="curve"/>
      <point x="88" y="0" type="line"/>
      <point x="164" y="162" type="line"/>
      <point x="285" y="162" type="line"/>
      <point x="245" y="0" type="line"/>
      <point x="465" y="0" type="line"/>
      <point x="482" y="70" type="line"/>
      <point x="341" y="70" type="line"/>
      <point x="394" y="289" type="line"/>
      <point x="498" y="289" type="line"/>
      <point x="515" y="359" type="line"/>
      <point x="411" y="359" type="line"/>
      <point x="456" y="549" type="line"/>
      <point x="584" y="549" type="line"/>
      <point x="601" y="619" type="line"/>
      <point x="348" y="619" type="line"/>
      <point x="230" y="434"/>
      <point x="121" y="230"/>
    </contour>
    <contour>
      <point x="199" y="230" type="line"/>
      <point x="250" y="328"/>
      <point x="316" y="450"/>
      <point x="382" y="566" type="curve"/>
      <point x="301" y="230" type="line"/>
    </contour>
  </outline>
</glyph>
<glyph name="Ccedilla" format="2">
  <advance width="500"/>
  <unicode hex="00C7"/>
  <outline>
    <contour>
      <point x="212" y="-169" type="curve" smooth="yes"/>
      <point x="275" y="-169"/>
      <point x="316" y="-140"/>
      <point x="316" y="-88" type="curve" smooth="yes"/>
      <point x="316" y="-60"/>
      <point x="304" y="-47"/>
      <point x="280" y="-34" type="curve"/>
      <point x="285" y="-27"/>
      <point x="290" y="-20"/>
      <point x="295" y="-13" type="curve"/>
      <point x="371" y="-10"/>
      <point x="430" y="14"/>
      <point x="446" y="26" type="curve"/>
      <point x="437" y="96" type="line"/>
      <point x="413" y="82"/>
      <point x="361" y="60"/>
      <point x="297" y="60" type="curve" smooth="yes"/>
      <point x="216" y="60"/>
      <point x="172" y="119"/>
      <point x="172" y="215" type="curve" smooth="yes"/>
      <point x="172" y="385"/>
      <point x="264" y="560"/>
      <point x="418" y="560" type="curve" smooth="yes"/>
      <point x="465" y="560"/>
      <point x="512" y="541"/>
      <point x="535" y="521" type="curve"/>
      <point x="574" y="587" type="line"/>
      <point x="552" y="605"/>
      <point x="504" y="633"/>
      <point x="424" y="633" type="curve" smooth="yes"/>
      <point x="216" y="633"/>
      <point x="89" y="413"/>
      <point x="89" y="202" type="curve" smooth="yes"/>
      <point x="89" y="86"/>
      <point x="147" y="7"/>
      <point x="240" y="-9" type="curve"/>
      <point x="228" y="-27"/>
      <point x="214" y="-48"/>
      <point x="206" y="-62" type="curve"/>
      <point x="223" y="-66"/>
      <point x="242" y="-74"/>
      <point x="242" y="-94" type="curve" smooth="yes"/>
      <point x="242" y="-111"/>
      <point x="228" y="-116"/>
      <point x="208" y="-116" type="curve" smooth="yes"/>
      <point x="185" y="-116"/>
      <point x="170" y="-111"/>
      <point x="160" y="-106" type="curve"/>
      <point x="140" y="-155" type="line"/>
      <point x="155" y="-163"/>
      <point x="177" y="-169"/>
    </contour>
  </outline>
</glyph>
<glyph name="Eth" format="2">
  <advance width="500"/>
  <unicode hex="00D0"/>
  <outline>
    <contour>
      <point x="187" y="-5" type="curve" smooth="yes"/>
      <point x="420" y="-5"/>
      <point x="522" y="194"/>
      <point x="522" y="405" type="curve" smooth="yes"/>
      <point x="522" y="544"/>
      <point x="449" y="625"/>
      <point x="330" y="625" type="curve" smooth="yes"/>
      <point x="292" y="625"/>
      <point x="254" y="620"/>
      <point x="213" y="610" type="curve"/>
      <point x="153" y="356" type="line"/>
      <point x="82" y="356" type="line"/>
      <point x="65" y="289" type="line"/>
      <point x="136" y="289" type="line"/>
      <point x="70" y="9" type="line"/>
      <point x="105" y="-1"/>
      <point x="149" y="-5"/>
    </contour>
    <contour>
      <point x="204" y="66" type="curve" smooth="yes"/>
      <point x="192" y="66"/>
      <point x="175" y="68"/>
      <point x="167" y="71" type="curve"/>
      <point x="219" y="289" type="line"/>
      <point x="298" y="289" type="line"/>
      <point x="315" y="356" type="line"/>
      <point x="235" y="356" type="line"/>
      <point x="281" y="551" type="line"/>
      <point x="292" y="553"/>
      <point x="305" y="554"/>
      <point x="319" y="554" type="curve" smooth="yes"/>
      <point x="401" y="554"/>
      <point x="439" y="497"/>
      <point x="439" y="396" type="curve" smooth="yes"/>
      <point x="439" y="201"/>
      <point x="338" y="66"/>
    </contour>
  </outline>
</glyph>
<glyph name="multiply" format="2">
  <advance width="500"/>
  <unicode hex="00D7"/>
  <outline>
    <contour>
      <point x="129" y="82" type="line"/>
      <point x="290" y="213" type="line"/>
      <point x="388" y="85" type="line"/>
      <point x="444" y="130" type="line"/>
      <point x="346" y="259" type="line"/>
      <point x="509" y="390" type="line"/>
      <point x="467" y="444" type="line"/>
      <point x="306" y="313" type="line"/>
      <point x="209" y="441" type="line"/>
      <point x="153" y="396" type="line"/>
      <point x="250" y="267" type="line"/>
      <point x="88" y="136" type="line"/>
    </contour>
  </outline>
</glyph>
<glyph name="Oslash" format="2">
  <advance width="500"/>
  <unicode hex="00D8"/>
  <outline>
    <contour>
      <point x="91" y="-33" type="line"/>
      <point x="130" y="21" type="line"/>
      <point x="158" y="-2"/>
      <point x="194" y="-13"/>
      <point x="235" y="-13" type="curve" smooth="yes"/>
      <point x="452" y="-13"/>
      <point x="532" y="288"/>
      <point x="532" y="436" type="curve" smooth="yes"/>
      <point x="532" y="480"/>
      <point x="525" y="518"/>
      <point x="512" y="547" type="curve"/>
      <point x="561" y="614" type="line"/>
      <point x="510" y="651" type="line"/>
      <point x="472" y="599" type="line"/>
      <point x="445" y="622"/>
      <point x="410" y="633"/>
      <point x="370" y="633" type="curve" smooth="yes"/>
      <point x="153" y="633"/>
      <point x="71" y="332"/>
      <point x="71" y="184" type="curve" smooth="yes"/>
      <point x="71" y="139"/>
      <point x="79" y="102"/>
      <point x="92" y="73" type="curve"/>
      <point x="41" y="3" type="line"/>
    </contour>
    <contour>
      <point x="245" y="58" type="curve" smooth="yes"/>
      <point x="215" y="58"/>
      <point x="193" y="67"/>
      <point x="177" y="86" type="curve"/>
      <point x="451" y="463" type="line"/>
      <point x="452" y="453"/>
      <point x="453" y="441"/>
      <point x="453" y="430" type="curve" smooth="yes"/>
      <point x="453" y="277"/>
      <point x="376" y="58"/>
    </contour>
    <contour>
      <point x="153" y="157" type="line"/>
      <point x="152" y="167"/>
      <point x="152" y="179"/>
      <point x="152" y="190" type="curve" smooth="yes"/>
      <point x="152" y="343"/>
      <point x="229" y="562"/>
      <point x="360" y="562" type="curve" smooth="yes"/>
      <point x="388" y="562"/>
      <point x="410" y="553"/>
      <point x="426" y="535" type="curve"/>
    </contour>
  </outline>
</glyph>
<glyph name="Thorn" format="2">
  <advance width="500"/>
  <unicode hex="00DE"/>
  <outline>
    <contour>
      <point x="53" y="0" type="line"/>
      <point x="135" y="0" type="line"/>
      <point x="166" y="127" type="line"/>
      <point x="203" y="127" type="line" smooth="yes"/>
      <point x="358" y="127"/>
      <point x="518" y="180"/>
      <point x="518" y="363" type="curve" smooth="yes"/>
      <point x="518" y="456"/>
      <point x="452" y="520"/>
      <point x="321" y="520" type="curve" smooth="yes"/>
      <point x="301" y="520"/>
      <point x="281" y="519"/>
      <point x="260" y="517" type="curve"/>
      <point x="284" y="619" type="line"/>
      <point x="202" y="619" type="line"/>
    </contour>
    <contour>
      <point x="183" y="199" type="line"/>
      <point x="241" y="443" type="line"/>
      <point x="256" y="444"/>
      <point x="273" y="446"/>
      <point x="292" y="446" type="curve" smooth="yes"/>
      <point x="356" y="446"/>
      <point x="430" y="431"/>
      <point x="430" y="355" type="curve" smooth="yes"/>
      <point x="430" y="239"/>
      <point x="331" y="199"/>
      <point x="222" y="199" type="curve" smooth="yes"/>
    </contour>
  </outline>
</glyph>
<glyph name="germandbls" format="2">
  <advance width="500"/>
  <unicode hex="00DF"/>
  <outline>
    <contour>
      <point x="-29" y="-168" type="curve" smooth="yes"/>
      <point x="88" y="-168"/>
      <point x="133" y="-116"/>
      <point x="162" y="18" type="curve" smooth="yes"/>
      <point x="257" y="461" type="line" smooth="yes"/>
      <point x="278" y="557"/>
      <point x="311" y="622"/>
      <point x="373" y="622" type="curve" smooth="yes"/>
      <point x="413" y="622"/>
      <point x="434" y="603"/>
      <point x="434" y="563" type="curve" smooth="yes"/>
      <point x="434" y="522"/>
      <point x="407" y="493"/>
      <point x="376" y="466" type="curve" smooth="yes"/>
      <point x="332" y="428"/>
      <point x="280" y="393"/>
      <point x="280" y="330" type="curve" smooth="yes"/>
      <point x="280" y="222"/>
      <point x="415" y="236"/>
      <point x="415" y="145" type="curve" smooth="yes"/>
      <point x="415" y="84"/>
      <point x="368" y="60"/>
      <point x="316" y="60" type="curve" smooth="yes"/>
      <point x="282" y="60"/>
      <point x="259" y="67"/>
      <point x="233" y="84" type="curve"/>
      <point x="202" y="12" type="line"/>
      <point x="237" y="-5"/>
      <point x="267" y="-12"/>
      <point x="308" y="-12" type="curve" smooth="yes"/>
      <point x="404" y="-12"/>
      <point x="497" y="38"/>
      <point x="497" y="150" type="curve" smooth="yes"/>
      <point x="497" y="268"/>
      <point x="363" y="278"/>
      <point x="363" y="335" type="curve" smooth="yes"/>
      <point x="363" y="371"/>
      <point x="382" y="384"/>
      <point x="422" y="420" type="curve" smooth="yes"/>
      <point x="485" y="476"/>
      <point x="515" y="503"/>
      <point x="515" y="572" type="curve" smooth="yes"/>
      <point x="515" y="643"/>
      <point x="473" y="693"/>
      <point x="378" y="693" type="curve" smooth="yes"/>
      <point x="255" y="693"/>
      <point x="210" y="609"/>
      <point x="175" y="463" type="curve" smooth="yes"/>
      <point x="79" y="17" type="line" smooth="yes"/>
      <point x="65" y="-51"/>
      <point x="38" y="-96"/>
      <point x="-16" y="-96" type="curve" smooth="yes"/>
      <point x="-40" y="-96"/>
      <point x="-61" y="-91"/>
      <point x="-74" y="-83" type="curve"/>
      <point x="-93" y="-152" type="line"/>
      <point x="-79" y="-162"/>
      <point x="-49" y="-168"/>
    </contour>
  </outline>
</glyph>
<glyph name="ae" format="2">
  <advance width="500"/>
  <unicode hex="00E6"/>
  <outline>
    <contour>
      <point x="132" y="-11" type="curve" smooth="yes"/>
      <point x="179" y="-11"/>
      <point x="238" y="22"/>
      <point x="266" y="79" type="curve"/>
      <point x="278" y="13"/>
      <point x="327" y="-11"/>
      <point x="374" y="-11" type="curve" smooth="yes"/>
      <point x="402" y="-11"/>
      <point x="432" y="-3"/>
      <point x="461" y="15" type="curve"/>
      <point x="466" y="85" type="line"/>
      <point x="439" y="70"/>
      <point x="414" y="62"/>
      <point x="394" y="62" type="curve" smooth="yes"/>
      <point x="353" y="62"/>
      <point x="327" y="91"/>
      <point x="327" y="154" type="curve" smooth="yes"/>
      <point x="327" y="163"/>
      <point x="327" y="171"/>
      <point x="327" y="180" type="curve"/>
      <point x="479" y="187"/>
      <point x="545" y="289"/>
      <point x="545" y="371" type="curve" smooth="yes"/>
      <point x="545" y="443"/>
      <point x="505" y="475"/>
      <point x="459" y="475" type="curve" smooth="yes"/>
      <point x="412" y="475"/>
      <point x="358" y="442"/>
      <point x="330" y="385" type="curve"/>
      <point x="319" y="451"/>
      <point x="264" y="475"/>
      <point x="217" y="475" type="curve" smooth="yes"/>
      <point x="189" y="475"/>
      <point x="159" y="467"/>
      <point x="130" y="449" type="curve"/>
      <point x="125" y="380" type="line"/>
      <point x="152" y="395"/>
      <point x="177" y="403"/>
      <point x="197" y="403" type="curve" smooth="yes"/>
      <point x="238" y="403"/>
      <point x="264" y="373"/>
      <point x="264" y="311" type="curve" smooth="yes"/>
      <point x="264" y="301"/>
      <point x="264" y="293"/>
      <point x="263" y="284" type="curve"/>
      <point x="113" y="278"/>
      <point x="46" y="175"/>
      <point x="46" y="93" type="curve" smooth="yes"/>
      <point x="46" y="21"/>
      <point x="86" y="-11"/>
    </contour>
    <contour>
      <point x="156" y="59" type="curve" smooth="yes"/>
      <point x="138" y="59"/>
      <point x="125" y="76"/>
      <point x="125" y="111" type="curve" smooth="yes"/>
      <point x="125" y="154"/>
      <point x="158" y="211"/>
      <point x="256" y="215" type="curve"/>
      <point x="237" y="112"/>
      <point x="188" y="59"/>
    </contour>
    <contour>
      <point x="335" y="249" type="curve"/>
      <point x="354" y="352"/>
      <point x="403" y="405"/>
      <point x="435" y="405" type="curve" smooth="yes"/>
      <point x="453" y="405"/>
      <point x="466" y="388"/>
      <point x="466" y="354" type="curve" smooth="yes"/>
      <point x="466" y="310"/>
      <point x="433" y="253"/>
    </contour>
  </outline>
</glyph>
<glyph name="ccedilla" format="2">
  <advance width="500"/>
  <unicode hex="00E7"/>
  <outline>
    <contour>
      <point x="192" y="-169" type="curve" smooth="yes"/>
      <point x="255" y="-169"/>
      <point x="296" y="-140"/>
      <point x="296" y="-88" type="curve" smooth="yes"/>
      <point x="296" y="-60"/>
      <point x="284" y="-47"/>
      <point x="260" y="-34" type="curve"/>
      <point x="276" y="-12" type="line"/>
      <point x="355" y="-12"/>
      <point x="412" y="6"/>
      <point x="436" y="21" type="curve"/>
      <point x="429" y="91" type="line"/>
      <point x="410" y="79"/>
      <point x="354" y="60"/>
      <point x="295" y="60" type="curve" smooth="yes"/>
      <point x="182" y="60"/>
      <point x="154" y="113"/>
      <point x="154" y="174" type="curve" smooth="yes"/>
      <point x="154" y="293"/>
      <point x="237" y="406"/>
      <point x="374" y="406" type="curve" smooth="yes"/>
      <point x="430" y="406"/>
      <point x="458" y="395"/>
      <point x="480" y="384" type="curve"/>
      <point x="511" y="454" type="line"/>
      <point x="475" y="469"/>
      <point x="435" y="476"/>
      <point x="381" y="476" type="curve" smooth="yes"/>
      <point x="182" y="476"/>
      <point x="71" y="329"/>
      <point x="71" y="166" type="curve" smooth="yes"/>
      <point x="71" y="77"/>
      <point x="121" y="11"/>
      <point x="222" y="-7" type="curve"/>
      <point x="210" y="-25"/>
      <point x="194" y="-47"/>
      <point x="186" y="-62" type="curve"/>
      <point x="203" y="-66"/>
      <point x="222" y="-74"/>
      <point x="222" y="-94" type="curve" smooth="yes"/>
      <point x="222" y="-111"/>
      <point x="208" y="-116"/>
      <point x="188" y="-116" type="curve" smooth="yes"/>
      <point x="165" y="-116"/>
      <point x="150" y="-111"/>
      <point x="140" y="-106" type="curve"/>
      <point x="120" y="-155" type="line"/>
      <point x="135" y="-163"/>
      <point x="157" y="-169"/>
    </contour>
  </outline>
</glyph>
<glyph name="eth" format="2">
  <advance width="500"/>
  <unicode hex="00F0"/>
  <outline>
    <contour>
      <point x="233" y="-12" type="curve" smooth="yes"/>
      <point x="464" y="-12"/>
      <point x="499" y="274"/>
      <point x="499" y="381" type="curve" smooth="yes"/>
      <point x="499" y="450"/>
      <point x="486" y="507"/>
      <point x="467" y="554" type="curve"/>
      <point x="565" y="585" type="line"/>
      <point x="558" y="641" type="line"/>
      <point x="441" y="604" type="line"/>
      <point x="415" y="647"/>
      <point x="386" y="676"/>
      <point x="363" y="693" type="curve"/>
      <point x="301" y="651" type="line"/>
      <point x="325" y="629"/>
      <point x="346" y="611"/>
      <point x="364" y="580" type="curve"/>
      <point x="266" y="548" type="line"/>
      <point x="273" y="492" type="line"/>
      <point x="389" y="529" type="line"/>
      <point x="406" y="489"/>
      <point x="413" y="449"/>
      <point x="416" y="411" type="curve"/>
      <point x="396" y="424"/>
      <point x="365" y="438"/>
      <point x="326" y="438" type="curve" smooth="yes"/>
      <point x="165" y="438"/>
      <point x="80" y="315"/>
      <point x="80" y="157" type="curve" smooth="yes"/>
      <point x="80" y="63"/>
      <point x="146" y="-12"/>
    </contour>
    <contour>
      <point x="245" y="58" type="curve" smooth="yes"/>
      <point x="193" y="58"/>
      <point x="163" y="100"/>
      <point x="163" y="158" type="curve" smooth="yes"/>
      <point x="163" y="287"/>
      <point x="219" y="368"/>
      <point x="320" y="368" type="curve" smooth="yes"/>
      <point x="352" y="368"/>
      <point x="386" y="356"/>
      <point x="414" y="330" type="curve"/>
      <point x="404" y="197"/>
      <point x="349" y="58"/>
    </contour>
  </outline>
</glyph>
<glyph name="divide" format="2">
  <advance width="500"/>
  <unicode hex="00F7"/>
  <outline>
    <contour>
      <point x="88" y="228" type="line"/>
      <point x="488" y="228" type="line"/>
      <point x="505" y="298" type="line"/>
      <point x="104" y="298" type="line"/>
    </contour>
    <contour>
      <point x="258" y="36" type="curve" smooth="yes"/>
      <point x="299" y="36"/>
      <point x="328" y="75"/>
      <point x="328" y="108" type="curve" smooth="yes"/>
      <point x="328" y="136"/>
      <point x="310" y="158"/>
      <point x="280" y="158" type="curve" smooth="yes"/>
      <point x="239" y="158"/>
      <point x="208" y="122"/>
      <point x="208" y="85" type="curve" smooth="yes"/>
      <point x="208" y="58"/>
      <point x="227" y="36"/>
    </contour>
    <contour>
      <point x="316" y="367" type="curve" smooth="yes"/>
      <point x="358" y="367"/>
      <point x="386" y="406"/>
      <point x="386" y="440" type="curve" smooth="yes"/>
      <point x="386" y="468"/>
      <point x="368" y="489"/>
      <point x="338" y="489" type="curve" smooth="yes"/>
      <point x="298" y="489"/>
      <point x="266" y="455"/>
      <point x="266" y="417" type="curve" smooth="yes"/>
      <point x="266" y="389"/>
      <point x="284" y="367"/>
    </contour>
  </outline>
</glyph>
<glyph name="oslash" format="2">
  <advance width="500"/>
  <unicode hex="00F8"/>
  <outline>
    <contour>
      <point x="71" y="-32" type="line"/>
      <point x="128" y="26" type="line"/>
      <point x="154" y="2"/>
      <point x="191" y="-11"/>
      <point x="237" y="-11" type="curve" smooth="yes"/>
      <point x="430" y="-11"/>
      <point x="505" y="175"/>
      <point x="505" y="313" type="curve" smooth="yes"/>
      <point x="505" y="343"/>
      <point x="499" y="369"/>
      <point x="490" y="390" type="curve"/>
      <point x="556" y="457" type="line"/>
      <point x="513" y="496" type="line"/>
      <point x="456" y="438" type="line"/>
      <point x="430" y="462"/>
      <point x="393" y="475"/>
      <point x="348" y="475" type="curve" smooth="yes"/>
      <point x="155" y="475"/>
      <point x="80" y="289"/>
      <point x="80" y="151" type="curve" smooth="yes"/>
      <point x="80" y="121"/>
      <point x="85" y="96"/>
      <point x="95" y="73" type="curve"/>
      <point x="29" y="7" type="line"/>
    </contour>
    <contour>
      <point x="251" y="63" type="curve" smooth="yes"/>
      <point x="221" y="63"/>
      <point x="199" y="70"/>
      <point x="184" y="82" type="curve"/>
      <point x="425" y="325" type="line"/>
      <point x="433" y="227"/>
      <point x="373" y="63"/>
    </contour>
    <contour>
      <point x="160" y="139" type="line"/>
      <point x="146" y="225"/>
      <point x="212" y="402"/>
      <point x="334" y="402" type="curve" smooth="yes"/>
      <point x="364" y="402"/>
      <point x="386" y="395"/>
      <point x="400" y="381" type="curve"/>
    </contour>
  </outline>
</glyph>
<glyph name="thorn" format="2">
  <advance width="500"/>
  <unicode hex="00FE"/>
  <outline>
    <contour>
      <point x="18" y="-165" type="line"/>
      <point x="100" y="-165" type="line"/>
      <point x="138" y="-6" type="line"/>
      <point x="150" y="-9"/>
      <point x="176" y="-10"/>
      <point x="189" y="-10" type="curve" smooth="yes"/>
      <point x="399" y="-10"/>
      <point x="505" y="147"/>
      <point x="505" y="312" type="curve" smooth="yes"/>
      <point x="505" y="406"/>
      <point x="453" y="475"/>
      <point x="359" y="475" type="curve" smooth="yes"/>
      <point x="334" y="475"/>
      <point x="291" y="472"/>
      <point x="248" y="446" type="curve"/>
      <point x="306" y="693" type="line"/>
      <point x="221" y="679" type="line"/>
    </contour>
    <contour>
      <point x="204" y="62" type="curve" smooth="yes"/>
      <point x="191" y="62"/>
      <point x="167" y="64"/>
      <point x="155" y="67" type="curve"/>
      <point x="228" y="370" type="line"/>
      <point x="264" y="396"/>
      <point x="305" y="405"/>
      <point x="334" y="405" type="curve" smooth="yes"/>
      <point x="401" y="405"/>
      <point x="423" y="355"/>
      <point x="423" y="302" type="curve" smooth="yes"/>
      <point x="423" y="176"/>
      <point x="331" y="62"/>
    </contour>
  </outline>
</glyph>
<glyph name="Aogonek" format="2">
  <advance width="500"/>
  <unicode hex="0104"/>
  <outline>
    <contour>
      <point x="391" y="-167" type="curve" smooth="yes"/>
      <point x="411" y="-167"/>
      <point x="429" y="-163"/>
      <point x="442" y="-157" type="curve"/>
      <point x="449" y="-104" type="line"/>
      <point x="439" y="-107"/>
      <point x="425" y="-110"/>
      <point x="414" y="-110" type="curve" smooth="yes"/>
      <point x="390" y="-110"/>
      <point x="381" y="-102"/>
      <point x="381" y="-90" type="curve" smooth="yes"/>
      <point x="381" y="-61"/>
      <point x="428" y="-29"/>
      <point x="469" y="0" type="curve"/>
      <point x="464" y="175"/>
      <point x="455" y="421"/>
      <point x="425" y="619" type="curve"/>
      <point x="327" y="619" type="line"/>
      <point x="201" y="421"/>
      <point x="76" y="176"/>
      <point x="-13" y="0" type="curve"/>
      <point x="70" y="0" type="line"/>
      <point x="95" y="54"/>
      <point x="121" y="108"/>
      <point x="146" y="162" type="curve"/>
      <point x="384" y="162" type="line"/>
      <point x="383" y="0" type="line"/>
      <point x="387" y="0" type="line"/>
      <point x="357" y="-20"/>
      <point x="302" y="-65"/>
      <point x="302" y="-111" type="curve" smooth="yes"/>
      <point x="302" y="-144"/>
      <point x="325" y="-167"/>
    </contour>
    <contour>
      <point x="181" y="230" type="line"/>
      <point x="242" y="347"/>
      <point x="307" y="464"/>
      <point x="357" y="547" type="curve"/>
      <point x="368" y="468"/>
      <point x="379" y="349"/>
      <point x="381" y="230" type="curve"/>
    </contour>
  </outline>
</glyph>
<glyph name="aogonek" format="2">
  <advance width="500"/>
  <unicode hex="0105"/>
  <outline>
    <contour>
      <point x="363" y="-167" type="curve" smooth="yes"/>
      <point x="383" y="-167"/>
      <point x="401" y="-163"/>
      <point x="414" y="-157" type="curve"/>
      <point x="421" y="-104" type="line"/>
      <point x="411" y="-107"/>
      <point x="397" y="-110"/>
      <point x="386" y="-110" type="curve" smooth="yes"/>
      <point x="362" y="-110"/>
      <point x="353" y="-102"/>
      <point x="353" y="-90" type="curve" smooth="yes"/>
      <point x="353" y="-66"/>
      <point x="386" y="-36"/>
      <point x="449" y="5" type="curve"/>
      <point x="438" y="38"/>
      <point x="433" y="64"/>
      <point x="433" y="92" type="curve" smooth="yes"/>
      <point x="433" y="120"/>
      <point x="438" y="143"/>
      <point x="445" y="171" type="curve" smooth="yes"/>
      <point x="513" y="451" type="line"/>
      <point x="481" y="468"/>
      <point x="427" y="474"/>
      <point x="395" y="474" type="curve" smooth="yes"/>
      <point x="178" y="474"/>
      <point x="71" y="314"/>
      <point x="71" y="155" type="curve" smooth="yes"/>
      <point x="71" y="59"/>
      <point x="118" y="-11"/>
      <point x="222" y="-11" type="curve" smooth="yes"/>
      <point x="286" y="-11"/>
      <point x="335" y="18"/>
      <point x="361" y="42" type="curve"/>
      <point x="363" y="29"/>
      <point x="367" y="17"/>
      <point x="371" y="6" type="curve"/>
      <point x="334" y="-16"/>
      <point x="274" y="-60"/>
      <point x="274" y="-111" type="curve" smooth="yes"/>
      <point x="274" y="-144"/>
      <point x="297" y="-167"/>
    </contour>
    <contour>
      <point x="239" y="57" type="curve" smooth="yes"/>
      <point x="173" y="57"/>
      <point x="154" y="104"/>
      <point x="154" y="164" type="curve" smooth="yes"/>
      <point x="154" y="290"/>
      <point x="244" y="405"/>
      <point x="380" y="405" type="curve" smooth="yes"/>
      <point x="390" y="405"/>
      <point x="414" y="402"/>
      <point x="421" y="400" type="curve"/>
      <point x="366" y="181" type="line" smooth="yes"/>
      <point x="361" y="159"/>
      <point x="357" y="131"/>
      <point x="356" y="111" type="curve"/>
      <point x="330" y="82"/>
      <point x="289" y="57"/>
    </contour>
  </outline>
</glyph>
<glyph name="dcaron" format="2">
  <advance width="500"/>
  <unicode hex="010F"/>
  <outline>
    <contour>
      <point x="175" y="-11" type="curve" smooth="yes"/>
      <point x="238" y="-11"/>
      <point x="274" y="18"/>
      <point x="298" y="42" type="curve"/>
      <point x="302" y="23"/>
      <point x="307" y="7"/>
      <point x="313" y="-5" type="curve"/>
      <point x="387" y="5" type="line"/>
      <point x="375" y="38"/>
      <point x="371" y="64"/>
      <point x="371" y="92" type="curve" smooth="yes"/>
      <point x="371" y="120"/>
      <point x="376" y="143"/>
      <point x="382" y="171" type="curve" smooth="yes"/>
      <point x="508" y="693" type="line"/>
      <point x="423" y="679" type="line"/>
      <point x="373" y="471" type="line"/>
      <point x="363" y="473"/>
      <point x="348" y="474"/>
      <point x="338" y="474" type="curve" smooth="yes"/>
      <point x="144" y="474"/>
      <point x="48" y="306"/>
      <point x="48" y="142" type="curve" smooth="yes"/>
      <point x="48" y="64"/>
      <point x="88" y="-11"/>
    </contour>
    <contour>
      <point x="191" y="57" type="curve" smooth="yes"/>
      <point x="145" y="57"/>
      <point x="130" y="110"/>
      <point x="130" y="153" type="curve" smooth="yes"/>
      <point x="130" y="283"/>
      <point x="207" y="405"/>
      <point x="328" y="405" type="curve" smooth="yes"/>
      <point x="336" y="405"/>
      <point x="354" y="402"/>
      <point x="358" y="400" type="curve"/>
      <point x="304" y="181" type="line" smooth="yes"/>
      <point x="298" y="159"/>
      <point x="295" y="131"/>
      <point x="294" y="111" type="curve"/>
      <point x="271" y="82"/>
      <point x="237" y="57"/>
    </contour>
    <contour>
      <point x="519" y="495" type="line"/>
      <point x="573" y="495" type="line"/>
      <point x="646" y="693" type="line"/>
      <point x="566" y="693" type="line"/>
    </contour>
  </outline>
</glyph>
<glyph name="dcroat" format="2">
  <advance width="500"/>
  <unicode hex="0111"/>
  <outline>
    <contour>
      <point x="220" y="-11" type="curve" smooth="yes"/>
      <point x="285" y="-11"/>
      <point x="327" y="18"/>
      <point x="352" y="42" type="curve"/>
      <point x="355" y="23"/>
      <point x="361" y="7"/>
      <point x="367" y="-5" type="curve"/>
      <point x="440" y="5" type="line"/>
      <point x="429" y="38"/>
      <point x="424" y="64"/>
      <point x="424" y="92" type="curve" smooth="yes"/>
      <point x="424" y="120"/>
      <point x="430" y="143"/>
      <point x="436" y="171" type="curve" smooth="yes"/>
      <point x="527" y="548" type="line"/>
      <point x="593" y="548" type="line"/>
      <point x="608" y="610" type="line"/>
      <point x="541" y="610" type="line"/>
      <point x="562" y="693" type="line"/>
      <point x="477" y="679" type="line"/>
      <point x="460" y="610" type="line"/>
      <point x="292" y="610" type="line"/>
      <point x="277" y="548" type="line"/>
      <point x="446" y="548" type="line"/>
      <point x="427" y="471" type="line"/>
      <point x="414" y="473"/>
      <point x="398" y="474"/>
      <point x="387" y="474" type="curve" smooth="yes"/>
      <point x="183" y="474"/>
      <point x="80" y="315"/>
      <point x="80" y="155" type="curve" smooth="yes"/>
      <point x="80" y="57"/>
      <point x="124" y="-11"/>
    </contour>
    <contour>
      <point x="236" y="57" type="curve" smooth="yes"/>
      <point x="179" y="57"/>
      <point x="163" y="104"/>
      <point x="163" y="164" type="curve" smooth="yes"/>
      <point x="163" y="290"/>
      <point x="247" y="405"/>
      <point x="376" y="405" type="curve" smooth="yes"/>
      <point x="385" y="405"/>
      <point x="406" y="402"/>
      <point x="412" y="400" type="curve"/>
      <point x="357" y="181" type="line" smooth="yes"/>
      <point x="352" y="159"/>
      <point x="348" y="131"/>
      <point x="347" y="111" type="curve"/>
      <point x="322" y="82"/>
      <point x="283" y="57"/>
    </contour>
  </outline>
</glyph>
<glyph name="Eogonek" format="2">
  <advance width="500"/>
  <unicode hex="0118"/>
  <outline>
    <contour>
      <point x="356" y="-167" type="curve" smooth="yes"/>
      <point x="376" y="-167"/>
      <point x="394" y="-163"/>
      <point x="407" y="-157" type="curve"/>
      <point x="414" y="-104" type="line"/>
      <point x="404" y="-107"/>
      <point x="390" y="-110"/>
      <point x="379" y="-110" type="curve" smooth="yes"/>
      <point x="355" y="-110"/>
      <point x="346" y="-102"/>
      <point x="346" y="-90" type="curve" smooth="yes"/>
      <point x="346" y="-57"/>
      <point x="410" y="-15"/>
      <point x="440" y="0" type="curve"/>
      <point x="457" y="70" type="line"/>
      <point x="171" y="70" type="line"/>
      <point x="223" y="289" type="line"/>
      <point x="455" y="289" type="line"/>
      <point x="472" y="359" type="line"/>
      <point x="240" y="359" type="line"/>
      <point x="286" y="549" type="line"/>
      <point x="550" y="549" type="line"/>
      <point x="567" y="619" type="line"/>
      <point x="221" y="619" type="line"/>
      <point x="71" y="0" type="line"/>
      <point x="352" y="0" type="line"/>
      <point x="322" y="-20"/>
      <point x="267" y="-65"/>
      <point x="267" y="-111" type="curve" smooth="yes"/>
      <point x="267" y="-144"/>
      <point x="290" y="-167"/>
    </contour>
  </outline>
</glyph>
<glyph name="eogonek" format="2">
  <advance width="500"/>
  <unicode hex="0119"/>
  <outline>
    <contour>
      <point x="326" y="-167" type="curve" smooth="yes"/>
      <point x="346" y="-167"/>
      <point x="364" y="-163"/>
      <point x="377" y="-157" type="curve"/>
      <point x="384" y="-104" type="line"/>
      <point x="374" y="-107"/>
      <point x="360" y="-110"/>
      <point x="349" y="-110" type="curve" smooth="yes"/>
      <point x="325" y="-110"/>
      <point x="316" y="-102"/>
      <point x="316" y="-90" type="curve" smooth="yes"/>
      <point x="316" y="-66"/>
      <point x="340" y="-40"/>
      <point x="436" y="21" type="curve"/>
      <point x="429" y="91" type="line"/>
      <point x="413" y="80"/>
      <point x="345" y="60"/>
      <point x="288" y="60" type="curve" smooth="yes"/>
      <point x="203" y="60"/>
      <point x="144" y="96"/>
      <point x="152" y="180" type="curve"/>
      <point x="313" y="186"/>
      <point x="503" y="192"/>
      <point x="503" y="360" type="curve" smooth="yes"/>
      <point x="503" y="421"/>
      <point x="459" y="475"/>
      <point x="355" y="475" type="curve" smooth="yes"/>
      <point x="179" y="475"/>
      <point x="71" y="330"/>
      <point x="71" y="162" type="curve" smooth="yes"/>
      <point x="71" y="71"/>
      <point x="133" y="-12"/>
      <point x="263" y="-12" type="curve" smooth="yes"/>
      <point x="278" y="-12"/>
      <point x="293" y="-11"/>
      <point x="307" y="-10" type="curve"/>
      <point x="262" y="-46"/>
      <point x="237" y="-79"/>
      <point x="237" y="-111" type="curve" smooth="yes"/>
      <point x="237" y="-144"/>
      <point x="260" y="-167"/>
    </contour>
    <contour>
      <point x="162" y="244" type="curve"/>
      <point x="185" y="329"/>
      <point x="254" y="406"/>
      <point x="345" y="406" type="curve" smooth="yes"/>
      <point x="405" y="406"/>
      <point x="421" y="375"/>
      <point x="421" y="354" type="curve" smooth="yes"/>
      <point x="421" y="265"/>
      <point x="322" y="246"/>
    </contour>
  </outline>
</glyph>
<glyph name="hcircumflex" format="2">
  <advance width="500"/>
  <unicode hex="0125"/>
  <outline>
    <contour>
      <point x="45" y="0" type="line"/>
      <point x="126" y="0" type="line"/>
      <point x="221" y="388" type="line"/>
      <point x="246" y="398"/>
      <point x="272" y="402"/>
      <point x="301" y="402" type="curve" smooth="yes"/>
      <point x="372" y="402"/>
      <point x="394" y="367"/>
      <point x="394" y="320" type="curve" smooth="yes"/>
      <point x="394" y="288"/>
      <point x="383" y="251"/>
      <point x="375" y="218" type="curve" smooth="yes"/>
      <point x="323" y="0" type="line"/>
      <point x="405" y="0" type="line"/>
      <point x="462" y="236" type="line" smooth="yes"/>
      <point x="470" y="268"/>
      <point x="476" y="299"/>
      <point x="476" y="327" type="curve" smooth="yes"/>
      <point x="476" y="413"/>
      <point x="433" y="474"/>
      <point x="325" y="474" type="curve" smooth="yes"/>
      <point x="294" y="474"/>
      <point x="263" y="467"/>
      <point x="236" y="457" type="curve"/>
      <point x="291" y="683" type="line"/>
      <point x="205" y="669" type="line"/>
    </contour>
    <contour>
      <point x="377" y="699" type="line"/>
      <point x="410" y="735" type="line"/>
      <point x="323" y="830" type="line"/>
      <point x="201" y="742" type="line"/>
      <point x="225" y="700" type="line"/>
      <point x="313" y="757" type="line"/>
    </contour>
  </outline>
</glyph>
<glyph name="Hbar" format="2">
  <advance width="500"/>
  <unicode hex="0126"/>
  <outline>
    <contour>
      <point x="63" y="0" type="line"/>
      <point x="144" y="0" type="line"/>
      <point x="213" y="288" type="line"/>
      <point x="388" y="288" type="line"/>
      <point x="319" y="0" type="line"/>
      <point x="401" y="0" type="line"/>
      <point x="513" y="467" type="line"/>
      <point x="578" y="467" type="line"/>
      <point x="593" y="530" type="line"/>
      <point x="529" y="530" type="line"/>
      <point x="550" y="619" type="line"/>
      <point x="468" y="619" type="line"/>
      <point x="447" y="530" type="line"/>
      <point x="271" y="530" type="line"/>
      <point x="293" y="619" type="line"/>
      <point x="211" y="619" type="line"/>
      <point x="189" y="530" type="line"/>
      <point x="125" y="530" type="line"/>
      <point x="109" y="467" type="line"/>
      <point x="174" y="467" type="line"/>
    </contour>
    <contour>
      <point x="230" y="358" type="line"/>
      <point x="256" y="467" type="line"/>
      <point x="431" y="467" type="line"/>
      <point x="405" y="358" type="line"/>
    </contour>
  </outline>
</glyph>
<glyph name="hbar" format="2">
  <advance width="500"/>
  <unicode hex="0127"/>
  <outline>
    <contour>
      <point x="80" y="0" type="line"/>
      <point x="162" y="0" type="line"/>
      <point x="256" y="388" type="line"/>
      <point x="280" y="398"/>
      <point x="304" y="402"/>
      <point x="330" y="402" type="curve" smooth="yes"/>
      <point x="393" y="402"/>
      <point x="412" y="367"/>
      <point x="412" y="320" type="curve" smooth="yes"/>
      <point x="412" y="288"/>
      <point x="401" y="251"/>
      <point x="393" y="218" type="curve" smooth="yes"/>
      <point x="341" y="0" type="line"/>
      <point x="423" y="0" type="line"/>
      <point x="480" y="236" type="line" smooth="yes"/>
      <point x="488" y="268"/>
      <point x="494" y="299"/>
      <point x="494" y="327" type="curve" smooth="yes"/>
      <point x="494" y="413"/>
      <point x="454" y="474"/>
      <point x="354" y="474" type="curve" smooth="yes"/>
      <point x="325" y="474"/>
      <point x="297" y="467"/>
      <point x="271" y="457" type="curve"/>
      <point x="293" y="548" type="line"/>
      <point x="438" y="548" type="line"/>
      <point x="453" y="610" type="line"/>
      <point x="308" y="610" type="line"/>
      <point x="329" y="693" type="line"/>
      <point x="243" y="679" type="line"/>
      <point x="226" y="610" type="line"/>
      <point x="160" y="610" type="line"/>
      <point x="146" y="548" type="line"/>
      <point x="212" y="548" type="line"/>
    </contour>
  </outline>
</glyph>
<glyph name="Iogonek" format="2">
  <advance width="500"/>
  <unicode hex="012E"/>
  <outline>
    <contour>
      <point x="193" y="-167" type="curve" smooth="yes"/>
      <point x="213" y="-167"/>
      <point x="231" y="-163"/>
      <point x="244" y="-157" type="curve"/>
      <point x="251" y="-104" type="line"/>
      <point x="241" y="-107"/>
      <point x="227" y="-110"/>
      <point x="216" y="-110" type="curve" smooth="yes"/>
      <point x="192" y="-110"/>
      <point x="183" y="-102"/>
      <point x="183" y="-90" type="curve" smooth="yes"/>
      <point x="183" y="-64"/>
      <point x="213" y="-40"/>
      <point x="271" y="0" type="curve"/>
      <point x="392" y="0" type="line"/>
      <point x="409" y="70" type="line"/>
      <point x="289" y="70" type="line"/>
      <point x="405" y="549" type="line"/>
      <point x="524" y="549" type="line"/>
      <point x="541" y="619" type="line"/>
      <point x="220" y="619" type="line"/>
      <point x="203" y="549" type="line"/>
      <point x="322" y="549" type="line"/>
      <point x="207" y="70" type="line"/>
      <point x="88" y="70" type="line"/>
      <point x="71" y="0" type="line"/>
      <point x="189" y="0" type="line"/>
      <point x="159" y="-20"/>
      <point x="104" y="-65"/>
      <point x="104" y="-111" type="curve" smooth="yes"/>
      <point x="104" y="-144"/>
      <point x="127" y="-167"/>
    </contour>
  </outline>
</glyph>
<glyph name="iogonek" format="2">
  <advance width="500"/>
  <unicode hex="012F"/>
  <outline>
    <contour>
      <point x="334" y="-167" type="curve" smooth="yes"/>
      <point x="354" y="-167"/>
      <point x="372" y="-163"/>
      <point x="385" y="-157" type="curve"/>
      <point x="392" y="-104" type="line"/>
      <point x="382" y="-107"/>
      <point x="368" y="-110"/>
      <point x="357" y="-110" type="curve" smooth="yes"/>
      <point x="333" y="-110"/>
      <point x="324" y="-102"/>
      <point x="324" y="-90" type="curve" smooth="yes"/>
      <point x="324" y="-66"/>
      <point x="347" y="-42"/>
      <point x="421" y="6" type="curve"/>
      <point x="426" y="76" type="line"/>
      <point x="408" y="71"/>
      <point x="386" y="67"/>
      <point x="363" y="67" type="curve" smooth="yes"/>
      <point x="309" y="67"/>
      <point x="293" y="95"/>
      <point x="293" y="132" type="curve" smooth="yes"/>
      <point x="293" y="154"/>
      <point x="299" y="179"/>
      <point x="305" y="205" type="curve" smooth="yes"/>
      <point x="366" y="464" type="line"/>
      <point x="150" y="464" type="line"/>
      <point x="134" y="395" type="line"/>
      <point x="268" y="395" type="line"/>
      <point x="223" y="212" type="line" smooth="yes"/>
      <point x="215" y="181"/>
      <point x="211" y="152"/>
      <point x="211" y="124" type="curve" smooth="yes"/>
      <point x="211" y="57"/>
      <point x="240" y="3"/>
      <point x="326" y="-2" type="curve"/>
      <point x="298" y="-23"/>
      <point x="245" y="-65"/>
      <point x="245" y="-111" type="curve" smooth="yes"/>
      <point x="245" y="-144"/>
      <point x="268" y="-167"/>
    </contour>
    <contour>
      <point x="330" y="536" type="curve" smooth="yes"/>
      <point x="364" y="536"/>
      <point x="402" y="565"/>
      <point x="402" y="609" type="curve" smooth="yes"/>
      <point x="402" y="648"/>
      <point x="375" y="670"/>
      <point x="341" y="670" type="curve" smooth="yes"/>
      <point x="305" y="670"/>
      <point x="270" y="641"/>
      <point x="270" y="595" type="curve" smooth="yes"/>
      <point x="270" y="557"/>
      <point x="295" y="536"/>
    </contour>
  </outline>
</glyph>
<glyph name="IJ" format="2">
  <advance width="500"/>
  <unicode hex="0132"/>
  <outline>
    <contour>
      <point x="284" y="-13" type="curve" smooth="yes"/>
      <point x="400" y="-13"/>
      <point x="458" y="41"/>
      <point x="489" y="171" type="curve" smooth="yes"/>
      <point x="597" y="619" type="line"/>
      <point x="514" y="619" type="line"/>
      <point x="407" y="172" type="line" smooth="yes"/>
      <point x="388" y="92"/>
      <point x="352" y="58"/>
      <point x="300" y="58" type="curve" smooth="yes"/>
      <point x="255" y="58"/>
      <point x="230" y="79"/>
      <point x="213" y="104" type="curve"/>
      <point x="163" y="37" type="line"/>
      <point x="192" y="4"/>
      <point x="237" y="-13"/>
    </contour>
    <contour>
      <point x="21" y="0" type="line"/>
      <point x="102" y="0" type="line"/>
      <point x="250" y="619" type="line"/>
      <point x="168" y="619" type="line"/>
    </contour>
  </outline>
</glyph>
<glyph name="ij" format="2">
  <advance width="500"/>
  <unicode hex="0133"/>
  <outline>
    <contour>
      <point x="196" y="-168" type="curve" smooth="yes"/>
      <point x="313" y="-168"/>
      <point x="355" y="-115"/>
      <point x="387" y="18" type="curve" smooth="yes"/>
      <point x="494" y="464" type="line"/>
      <point x="412" y="464" type="line"/>
      <point x="305" y="17" type="line" smooth="yes"/>
      <point x="288" y="-51"/>
      <point x="263" y="-96"/>
      <point x="209" y="-96" type="curve" smooth="yes"/>
      <point x="185" y="-96"/>
      <point x="164" y="-91"/>
      <point x="151" y="-83" type="curve"/>
      <point x="132" y="-152" type="line"/>
      <point x="146" y="-162"/>
      <point x="176" y="-168"/>
    </contour>
    <contour>
      <point x="96" y="0" type="line"/>
      <point x="179" y="0" type="line"/>
      <point x="290" y="464" type="line"/>
      <point x="208" y="464" type="line"/>
    </contour>
    <contour>
      <point x="274" y="542" type="curve" smooth="yes"/>
      <point x="306" y="542"/>
      <point x="340" y="569"/>
      <point x="340" y="609" type="curve" smooth="yes"/>
      <point x="340" y="644"/>
      <point x="317" y="663"/>
      <point x="286" y="663" type="curve" smooth="yes"/>
      <point x="253" y="663"/>
      <point x="221" y="638"/>
      <point x="221" y="595" type="curve" smooth="yes"/>
      <point x="221" y="562"/>
      <point x="243" y="542"/>
    </contour>
    <contour>
      <point x="478" y="542" type="curve" smooth="yes"/>
      <point x="510" y="542"/>
      <point x="544" y="569"/>
      <point x="544" y="609" type="curve" smooth="yes"/>
      <point x="544" y="644"/>
      <point x="521" y="663"/>
      <point x="489" y="663" type="curve" smooth="yes"/>
      <point x="456" y="663"/>
      <point x="424" y="638"/>
      <point x="424" y="595" type="curve" smooth="yes"/>
      <point x="424" y="562"/>
      <point x="447" y="542"/>
    </contour>
  </outline>
</glyph>
<glyph name="kgreenlandic" format="2">
  <advance width="500"/>
  <unicode hex="0138"/>
  <outline>
    <contour>
      <point x="63" y="0" type="line"/>
      <point x="145" y="0" type="line"/>
      <point x="201" y="232" type="line"/>
      <point x="265" y="181"/>
      <point x="326" y="96"/>
      <point x="363" y="0" type="curve"/>
      <point x="460" y="0" type="line"/>
      <point x="427" y="91"/>
      <point x="350" y="196"/>
      <point x="286" y="252" type="curve"/>
      <point x="355" y="302"/>
      <point x="489" y="402"/>
      <point x="545" y="464" type="curve"/>
      <point x="447" y="464" type="line"/>
      <point x="389" y="409"/>
      <point x="291" y="333"/>
      <point x="211" y="275" type="curve"/>
      <point x="256" y="464" type="line"/>
      <point x="174" y="464" type="line"/>
    </contour>
  </outline>
</glyph>
<glyph name="lacute" format="2">
  <advance width="500"/>
  <unicode hex="013A"/>
  <outline>
    <contour>
      <point x="324" y="-11" type="curve" smooth="yes"/>
      <point x="379" y="-11"/>
      <point x="425" y="4"/>
      <point x="443" y="15" type="curve"/>
      <point x="437" y="85" type="line"/>
      <point x="419" y="75"/>
      <point x="382" y="59"/>
      <point x="347" y="59" type="curve" smooth="yes"/>
      <point x="297" y="59"/>
      <point x="281" y="77"/>
      <point x="281" y="116" type="curve" smooth="yes"/>
      <point x="281" y="137"/>
      <point x="286" y="162"/>
      <point x="292" y="189" type="curve" smooth="yes"/>
      <point x="410" y="678" type="line"/>
      <point x="194" y="678" type="line"/>
      <point x="177" y="608" type="line"/>
      <point x="311" y="608" type="line"/>
      <point x="212" y="196" type="line" smooth="yes"/>
      <point x="203" y="160"/>
      <point x="199" y="129"/>
      <point x="199" y="103" type="curve" smooth="yes"/>
      <point x="199" y="28"/>
      <point x="236" y="-11"/>
    </contour>
    <contour>
      <point x="307" y="711" type="line"/>
      <point x="461" y="766" type="line"/>
      <point x="442" y="830" type="line"/>
      <point x="292" y="756" type="line"/>
    </contour>
  </outline>
</glyph>
<glyph name="Lslash" format="2">
  <advance width="500"/>
  <unicode hex="0141"/>
  <outline>
    <contour>
      <point x="65" y="0" type="line"/>
      <point x="404" y="0" type="line"/>
      <point x="421" y="70" type="line"/>
      <point x="164" y="70" type="line"/>
      <point x="217" y="288" type="line"/>
      <point x="368" y="360" type="line"/>
      <point x="354" y="421" type="line"/>
      <point x="235" y="365" type="line"/>
      <point x="296" y="619" type="line"/>
      <point x="214" y="619" type="line"/>
      <point x="144" y="329" type="line"/>
      <point x="45" y="281" type="line"/>
      <point x="59" y="220" type="line"/>
      <point x="125" y="251" type="line"/>
    </contour>
  </outline>
</glyph>
<glyph name="lslash" format="2">
  <advance width="500"/>
  <unicode hex="0142"/>
  <outline>
    <contour>
      <point x="324" y="-11" type="curve" smooth="yes"/>
      <point x="379" y="-11"/>
      <point x="425" y="4"/>
      <point x="443" y="15" type="curve"/>
      <point x="437" y="85" type="line"/>
      <point x="419" y="75"/>
      <point x="382" y="59"/>
      <point x="347" y="59" type="curve" smooth="yes"/>
      <point x="297" y="59"/>
      <point x="281" y="77"/>
      <point x="281" y="116" type="curve" smooth="yes"/>
      <point x="281" y="137"/>
      <point x="286" y="162"/>
      <point x="292" y="189" type="curve" smooth="yes"/>
      <point x="328" y="340" type="line"/>
      <point x="430" y="388" type="line"/>
      <point x="415" y="450" type="line"/>
      <point x="346" y="418" type="line"/>
      <point x="412" y="688" type="line"/>
      <point x="196" y="688" type="line"/>
      <point x="179" y="618" type="line"/>
      <point x="313" y="618" type="line"/>
      <point x="256" y="382" type="line"/>
      <point x="160" y="337" type="line"/>
      <point x="174" y="275" type="line"/>
      <point x="238" y="305" type="line"/>
      <point x="212" y="196" type="line" smooth="yes"/>
      <point x="203" y="160"/>
      <point x="199" y="129"/>
      <point x="199" y="103" type="curve" smooth="yes"/>
      <point x="199" y="28"/>
      <point x="236" y="-11"/>
    </contour>
  </outline>
</glyph>
<glyph name="Eng" format="2">
  <advance width="500"/>
  <unicode hex="014A"/>
  <outline>
    <contour>
      <point x="262" y="-167" type="curve" smooth="yes"/>
      <point x="371" y="-167"/>
      <point x="403" y="-110"/>
      <point x="430" y="0" type="curve" smooth="yes"/>
      <point x="579" y="619" type="line"/>
      <point x="504" y="619" type="line"/>
      <point x="394" y="163" type="line"/>
      <point x="359" y="343"/>
      <point x="335" y="420"/>
      <point x="273" y="619" type="curve"/>
      <point x="189" y="619" type="line"/>
      <point x="40" y="0" type="line"/>
      <point x="115" y="0" type="line"/>
      <point x="234" y="503" type="line"/>
      <point x="273" y="362"/>
      <point x="313" y="240"/>
      <point x="359" y="19" type="curve"/>
      <point x="351" y="-15" type="line" smooth="yes"/>
      <point x="338" y="-69"/>
      <point x="320" y="-99"/>
      <point x="275" y="-99" type="curve" smooth="yes"/>
      <point x="258" y="-99"/>
      <point x="245" y="-97"/>
      <point x="238" y="-95" type="curve"/>
      <point x="214" y="-160" type="line"/>
      <point x="224" y="-163"/>
      <point x="245" y="-167"/>
    </contour>
  </outline>
</glyph>
<glyph name="eng" format="2">
  <advance width="500"/>
  <unicode hex="014B"/>
  <outline>
    <contour>
      <point x="262" y="-167" type="curve" smooth="yes"/>
      <point x="353" y="-167"/>
      <point x="397" y="-111"/>
      <point x="422" y="-5" type="curve" smooth="yes"/>
      <point x="480" y="238" type="line" smooth="yes"/>
      <point x="488" y="271"/>
      <point x="494" y="303"/>
      <point x="494" y="331" type="curve" smooth="yes"/>
      <point x="494" y="416"/>
      <point x="449" y="474"/>
      <point x="339" y="474" type="curve" smooth="yes"/>
      <point x="289" y="474"/>
      <point x="224" y="463"/>
      <point x="170" y="447" type="curve"/>
      <point x="63" y="0" type="line"/>
      <point x="145" y="0" type="line"/>
      <point x="239" y="392" type="line"/>
      <point x="258" y="398"/>
      <point x="289" y="402"/>
      <point x="319" y="402" type="curve" smooth="yes"/>
      <point x="394" y="402"/>
      <point x="412" y="363"/>
      <point x="412" y="315" type="curve" smooth="yes"/>
      <point x="412" y="284"/>
      <point x="401" y="249"/>
      <point x="394" y="220" type="curve" smooth="yes"/>
      <point x="340" y="-4" type="line" smooth="yes"/>
      <point x="327" y="-58"/>
      <point x="313" y="-99"/>
      <point x="258" y="-99" type="curve" smooth="yes"/>
      <point x="247" y="-99"/>
      <point x="235" y="-98"/>
      <point x="221" y="-95" type="curve"/>
      <point x="197" y="-160" type="line"/>
      <point x="221" y="-165"/>
      <point x="242" y="-167"/>
    </contour>
  </outline>
</glyph>
<glyph name="OE" format="2">
  <advance width="500"/>
  <unicode hex="0152"/>
  <outline>
    <contour>
      <point x="202" y="-6" type="curve" smooth="yes"/>
      <point x="220" y="-6"/>
      <point x="239" y="-4"/>
      <point x="259" y="0" type="curve"/>
      <point x="465" y="0" type="line"/>
      <point x="482" y="70" type="line"/>
      <point x="341" y="70" type="line"/>
      <point x="394" y="289" type="line"/>
      <point x="498" y="289" type="line"/>
      <point x="515" y="359" type="line"/>
      <point x="411" y="359" type="line"/>
      <point x="456" y="549" type="line"/>
      <point x="584" y="549" type="line"/>
      <point x="601" y="619" type="line"/>
      <point x="408" y="619" type="line"/>
      <point x="390" y="622"/>
      <point x="370" y="625"/>
      <point x="354" y="625" type="curve" smooth="yes"/>
      <point x="148" y="625"/>
      <point x="61" y="361"/>
      <point x="61" y="185" type="curve" smooth="yes"/>
      <point x="61" y="74"/>
      <point x="103" y="-6"/>
    </contour>
    <contour>
      <point x="219" y="65" type="curve" smooth="yes"/>
      <point x="167" y="65"/>
      <point x="144" y="116"/>
      <point x="144" y="190" type="curve" smooth="yes"/>
      <point x="144" y="343"/>
      <point x="211" y="554"/>
      <point x="336" y="554" type="curve" smooth="yes"/>
      <point x="349" y="554"/>
      <point x="362" y="551"/>
      <point x="377" y="547" type="curve"/>
      <point x="263" y="72" type="line"/>
      <point x="260" y="71"/>
      <point x="245" y="65"/>
    </contour>
  </outline>
</glyph>
<glyph name="oe" format="2">
  <advance width="500"/>
  <unicode hex="0153"/>
  <outline>
    <contour>
      <point x="162" y="-12" type="curve" smooth="yes"/>
      <point x="212" y="-12"/>
      <point x="256" y="16"/>
      <point x="284" y="69" type="curve"/>
      <point x="291" y="24"/>
      <point x="331" y="-12"/>
      <point x="374" y="-12" type="curve" smooth="yes"/>
      <point x="407" y="-12"/>
      <point x="447" y="1"/>
      <point x="474" y="21" type="curve"/>
      <point x="466" y="85" type="line"/>
      <point x="439" y="70"/>
      <point x="414" y="62"/>
      <point x="394" y="62" type="curve" smooth="yes"/>
      <point x="357" y="62"/>
      <point x="344" y="91"/>
      <point x="344" y="154" type="curve" smooth="yes"/>
      <point x="344" y="168"/>
      <point x="345" y="175"/>
      <point x="346" y="180" type="curve"/>
      <point x="495" y="196"/>
      <point x="554" y="289"/>
      <point x="554" y="371" type="curve" smooth="yes"/>
      <point x="554" y="443"/>
      <point x="514" y="475"/>
      <point x="468" y="475" type="curve" smooth="yes"/>
      <point x="413" y="475"/>
      <point x="376" y="449"/>
      <point x="345" y="405" type="curve"/>
      <point x="332" y="435"/>
      <point x="313" y="475"/>
      <point x="254" y="475" type="curve" smooth="yes"/>
      <point x="127" y="475"/>
      <point x="55" y="300"/>
      <point x="55" y="150" type="curve" smooth="yes"/>
      <point x="55" y="52"/>
      <point x="87" y="-12"/>
    </contour>
    <contour>
      <point x="172" y="59" type="curve" smooth="yes"/>
      <point x="152" y="59"/>
      <point x="138" y="88"/>
      <point x="138" y="129" type="curve" smooth="yes"/>
      <point x="138" y="313"/>
      <point x="202" y="406"/>
      <point x="244" y="406" type="curve" smooth="yes"/>
      <point x="264" y="406"/>
      <point x="279" y="377"/>
      <point x="279" y="337" type="curve" smooth="yes"/>
      <point x="279" y="153"/>
      <point x="214" y="59"/>
    </contour>
    <contour>
      <point x="354" y="249" type="curve"/>
      <point x="373" y="354"/>
      <point x="413" y="405"/>
      <point x="444" y="405" type="curve" smooth="yes"/>
      <point x="462" y="405"/>
      <point x="475" y="389"/>
      <point x="475" y="356" type="curve" smooth="yes"/>
      <point x="475" y="308"/>
      <point x="443" y="253"/>
    </contour>
  </outline>
</glyph>
<glyph name="Scedilla" format="2">
  <advance width="500"/>
  <unicode hex="015E"/>
  <outline>
    <contour>
      <point x="172" y="-169" type="curve" smooth="yes"/>
      <point x="235" y="-169"/>
      <point x="276" y="-140"/>
      <point x="276" y="-88" type="curve" smooth="yes"/>
      <point x="276" y="-60"/>
      <point x="264" y="-47"/>
      <point x="240" y="-34" type="curve"/>
      <point x="256" y="-12" type="line"/>
      <point x="383" y="-4"/>
      <point x="468" y="61"/>
      <point x="468" y="184" type="curve" smooth="yes"/>
      <point x="468" y="278"/>
      <point x="414" y="311"/>
      <point x="344" y="347" type="curve" smooth="yes"/>
      <point x="288" y="377"/>
      <point x="250" y="396"/>
      <point x="250" y="457" type="curve" smooth="yes"/>
      <point x="250" y="530"/>
      <point x="306" y="561"/>
      <point x="380" y="561" type="curve" smooth="yes"/>
      <point x="440" y="561"/>
      <point x="486" y="546"/>
      <point x="506" y="529" type="curve"/>
      <point x="545" y="595" type="line"/>
      <point x="524" y="609"/>
      <point x="463" y="633"/>
      <point x="395" y="633" type="curve" smooth="yes"/>
      <point x="242" y="633"/>
      <point x="167" y="557"/>
      <point x="167" y="449" type="curve" smooth="yes"/>
      <point x="167" y="356"/>
      <point x="221" y="323"/>
      <point x="277" y="293" type="curve" smooth="yes"/>
      <point x="338" y="260"/>
      <point x="385" y="235"/>
      <point x="385" y="176" type="curve" smooth="yes"/>
      <point x="385" y="88"/>
      <point x="311" y="59"/>
      <point x="238" y="59" type="curve" smooth="yes"/>
      <point x="163" y="59"/>
      <point x="114" y="84"/>
      <point x="92" y="99" type="curve"/>
      <point x="54" y="31" type="line"/>
      <point x="73" y="17"/>
      <point x="124" y="-7"/>
      <point x="198" y="-12" type="curve"/>
      <point x="186" y="-29"/>
      <point x="174" y="-48"/>
      <point x="166" y="-62" type="curve"/>
      <point x="183" y="-66"/>
      <point x="202" y="-74"/>
      <point x="202" y="-94" type="curve" smooth="yes"/>
      <point x="202" y="-111"/>
      <point x="188" y="-116"/>
      <point x="168" y="-116" type="curve" smooth="yes"/>
      <point x="145" y="-116"/>
      <point x="130" y="-111"/>
      <point x="120" y="-106" type="curve"/>
      <point x="100" y="-155" type="line"/>
      <point x="115" y="-163"/>
      <point x="137" y="-169"/>
    </contour>
  </outline>
</glyph>
<glyph name="scedilla" format="2">
  <advance width="500"/>
  <unicode hex="015F"/>
  <outline>
    <contour>
      <point x="182" y="-169" type="curve" smooth="yes"/>
      <point x="245" y="-169"/>
      <point x="286" y="-140"/>
      <point x="286" y="-88" type="curve" smooth="yes"/>
      <point x="286" y="-60"/>
      <point x="274" y="-47"/>
      <point x="250" y="-34" type="curve"/>
      <point x="267" y="-11" type="line"/>
      <point x="372" y="-3"/>
      <point x="442" y="46"/>
      <point x="442" y="139" type="curve" smooth="yes"/>
      <point x="442" y="208"/>
      <point x="396" y="238"/>
      <point x="334" y="263" type="curve" smooth="yes"/>
      <point x="285" y="284"/>
      <point x="248" y="304"/>
      <point x="248" y="336" type="curve" smooth="yes"/>
      <point x="248" y="389"/>
      <point x="301" y="405"/>
      <point x="355" y="405" type="curve" smooth="yes"/>
      <point x="405" y="405"/>
      <point x="449" y="392"/>
      <point x="469" y="380" type="curve"/>
      <point x="500" y="450" type="line"/>
      <point x="477" y="462"/>
      <point x="429" y="475"/>
      <point x="367" y="475" type="curve" smooth="yes"/>
      <point x="241" y="475"/>
      <point x="168" y="417"/>
      <point x="168" y="328" type="curve" smooth="yes"/>
      <point x="168" y="258"/>
      <point x="220" y="235"/>
      <point x="273" y="209" type="curve" smooth="yes"/>
      <point x="328" y="183"/>
      <point x="362" y="166"/>
      <point x="362" y="129" type="curve" smooth="yes"/>
      <point x="362" y="75"/>
      <point x="301" y="58"/>
      <point x="242" y="58" type="curve" smooth="yes"/>
      <point x="181" y="58"/>
      <point x="133" y="81"/>
      <point x="112" y="95" type="curve"/>
      <point x="79" y="25" type="line"/>
      <point x="101" y="13"/>
      <point x="147" y="-6"/>
      <point x="209" y="-11" type="curve"/>
      <point x="197" y="-28"/>
      <point x="184" y="-48"/>
      <point x="176" y="-62" type="curve"/>
      <point x="193" y="-66"/>
      <point x="212" y="-74"/>
      <point x="212" y="-94" type="curve" smooth="yes"/>
      <point x="212" y="-111"/>
      <point x="198" y="-116"/>
      <point x="178" y="-116" type="curve" smooth="yes"/>
      <point x="155" y="-116"/>
      <point x="140" y="-111"/>
      <point x="130" y="-106" type="curve"/>
      <point x="110" y="-155" type="line"/>
      <point x="125" y="-163"/>
      <point x="147" y="-169"/>
    </contour>
  </outline>
</glyph>
<glyph name="uni0162" format="2">
  <advance width="500"/>
  <unicode hex="0162"/>
  <outline>
    <contour>
      <point x="160" y="-169" type="curve" smooth="yes"/>
      <point x="223" y="-169"/>
      <point x="264" y="-140"/>
      <point x="264" y="-88" type="curve" smooth="yes"/>
      <point x="264" y="-60"/>
      <point x="252" y="-47"/>
      <point x="228" y="-34" type="curve"/>
      <point x="253" y="0" type="line"/>
      <point x="271" y="0" type="line"/>
      <point x="403" y="549" type="line"/>
      <point x="572" y="549" type="line"/>
      <point x="589" y="619" type="line"/>
      <point x="169" y="619" type="line"/>
      <point x="152" y="549" type="line"/>
      <point x="321" y="549" type="line"/>
      <point x="188" y="0" type="line"/>
      <point x="195" y="0" type="line"/>
      <point x="181" y="-18"/>
      <point x="164" y="-45"/>
      <point x="154" y="-62" type="curve"/>
      <point x="182" y="-70"/>
      <point x="190" y="-79"/>
      <point x="190" y="-94" type="curve" smooth="yes"/>
      <point x="190" y="-111"/>
      <point x="176" y="-116"/>
      <point x="156" y="-116" type="curve" smooth="yes"/>
      <point x="133" y="-116"/>
      <point x="118" y="-111"/>
      <point x="108" y="-106" type="curve"/>
      <point x="88" y="-155" type="line"/>
      <point x="103" y="-163"/>
      <point x="125" y="-169"/>
    </contour>
  </outline>
</glyph>
